<?xml version="1.0" encoding="UTF-8"?><svg id="Capa_2" xmlns="http://www.w3.org/2000/svg" xmlns:xlink="http://www.w3.org/1999/xlink" viewBox="0 0 1921.99 3815.28"><defs><clipPath id="clippath"><rect y="97.25" width="1921.99" height="1916.94" fill="none"/></clipPath><pattern id="New_Pattern_12" x="0" y="0" width="1200" height="1200" patternTransform="translate(6793.47 1620.64) scale(1.52)" patternUnits="userSpaceOnUse" viewBox="0 0 1200 1200"><g><rect width="1200" height="1200" fill="none"/><path d="M819.56,1269.38c2.7-6.87,2.11-14.33,3.13-21.51,.2-1.41,.47-2.82,.78-4.21,.97-1.47,2.09-2.84,3.29-4.14,4.52-4.93,9.84-9.14,13.12-15.09,4.94-8.94,2.55-18.51-3.06-26.11-.8-1.33-1.71-2.56-2.76-3.66-.08-.08-.17-.16-.25-.24-.58-.76-1.22-1.48-1.9-2.16-2.2-2.16-4.78-3.63-7.56-4.64-8.94-4.43-19.68-4.13-27.93,2.28-5.53,4.3-7.61,10.09-8.44,16.81-.49,3.99-1.89,6.81-5.65,8.61-2.46,1.18-5.24,1.62-7.99,1.84-1.91-.22-3.78-.55-5.55-.95-12.67-2.84-23.98-10.62-30.9-21.63-1-1.59-2.87-1.42-3.96-.47-.34,.2-.61,.49-.78,.87-1.01,2.34-1.53,4.87-1.51,7.43-.15-1.38-2.59-2.05-3.85-1.16-1.35,.95-1.59,2.7-1.75,4.28-.25,2.59-.5,5.17-.75,7.76-.74-.85-2.31-.59-2.99,.24,0,.01-.01,.02-.02,.03-1.71-.27-3.45,.47-4,2.69-3.12,12.52,.79,25.43,7.15,36.31,6.72,11.49,16.4,21.24,28.16,27.57,20.51,11.03,55.34,16.23,65.94-10.75Z" fill="#ffe36c"/><g><g><path d="M164.32,101.67c-3.36-6.58-9.33-11.08-14.03-16.6-.93-1.09-1.8-2.22-2.63-3.37-.46-1.7-.74-3.45-.92-5.21-.69-6.65-.33-13.43-2.6-19.83-3.42-9.62-12.17-14.18-21.58-15.01-1.52-.28-3.06-.42-4.57-.36-.12,0-.23,.02-.35,.03-.96-.07-1.92-.07-2.87,0-3.08,.21-5.88,1.17-8.48,2.59-9.24,3.76-16.14,12-16.8,22.42-.45,6.99,2.51,12.38,7,17.46,2.66,3.02,3.85,5.92,2.71,9.94-.75,2.63-2.25,5-3.92,7.21-1.43,1.28-2.92,2.46-4.39,3.52-10.52,7.6-23.85,10.92-36.68,8.81-1.85-.3-2.97,1.21-2.98,2.65-.07,.38-.04,.78,.14,1.16,1.08,2.31,2.63,4.37,4.56,6.06-1.13-.8-3.25,.58-3.42,2.11-.18,1.64,.97,2.98,2.05,4.14,1.77,1.9,3.54,3.8,5.31,5.7-1.13-.01-1.98,1.34-1.8,2.39,0,.01,0,.03,0,.04-1.33,1.1-1.93,2.9-.64,4.77,7.31,10.63,19.56,16.26,31.93,18.71,13.06,2.58,26.78,1.8,39.31-2.82,21.85-8.05,48.83-30.69,35.65-56.5Z" fill="#ffe36c"/><path d="M134.87,121.13c-.38-.64-1.37-.38-1.63,.21-.28,.64-.61,1.23-.97,1.79-1.11,.5-2.13,1.08-3.15,1.81-.28,.2-.39,.46-.39,.71-.14,.16-.26,.32-.37,.49-.08-.07-.16-.12-.26-.15-.22-.23-.56-.32-.95-.13-.77,.38-1.55,.75-2.33,1.13-1.32,.56-2.61,1.18-3.88,1.89-.15,.08-.26,.19-.34,.31-.62,.3-1.24,.6-1.86,.89-1.79,.67-3.54,1.39-5.27,2.2-.55,.16-1.1,.32-1.64,.51-1.62,.41-3.23,.82-4.85,1.22-.16-.31-.47-.56-.93-.54-2.3,.07-4.56,.29-6.83,.69-.02,0-.03,.01-.05,.01-1.09,.09-2.18,.17-3.27,.25-.63-.07-1.25-.14-1.88-.22-2.36-.48-4.72-1.04-7.06-1.65-.29-.08-.53,0-.72,.17-.08-.02-.16-.04-.24-.07-.12-.03-.23-.04-.34-.02-1.89-1.32-3.58-2.89-4.99-4.74-.74-.97-2.25,.18-1.51,1.16,1.69,2.22,3.76,4.08,6.08,5.61,.09,.13,.23,.24,.41,.31,.06,.02,.12,.04,.17,.06,7.99,5,18.77,6.29,27.67,5.32,8.23-.9,28.61-7.06,21.38-19.2Z" fill="#2d2d2d" opacity=".1"/><path d="M169.31,61.69c-.93-2.25-4.61-2.34-6.57-2.36-6.15-.07-11.58,.29-17.33-1.39-.41-.21-.81-.44-1.23-.69-.2,.05-.41,.13-.55,.25-.67,.54-.94,1.88-1.08,2.67-.46,2.55-.12,5.3,.5,7.79,.55,2.2,1.47,3.77,3.07,4.78,.96-.27,1.9-.57,2.82-.92,1.45-.1,2.87-.29,4.23-.54,3.27-.6,18.68-3.48,16.15-9.6Z" fill="#ffc33e"/><path d="M133.21,120.56c-6.85,5.5-14.88,9.3-23.48,11.12-7.98,1.69-17.84,2.19-25.62-.74-3.3-1.24-5.86-4.95-2.58-7.75,1.41-1.2,3.27-1.78,4.97-2.42,2.67-.99,5.24-2.15,7.71-3.55,10.53,3.02,21.76,.78,30.36-5.99,.96-.76-.36-2.12-1.32-1.37-7.59,5.97-17.44,8.11-26.78,5.98,.1-.06,.2-.12,.29-.19,6.14-4.06,11.22-9.45,15.01-15.75,.63-1.05-.99-2.04-1.62-.99-5.56,9.27-13.97,16.22-24.09,20.01-2.76,1.03-6.18,2.09-7.56,4.95-1.5,3.1,.38,6.36,3.12,8,3.51,2.1,8.36,2.46,12.36,2.76,4.7,.35,9.45,.09,14.1-.71,9.71-1.67,18.78-5.85,26.45-12,.95-.77-.37-2.13-1.32-1.37Z" fill="#ffc33e"/><path d="M126.5,59.76c-1.32,.38-2.2,1.68-1.87,3.06l.05,.21c.31,1.29,1.74,2.25,3.06,1.87,1.32-.38,2.2-1.68,1.87-3.06l-.05-.21c-.31-1.29-1.75-2.25-3.06-1.87Z" fill="#514f50"/></g><g><path d="M372.47,247.26c-.06-7.38-3.39-14.08-5.12-21.12-.34-1.39-.62-2.79-.84-4.19,.35-1.72,.88-3.42,1.5-5.07,2.36-6.26,5.71-12.16,6.54-18.9,1.24-10.13-4.55-18.13-12.59-23.08-1.23-.93-2.55-1.74-3.93-2.37-.11-.05-.21-.09-.32-.13-.82-.49-1.68-.92-2.57-1.29-2.85-1.19-5.79-1.58-8.74-1.48-9.95-.77-19.8,3.52-25.05,12.54-3.52,6.05-3.29,12.2-1.55,18.74,1.03,3.89,.79,7.02-2.02,10.1-1.84,2.02-4.25,3.46-6.73,4.7-1.85,.5-3.71,.9-5.5,1.19-12.81,2.09-26.21-.9-36.74-8.52-1.52-1.1-3.19-.25-3.85,1.04-.24,.31-.39,.68-.4,1.1-.07,2.55,.4,5.09,1.37,7.46-.65-1.22-3.17-.94-4,.36-.89,1.38-.47,3.1-.02,4.62,.73,2.49,1.47,4.99,2.2,7.48-1-.52-2.37,.31-2.68,1.33,0,.01,0,.03,0,.04-1.69,.39-3.02,1.73-2.71,3.99,1.78,12.78,10.23,23.3,20.2,31.01,10.52,8.15,23.15,13.58,36.42,15.06,23.14,2.57,57.39-5.61,57.15-34.59Z" fill="#ffe36c"/><path d="M337.42,251.49c-.05-.75-1.05-.96-1.55-.54-.53,.44-1.09,.83-1.67,1.17-1.22-.05-2.38,.01-3.63,.21-.34,.05-.55,.23-.66,.46-.19,.08-.38,.17-.55,.28-.04-.09-.09-.18-.16-.25-.1-.3-.36-.54-.79-.54-.86,0-1.72-.02-2.59-.03-1.43-.09-2.86-.12-4.31-.05-.17,0-.31,.05-.44,.12-.69,0-1.38-.02-2.06-.03-1.9-.2-3.79-.34-5.7-.39-.56-.11-1.13-.2-1.7-.28-1.63-.36-3.25-.72-4.88-1.07,0-.35-.17-.71-.58-.9-2.09-.97-4.21-1.78-6.42-2.44-.02,0-.04,0-.05-.01-1.01-.41-2.03-.82-3.03-1.24-.53-.34-1.06-.69-1.58-1.03-1.9-1.49-3.76-3.04-5.57-4.64-.23-.2-.48-.23-.72-.17-.06-.06-.13-.11-.19-.17-.09-.08-.19-.14-.29-.17-1.1-2.03-1.91-4.19-2.34-6.47-.23-1.2-2.1-.85-1.87,.36,.52,2.74,1.54,5.33,2.93,7.73,.02,.16,.09,.32,.23,.46,.04,.05,.09,.09,.13,.13,4.91,8.05,13.98,14.02,22.37,17.13,7.76,2.88,28.74,6.48,27.7-7.61Z" fill="#2d2d2d" opacity=".1"/><path d="M394.8,213.73c.17-2.43-3.08-4.15-4.82-5.05-5.47-2.81-10.49-4.92-14.88-8.99-.27-.37-.53-.76-.79-1.17-.21-.04-.42-.07-.61-.03-.84,.18-1.68,1.26-2.16,1.9-1.55,2.07-2.48,4.69-3.04,7.19-.5,2.21-.37,4.03,.61,5.65,.97,.19,1.96,.34,2.93,.44,1.34,.55,2.7,1.03,4.02,1.41,3.19,.92,18.27,5.24,18.73-1.36Z" fill="#ffc33e"/><path d="M336.19,250.24c-8.58,1.85-17.47,1.67-25.97-.55-7.89-2.06-16.93-6.02-22.58-12.11-2.39-2.58-3.03-7.05,1.16-8.08,1.8-.45,3.72-.13,5.53,.06,2.83,.3,5.65,.42,8.48,.27,8.07,7.41,19.11,10.43,29.84,8.22,1.2-.25,.62-2.06-.57-1.82-9.46,1.95-19.23-.54-26.63-6.62,.11-.01,.23-.02,.34-.04,7.31-.89,14.26-3.43,20.47-7.38,1.03-.66,.03-2.27-1.01-1.61-9.12,5.8-19.75,8.26-30.5,7.12-2.93-.31-6.46-.9-8.98,1.05-2.73,2.11-2.51,5.86-.79,8.55,2.2,3.45,6.38,5.94,9.82,8,4.05,2.42,8.41,4.31,12.93,5.67,9.43,2.85,19.41,3.17,29.03,1.09,1.2-.26,.62-2.07-.57-1.82Z" fill="#ffc33e"/><path d="M357.38,192.87c-1.35-.25-2.72,.52-3.04,1.9l-.05,.21c-.3,1.29,.55,2.79,1.9,3.04,1.35,.25,2.72-.52,3.04-1.9l.05-.21c.3-1.29-.55-2.79-1.9-3.04Z" fill="#514f50"/></g><g><path d="M665.62,271.6c-2.39-6.99-7.67-12.29-11.54-18.42-.76-1.21-1.47-2.45-2.13-3.71-.22-1.74-.24-3.52-.18-5.28,.26-6.68,1.57-13.34,.23-19.99-2.02-10.01-10.04-15.76-19.24-17.92-1.47-.49-2.97-.85-4.48-1.01-.12-.01-.23-.01-.35-.02-.94-.2-1.89-.34-2.84-.41-3.07-.23-5.99,.33-8.76,1.36-9.68,2.42-17.67,9.6-19.81,19.82-1.43,6.85,.73,12.61,4.45,18.27,2.21,3.36,2.97,6.41,1.27,10.22-1.11,2.5-2.94,4.63-4.9,6.58-1.6,1.06-3.24,2.02-4.84,2.87-11.49,6.03-25.15,7.43-37.55,3.53-1.79-.56-3.11,.78-3.32,2.2-.13,.37-.15,.77-.03,1.17,.74,2.44,1.99,4.7,3.66,6.64-1.01-.95-3.3,.11-3.68,1.6-.41,1.6,.53,3.09,1.44,4.39,1.48,2.13,2.97,4.27,4.45,6.4-1.11-.17-2.15,1.04-2.12,2.11,0,.01,0,.03,0,.04-1.48,.9-2.32,2.59-1.31,4.64,5.73,11.56,17.06,18.87,28.96,23.04,12.56,4.4,26.26,5.57,39.31,2.77,22.77-4.87,52.68-23.47,43.29-50.88Z" fill="#ffe36c"/><path d="M633.71,286.7c-.29-.69-1.3-.57-1.64-.02-.37,.59-.77,1.13-1.21,1.64-1.17,.34-2.26,.77-3.38,1.34-.31,.16-.45,.4-.48,.65-.16,.13-.3,.28-.44,.44-.07-.08-.15-.14-.24-.19-.19-.25-.51-.4-.93-.26-.82,.26-1.64,.53-2.46,.79-1.39,.36-2.75,.79-4.11,1.32-.16,.06-.28,.15-.38,.26-.66,.21-1.31,.42-1.97,.62-1.86,.41-3.71,.88-5.53,1.43-.57,.08-1.14,.17-1.7,.27-1.66,.17-3.31,.35-4.97,.52-.11-.33-.39-.62-.84-.67-2.29-.26-4.55-.36-6.86-.29-.02,0-.04,0-.05,0-1.09-.06-2.18-.14-3.27-.22-.61-.16-1.22-.32-1.83-.48-2.27-.81-4.52-1.69-6.75-2.64-.28-.12-.53-.07-.73,.07-.08-.03-.15-.07-.23-.1-.11-.05-.23-.07-.33-.07-1.68-1.58-3.13-3.37-4.27-5.4-.6-1.07-2.26-.14-1.66,.93,1.36,2.44,3.14,4.57,5.22,6.41,.07,.14,.19,.27,.36,.37,.05,.03,.11,.05,.16,.08,7.2,6.08,17.69,8.88,26.63,9.18,8.28,.28,29.32-2.94,23.88-15.98Z" fill="#2d2d2d" opacity=".1"/><path d="M676.22,232.73c-.6-2.36-4.23-2.97-6.17-3.27-6.08-.94-11.51-1.35-16.96-3.83-.37-.27-.74-.55-1.12-.86-.21,.03-.42,.07-.58,.16-.74,.44-1.2,1.73-1.45,2.49-.82,2.46-.87,5.23-.61,7.79,.23,2.26,.92,3.94,2.36,5.17,.98-.13,1.96-.3,2.92-.51,1.45,.1,2.88,.12,4.26,.07,3.32-.13,18.99-.8,17.34-7.21Z" fill="#ffc33e"/><path d="M632.15,285.9c-7.56,4.47-16.05,7.1-24.82,7.68-8.14,.54-17.97-.36-25.26-4.36-3.09-1.69-5.1-5.73-1.45-8.04,1.56-.99,3.49-1.3,5.27-1.69,2.78-.61,5.5-1.39,8.13-2.42,9.99,4.48,21.43,3.85,30.9-1.63,1.06-.61-.06-2.15-1.11-1.54-8.36,4.84-18.42,5.56-27.36,2.13,.1-.05,.21-.09,.31-.14,6.66-3.15,12.45-7.76,17.09-13.47,.77-.95-.69-2.16-1.47-1.21-6.82,8.38-16.13,14.08-26.68,16.39-2.88,.63-6.41,1.19-8.19,3.83-1.92,2.86-.53,6.35,1.95,8.36,3.18,2.57,7.93,3.62,11.85,4.48,4.61,1.02,9.34,1.43,14.06,1.3,9.84-.28,19.42-3.13,27.88-8.13,1.05-.62-.06-2.16-1.11-1.54Z" fill="#ffc33e"/><path d="M634.12,224.77c-1.36,.19-2.42,1.35-2.28,2.77l.02,.21c.13,1.32,1.41,2.48,2.77,2.28,1.36-.19,2.42-1.35,2.28-2.77l-.02-.21c-.13-1.32-1.41-2.48-2.77-2.28Z" fill="#514f50"/></g><g><path d="M170.3,607.45c-.06-7.38-3.39-14.08-5.12-21.12-.34-1.39-.62-2.79-.84-4.19,.35-1.72,.88-3.42,1.5-5.07,2.36-6.26,5.71-12.16,6.54-18.9,1.24-10.13-4.55-18.13-12.59-23.08-1.23-.93-2.55-1.74-3.93-2.37-.11-.05-.21-.09-.32-.13-.82-.49-1.68-.92-2.57-1.29-2.85-1.19-5.79-1.58-8.74-1.48-9.95-.77-19.8,3.52-25.05,12.54-3.52,6.05-3.29,12.2-1.55,18.74,1.03,3.89,.79,7.02-2.02,10.1-1.84,2.02-4.25,3.46-6.73,4.7-1.85,.5-3.71,.9-5.5,1.19-12.81,2.09-26.21-.9-36.74-8.52-1.52-1.1-3.19-.25-3.85,1.04-.24,.31-.39,.68-.4,1.1-.07,2.55,.4,5.09,1.37,7.46-.65-1.22-3.17-.94-4,.36-.89,1.38-.47,3.1-.02,4.62,.73,2.49,1.47,4.99,2.2,7.48-1-.52-2.37,.31-2.68,1.33,0,.01,0,.03,0,.04-1.69,.39-3.02,1.73-2.71,3.99,1.78,12.78,10.23,23.3,20.2,31.01,10.52,8.15,23.15,13.58,36.42,15.06,23.14,2.57,57.39-5.61,57.15-34.59Z" fill="#ffe36c"/><path d="M135.25,611.69c-.05-.75-1.05-.96-1.55-.54-.53,.44-1.09,.83-1.67,1.17-1.22-.05-2.38,.01-3.63,.21-.34,.05-.55,.23-.66,.46-.19,.08-.38,.17-.55,.28-.04-.09-.09-.18-.16-.25-.1-.3-.36-.54-.79-.54-.86,0-1.72-.02-2.59-.03-1.43-.09-2.86-.11-4.31-.05-.17,0-.31,.05-.44,.12-.69,0-1.38-.02-2.06-.03-1.9-.2-3.79-.34-5.7-.39-.56-.11-1.13-.2-1.7-.28-1.63-.36-3.25-.72-4.88-1.07,0-.35-.17-.71-.58-.9-2.09-.97-4.21-1.78-6.42-2.44-.02,0-.04,0-.05-.01-1.01-.41-2.03-.82-3.03-1.24-.53-.34-1.06-.69-1.58-1.03-1.9-1.49-3.76-3.04-5.57-4.64-.23-.2-.48-.23-.72-.17-.06-.06-.13-.11-.19-.17-.09-.08-.19-.14-.29-.17-1.1-2.03-1.91-4.19-2.34-6.47-.23-1.2-2.1-.85-1.87,.36,.52,2.74,1.54,5.33,2.93,7.73,.02,.16,.09,.32,.23,.46,.04,.05,.09,.09,.13,.13,4.91,8.05,13.98,14.02,22.37,17.13,7.76,2.88,28.74,6.48,27.7-7.61Z" fill="#2d2d2d" opacity=".1"/><path d="M192.63,573.92c.17-2.43-3.08-4.15-4.82-5.05-5.47-2.81-10.49-4.92-14.88-8.99-.27-.37-.53-.76-.79-1.17-.21-.04-.42-.07-.61-.03-.84,.18-1.68,1.26-2.16,1.9-1.55,2.07-2.48,4.69-3.04,7.19-.5,2.21-.37,4.03,.61,5.65,.97,.19,1.96,.34,2.93,.44,1.34,.55,2.7,1.03,4.02,1.41,3.19,.92,18.27,5.24,18.73-1.36Z" fill="#ffc33e"/><path d="M134.02,610.44c-8.58,1.85-17.47,1.67-25.97-.55-7.89-2.06-16.93-6.02-22.58-12.11-2.39-2.58-3.03-7.05,1.16-8.08,1.8-.45,3.72-.13,5.53,.06,2.83,.3,5.65,.42,8.48,.27,8.07,7.41,19.11,10.43,29.84,8.22,1.2-.25,.62-2.06-.57-1.82-9.46,1.95-19.23-.54-26.63-6.62,.11-.01,.23-.02,.34-.04,7.31-.89,14.26-3.43,20.47-7.38,1.03-.66,.03-2.27-1.01-1.61-9.12,5.8-19.75,8.26-30.5,7.12-2.93-.31-6.46-.9-8.98,1.05-2.73,2.11-2.51,5.86-.79,8.55,2.2,3.45,6.38,5.94,9.82,8,4.05,2.42,8.41,4.31,12.93,5.67,9.43,2.85,19.41,3.17,29.03,1.09,1.2-.26,.62-2.07-.57-1.82Z" fill="#ffc33e"/><path d="M155.21,553.06c-1.35-.25-2.72,.52-3.04,1.9l-.05,.21c-.3,1.29,.55,2.79,1.9,3.04,1.35,.25,2.72-.52,3.04-1.9l.05-.21c.3-1.29-.55-2.79-1.9-3.04Z" fill="#514f50"/></g><g><path d="M542.59,49.88c-6.6-3.31-14.08-3.4-21.13-5.07-1.39-.33-2.76-.72-4.12-1.16-1.38-1.09-2.64-2.34-3.82-3.65-4.5-4.95-8.21-10.63-13.84-14.44-8.45-5.73-18.2-4.22-26.28,.68-1.39,.67-2.71,1.47-3.9,2.41-.09,.07-.17,.15-.26,.23-.81,.51-1.59,1.08-2.32,1.7-2.35,1.99-4.05,4.43-5.3,7.1-5.22,8.51-5.9,19.23-.27,28.02,3.78,5.89,9.35,8.49,15.98,9.93,3.93,.85,6.61,2.5,8.07,6.41,.96,2.56,1.14,5.36,1.11,8.13-.4,1.88-.89,3.71-1.45,5.44-3.98,12.36-12.75,22.92-24.34,28.81-1.67,.85-1.68,2.73-.83,3.9,.17,.35,.43,.65,.8,.85,2.24,1.22,4.71,1.96,7.26,2.18-1.39,.02-2.28,2.39-1.51,3.72,.82,1.43,2.54,1.83,4.1,2.13,2.55,.48,5.11,.97,7.66,1.45-.92,.66-.8,2.25-.04,2.99,0,0,.02,.02,.03,.03-.42,1.68,.16,3.48,2.31,4.23,12.19,4.24,25.39,1.52,36.81-3.83,12.05-5.65,22.65-14.41,30.01-25.54,12.84-19.42,21.18-53.64-4.72-66.64Z" fill="#ffe36c"/><path d="M530.37,83.01c-.69-.29-1.33,.5-1.19,1.13,.15,.68,.24,1.35,.28,2.02-.6,1.06-1.07,2.13-1.47,3.32-.11,.33-.05,.6,.11,.8-.02,.21-.02,.41,0,.62-.1,0-.2,0-.3,.03-.31-.05-.64,.07-.85,.46-.4,.76-.8,1.52-1.2,2.29-.73,1.23-1.41,2.49-2.01,3.82-.07,.15-.1,.3-.09,.45-.32,.61-.64,1.22-.97,1.82-1.05,1.6-2.03,3.22-2.95,4.89-.35,.45-.69,.91-1.03,1.38-1.06,1.28-2.12,2.57-3.18,3.85-.31-.16-.71-.17-1.07,.11-1.82,1.42-3.5,2.93-5.1,4.6-.01,.01-.02,.03-.03,.04-.82,.72-1.65,1.43-2.49,2.13-.55,.31-1.1,.63-1.64,.94-2.19,1.01-4.41,1.96-6.67,2.84-.28,.11-.43,.32-.48,.56-.08,.03-.16,.06-.23,.09-.12,.04-.21,.11-.28,.18-2.3,.05-4.6-.21-6.83-.87-1.17-.35-1.71,1.48-.53,1.83,2.68,.79,5.44,1.06,8.22,.92,.15,.05,.32,.06,.51,0,.06-.02,.12-.04,.18-.05,9.4-.7,18.85-6.05,25.44-12.09,6.1-5.6,18.87-22.63,5.86-28.13Z" fill="#2d2d2d" opacity=".1"/><path d="M522.94,14.71c-2.08-1.26-5.1,.85-6.69,1.99-5,3.59-9.16,7.09-14.79,9.14-.45,.07-.92,.13-1.4,.17-.13,.16-.25,.34-.3,.53-.22,.83,.36,2.07,.71,2.79,1.14,2.33,3.05,4.34,5.02,5.99,1.74,1.45,3.42,2.17,5.31,2.04,.61-.78,1.19-1.59,1.73-2.41,1.1-.94,2.14-1.93,3.09-2.93,2.28-2.42,13-13.86,7.33-17.29Z" fill="#ffc33e"/><path d="M528.7,83.53c-2.27,8.48-6.49,16.31-12.34,22.86-5.43,6.08-13.08,12.33-21.08,14.57-3.39,.95-7.65-.52-6.67-4.72,.42-1.8,1.58-3.37,2.58-4.89,1.56-2.38,2.95-4.84,4.11-7.42,10.27-3.8,18-12.25,20.92-22.8,.33-1.18-1.55-1.5-1.88-.32-2.58,9.3-9.25,16.86-18.04,20.68,.04-.11,.09-.21,.12-.32,2.55-6.91,3.45-14.26,2.77-21.58-.11-1.22-2.01-1.06-1.9,.16,1,10.76-1.66,21.35-7.57,30.39-1.61,2.46-3.74,5.34-3.16,8.47,.63,3.39,4.07,4.9,7.25,4.6,4.07-.39,8.2-2.97,11.6-5.09,4-2.5,7.67-5.52,10.94-8.92,6.83-7.09,11.68-15.83,14.21-25.33,.32-1.18-1.56-1.5-1.88-.32Z" fill="#ffc33e"/><path d="M487.3,38.5c-.84,1.09-.78,2.66,.31,3.57l.16,.14c1.02,.85,2.74,.78,3.57-.31,.84-1.09,.78-2.66-.31-3.57l-.16-.14c-1.02-.85-2.74-.78-3.57,.31Z" fill="#514f50"/></g><g><path d="M610.44,672.91c-3.36-6.58-9.33-11.08-14.03-16.6-.93-1.09-1.8-2.22-2.63-3.37-.46-1.7-.74-3.45-.92-5.21-.69-6.65-.33-13.43-2.61-19.83-3.42-9.62-12.17-14.18-21.58-15.01-1.52-.28-3.06-.42-4.57-.36-.12,0-.23,.02-.35,.03-.96-.07-1.92-.07-2.87,0-3.08,.21-5.88,1.17-8.48,2.58-9.24,3.76-16.14,12-16.8,22.42-.45,6.99,2.51,12.38,7,17.46,2.66,3.02,3.85,5.92,2.71,9.94-.75,2.63-2.25,5-3.92,7.21-1.43,1.28-2.92,2.46-4.39,3.52-10.52,7.6-23.85,10.92-36.68,8.81-1.85-.3-2.97,1.21-2.98,2.65-.07,.38-.04,.78,.14,1.16,1.08,2.31,2.63,4.37,4.56,6.06-1.13-.8-3.25,.58-3.42,2.11-.18,1.64,.97,2.98,2.05,4.14,1.77,1.9,3.54,3.8,5.31,5.7-1.13-.01-1.98,1.34-1.8,2.39,0,.01,0,.03,0,.04-1.33,1.1-1.93,2.9-.64,4.77,7.31,10.63,19.56,16.26,31.93,18.71,13.06,2.58,26.78,1.79,39.31-2.82,21.85-8.05,48.83-30.69,35.65-56.5Z" fill="#ffe36c"/><path d="M580.99,692.37c-.38-.64-1.37-.38-1.63,.21-.28,.64-.61,1.23-.97,1.79-1.11,.5-2.13,1.08-3.15,1.81-.28,.2-.39,.46-.39,.71-.14,.16-.26,.32-.37,.49-.08-.07-.16-.12-.26-.15-.22-.23-.56-.32-.95-.13-.78,.38-1.55,.75-2.33,1.13-1.32,.56-2.61,1.18-3.88,1.89-.15,.08-.26,.19-.34,.31-.62,.3-1.24,.6-1.86,.89-1.79,.67-3.54,1.39-5.27,2.2-.55,.16-1.1,.32-1.64,.51-1.62,.41-3.23,.82-4.85,1.22-.16-.31-.47-.56-.93-.54-2.3,.07-4.56,.29-6.83,.69-.02,0-.03,.01-.05,.01-1.09,.09-2.18,.17-3.27,.25-.63-.07-1.25-.14-1.88-.22-2.36-.48-4.72-1.04-7.06-1.65-.29-.08-.53,0-.72,.17-.08-.02-.16-.04-.24-.06-.12-.03-.23-.04-.34-.02-1.89-1.32-3.58-2.89-4.99-4.74-.74-.97-2.25,.18-1.51,1.16,1.69,2.22,3.76,4.08,6.08,5.61,.09,.13,.22,.24,.41,.31,.06,.02,.12,.04,.17,.06,7.99,5,18.77,6.29,27.67,5.32,8.23-.9,28.61-7.06,21.38-19.2Z" fill="#2d2d2d" opacity=".1"/><path d="M615.43,632.93c-.93-2.25-4.61-2.34-6.57-2.36-6.15-.07-11.58,.29-17.33-1.39-.41-.21-.81-.44-1.23-.69-.2,.05-.41,.13-.55,.25-.67,.54-.94,1.88-1.08,2.67-.46,2.55-.12,5.3,.5,7.79,.55,2.2,1.47,3.77,3.07,4.78,.96-.27,1.9-.57,2.82-.92,1.45-.1,2.87-.29,4.23-.54,3.27-.6,18.68-3.48,16.15-9.6Z" fill="#ffc33e"/><path d="M579.33,691.8c-6.85,5.5-14.88,9.3-23.48,11.12-7.98,1.69-17.84,2.19-25.62-.74-3.3-1.24-5.86-4.95-2.58-7.75,1.41-1.2,3.27-1.78,4.97-2.42,2.67-.99,5.24-2.15,7.71-3.55,10.53,3.02,21.76,.78,30.36-5.99,.96-.76-.36-2.12-1.32-1.37-7.59,5.97-17.44,8.11-26.78,5.98,.1-.06,.2-.12,.29-.19,6.14-4.06,11.22-9.45,15.01-15.75,.63-1.05-.99-2.04-1.62-.99-5.56,9.27-13.97,16.22-24.09,20.01-2.76,1.03-6.18,2.09-7.56,4.95-1.5,3.1,.38,6.36,3.12,8,3.51,2.1,8.36,2.46,12.36,2.76,4.7,.35,9.45,.09,14.1-.71,9.71-1.67,18.78-5.85,26.45-12,.95-.77-.37-2.13-1.32-1.37Z" fill="#ffc33e"/><path d="M572.62,631.01c-1.32,.38-2.2,1.68-1.87,3.06l.05,.21c.31,1.29,1.74,2.25,3.06,1.87,1.32-.38,2.2-1.68,1.87-3.06l-.05-.21c-.31-1.29-1.74-2.25-3.06-1.87Z" fill="#514f50"/></g><g><path d="M690.57,893.15c-.06-7.38-3.39-14.08-5.12-21.12-.34-1.39-.62-2.79-.84-4.19,.35-1.72,.88-3.42,1.5-5.07,2.36-6.26,5.71-12.16,6.54-18.9,1.24-10.13-4.55-18.13-12.59-23.08-1.23-.93-2.55-1.74-3.93-2.37-.11-.05-.21-.09-.32-.13-.82-.49-1.68-.92-2.57-1.29-2.85-1.19-5.79-1.58-8.74-1.48-9.95-.77-19.8,3.52-25.05,12.54-3.52,6.05-3.29,12.2-1.55,18.74,1.03,3.89,.79,7.02-2.02,10.1-1.84,2.02-4.25,3.46-6.73,4.7-1.85,.5-3.71,.9-5.5,1.19-12.81,2.09-26.21-.9-36.74-8.52-1.52-1.1-3.19-.25-3.85,1.04-.24,.31-.39,.68-.4,1.1-.07,2.55,.4,5.09,1.37,7.46-.65-1.22-3.17-.94-4,.36-.89,1.38-.47,3.1-.02,4.62,.73,2.49,1.47,4.99,2.2,7.48-1-.52-2.37,.31-2.68,1.33,0,.01,0,.03,0,.04-1.69,.39-3.02,1.73-2.71,3.99,1.78,12.78,10.23,23.3,20.2,31.01,10.52,8.15,23.15,13.58,36.42,15.06,23.14,2.57,57.39-5.61,57.15-34.59Z" fill="#ffe36c"/><path d="M655.51,897.39c-.05-.75-1.05-.96-1.55-.54-.53,.44-1.09,.83-1.67,1.17-1.22-.05-2.38,.01-3.63,.21-.34,.05-.55,.23-.66,.46-.19,.08-.38,.17-.55,.28-.04-.09-.09-.18-.16-.25-.1-.3-.36-.54-.8-.54-.86,0-1.72-.02-2.59-.03-1.43-.09-2.86-.11-4.31-.05-.17,0-.31,.05-.44,.12-.69,0-1.38-.02-2.06-.03-1.9-.2-3.79-.34-5.7-.39-.56-.11-1.13-.2-1.7-.28-1.63-.36-3.25-.72-4.88-1.07,0-.35-.17-.71-.58-.9-2.09-.97-4.21-1.78-6.42-2.44-.02,0-.04,0-.05-.01-1.01-.41-2.03-.82-3.03-1.24-.53-.34-1.06-.69-1.58-1.03-1.9-1.49-3.76-3.04-5.57-4.64-.23-.2-.48-.23-.72-.17-.06-.06-.13-.11-.19-.17-.09-.08-.19-.14-.29-.17-1.1-2.03-1.91-4.19-2.34-6.47-.23-1.2-2.1-.85-1.87,.36,.52,2.74,1.54,5.33,2.93,7.73,.02,.16,.09,.32,.23,.46,.04,.05,.09,.09,.13,.13,4.91,8.05,13.98,14.02,22.37,17.13,7.76,2.88,28.74,6.48,27.7-7.61Z" fill="#2d2d2d" opacity=".1"/><path d="M712.9,859.62c.17-2.43-3.08-4.15-4.82-5.05-5.47-2.81-10.49-4.92-14.88-8.99-.27-.37-.53-.76-.79-1.17-.21-.04-.42-.07-.61-.03-.84,.18-1.68,1.26-2.16,1.9-1.55,2.07-2.48,4.69-3.04,7.19-.5,2.21-.37,4.03,.61,5.65,.97,.19,1.96,.34,2.93,.44,1.34,.55,2.7,1.03,4.02,1.41,3.19,.92,18.27,5.24,18.73-1.36Z" fill="#ffc33e"/><path d="M654.29,896.14c-8.58,1.85-17.47,1.67-25.97-.55-7.89-2.06-16.93-6.02-22.58-12.11-2.39-2.58-3.03-7.05,1.16-8.08,1.8-.45,3.72-.13,5.53,.06,2.83,.3,5.65,.42,8.48,.27,8.07,7.41,19.11,10.43,29.84,8.22,1.2-.25,.62-2.06-.57-1.82-9.46,1.95-19.23-.54-26.63-6.62,.11-.01,.23-.02,.34-.04,7.31-.89,14.26-3.43,20.47-7.38,1.03-.66,.03-2.27-1.01-1.61-9.12,5.8-19.75,8.26-30.5,7.12-2.93-.31-6.46-.9-8.98,1.05-2.73,2.11-2.51,5.86-.79,8.55,2.2,3.45,6.38,5.94,9.82,8,4.05,2.42,8.41,4.31,12.93,5.67,9.43,2.85,19.41,3.17,29.03,1.09,1.2-.26,.62-2.07-.57-1.82Z" fill="#ffc33e"/><path d="M675.48,838.76c-1.35-.25-2.72,.52-3.04,1.9l-.05,.21c-.3,1.29,.55,2.79,1.9,3.04,1.35,.25,2.72-.52,3.04-1.9l.05-.21c.3-1.29-.55-2.79-1.9-3.04Z" fill="#514f50"/></g><g><path d="M879.83,725.24c-5.36-5.08-12.49-7.33-18.76-10.98-1.24-.72-2.43-1.49-3.61-2.3-1-1.45-1.85-3.01-2.6-4.6-2.87-6.04-4.79-12.55-9.06-17.82-6.43-7.93-16.2-9.31-25.35-6.96-1.53,.24-3.02,.62-4.43,1.18-.11,.04-.21,.09-.32,.14-.92,.25-1.83,.57-2.71,.95-2.83,1.22-5.16,3.07-7.13,5.26-7.46,6.63-11.21,16.69-8.37,26.74,1.91,6.73,6.5,10.84,12.42,14.13,3.52,1.96,5.6,4.3,5.87,8.47,.17,2.73-.46,5.46-1.29,8.1-.92,1.68-1.93,3.29-2.96,4.78-7.39,10.67-18.84,18.24-31.64,20.53-1.85,.33-2.4,2.13-1.92,3.49,.06,.38,.22,.75,.51,1.05,1.79,1.81,3.94,3.24,6.32,4.19-1.33-.38-2.87,1.63-2.52,3.13,.38,1.6,1.9,2.49,3.31,3.23,2.3,1.2,4.61,2.4,6.91,3.61-1.07,.36-1.42,1.92-.9,2.86,0,.01,.02,.02,.02,.03-.89,1.48-.85,3.37,.99,4.71,10.44,7.59,23.87,8.81,36.34,6.99,13.17-1.92,25.85-7.23,36.12-15.76,17.92-14.87,35.8-45.21,14.78-65.15Z" fill="#ffe36c"/><path d="M858.55,753.41c-.57-.48-1.42,.09-1.47,.74-.05,.69-.16,1.36-.32,2.01-.88,.84-1.64,1.73-2.37,2.75-.2,.28-.22,.56-.13,.8-.08,.19-.14,.39-.18,.59-.09-.04-.19-.06-.3-.06-.29-.14-.63-.12-.94,.2-.61,.61-1.21,1.23-1.82,1.84-1.06,.97-2.07,1.98-3.03,3.07-.11,.13-.18,.26-.22,.4-.48,.49-.97,.98-1.46,1.46-1.46,1.22-2.88,2.5-4.24,3.83-.47,.33-.93,.67-1.38,1.02-1.39,.92-2.77,1.85-4.16,2.77-.25-.24-.63-.37-1.05-.2-2.15,.83-4.2,1.8-6.21,2.92-.02,0-.03,.02-.05,.03-1,.45-2,.89-3,1.32-.61,.14-1.23,.28-1.84,.42-2.39,.33-4.79,.6-7.2,.79-.3,.02-.5,.18-.62,.4-.08,0-.17,.01-.25,.02-.12,0-.23,.04-.32,.09-2.22-.62-4.34-1.53-6.28-2.81-1.02-.67-2.06,.92-1.04,1.6,2.34,1.53,4.9,2.59,7.6,3.26,.13,.09,.29,.15,.49,.16,.06,0,.12,0,.18,0,9.2,2.05,19.79-.33,27.86-4.21,7.46-3.59,24.62-16.19,13.76-25.22Z" fill="#2d2d2d" opacity=".1"/><path d="M871.21,685.89c-1.63-1.81-5.13-.67-6.98-.04-5.82,1.99-10.82,4.14-16.8,4.47-.45-.06-.92-.14-1.39-.24-.17,.12-.34,.25-.44,.42-.45,.73-.26,2.09-.13,2.87,.41,2.56,1.66,5.04,3.07,7.18,1.25,1.89,2.64,3.07,4.49,3.49,.81-.57,1.6-1.17,2.35-1.8,1.33-.58,2.61-1.23,3.8-1.91,2.88-1.66,16.46-9.51,12.03-14.43Z" fill="#ffc33e"/><path d="M856.8,753.42c-4.63,7.46-10.93,13.73-18.43,18.31-6.96,4.25-16.09,8.01-24.4,7.85-3.52-.07-7.17-2.71-5.01-6.45,.93-1.6,2.49-2.77,3.88-3.94,2.18-1.83,4.23-3.78,6.08-5.91,10.93-.66,20.77-6.52,26.63-15.77,.65-1.03-1.05-1.88-1.7-.85-5.17,8.16-13.74,13.46-23.25,14.57,.07-.09,.14-.18,.21-.27,4.44-5.88,7.43-12.65,8.9-19.85,.24-1.2-1.62-1.6-1.86-.39-2.16,10.59-7.77,19.95-16.05,26.89-2.26,1.89-5.13,4.03-5.48,7.19-.38,3.43,2.48,5.87,5.6,6.5,4.01,.81,8.71-.47,12.58-1.52,4.55-1.23,8.94-3.06,13.06-5.37,8.59-4.81,15.76-11.77,20.94-20.13,.64-1.04-1.06-1.89-1.7-.85Z" fill="#ffc33e"/><path d="M830.21,698.34c-1.12,.8-1.52,2.32-.74,3.51l.12,.18c.72,1.11,2.4,1.54,3.51,.74,1.12-.8,1.52-2.32,.74-3.51l-.12-.18c-.72-1.11-2.4-1.54-3.51-.74Z" fill="#514f50"/></g><g><path d="M429.45,958.07c-.06-7.38-3.39-14.08-5.12-21.12-.34-1.39-.62-2.79-.84-4.19,.35-1.72,.88-3.42,1.5-5.07,2.36-6.26,5.71-12.16,6.54-18.9,1.24-10.13-4.55-18.13-12.59-23.08-1.23-.93-2.55-1.74-3.93-2.37-.11-.05-.21-.09-.32-.13-.82-.49-1.68-.92-2.57-1.29-2.85-1.19-5.79-1.58-8.74-1.48-9.95-.77-19.8,3.52-25.05,12.54-3.52,6.05-3.29,12.2-1.55,18.74,1.03,3.89,.79,7.02-2.02,10.1-1.84,2.02-4.25,3.46-6.73,4.7-1.85,.5-3.71,.9-5.5,1.19-12.81,2.09-26.21-.9-36.74-8.52-1.52-1.1-3.19-.25-3.85,1.04-.24,.31-.39,.68-.4,1.1-.07,2.55,.4,5.09,1.37,7.46-.65-1.22-3.17-.94-4,.36-.89,1.38-.47,3.1-.02,4.62,.73,2.49,1.47,4.99,2.2,7.48-1-.52-2.37,.31-2.68,1.33,0,.01,0,.03,0,.04-1.69,.39-3.02,1.73-2.71,3.99,1.78,12.78,10.23,23.3,20.2,31.01,10.52,8.15,23.15,13.58,36.42,15.06,23.14,2.57,57.39-5.61,57.15-34.59Z" fill="#ffe36c"/><path d="M394.4,962.31c-.05-.75-1.05-.96-1.55-.54-.53,.44-1.09,.83-1.67,1.17-1.22-.05-2.38,.01-3.63,.21-.34,.05-.55,.23-.66,.46-.19,.08-.38,.17-.55,.28-.04-.09-.09-.18-.16-.25-.1-.3-.36-.54-.8-.54-.86,0-1.72-.02-2.59-.03-1.43-.09-2.86-.11-4.31-.05-.17,0-.31,.05-.44,.12-.69,0-1.38-.02-2.06-.03-1.9-.2-3.79-.34-5.7-.39-.56-.11-1.13-.2-1.7-.28-1.63-.36-3.25-.72-4.88-1.07,0-.35-.17-.71-.58-.9-2.09-.97-4.21-1.78-6.42-2.44-.02,0-.04,0-.05-.01-1.01-.41-2.03-.82-3.03-1.24-.53-.34-1.06-.69-1.58-1.03-1.9-1.49-3.76-3.04-5.57-4.64-.23-.2-.48-.23-.72-.17-.06-.06-.13-.11-.19-.17-.09-.08-.19-.14-.29-.17-1.1-2.03-1.91-4.19-2.34-6.47-.23-1.2-2.1-.85-1.87,.36,.52,2.74,1.54,5.33,2.93,7.73,.02,.16,.09,.32,.23,.46,.04,.05,.09,.09,.13,.13,4.91,8.05,13.98,14.02,22.37,17.13,7.76,2.88,28.74,6.48,27.7-7.61Z" fill="#2d2d2d" opacity=".1"/><path d="M451.79,924.54c.17-2.43-3.08-4.15-4.82-5.05-5.47-2.81-10.49-4.92-14.88-8.99-.27-.37-.53-.76-.79-1.17-.21-.04-.42-.07-.61-.03-.84,.18-1.68,1.26-2.16,1.9-1.55,2.07-2.48,4.69-3.04,7.19-.5,2.21-.37,4.03,.61,5.65,.97,.19,1.96,.34,2.93,.44,1.34,.55,2.7,1.03,4.02,1.41,3.19,.92,18.27,5.24,18.73-1.36Z" fill="#ffc33e"/><path d="M393.18,961.06c-8.58,1.85-17.47,1.67-25.97-.55-7.89-2.06-16.93-6.02-22.58-12.11-2.39-2.58-3.03-7.05,1.16-8.08,1.8-.45,3.72-.13,5.53,.06,2.83,.3,5.65,.42,8.48,.27,8.07,7.41,19.11,10.43,29.84,8.22,1.2-.25,.62-2.06-.57-1.82-9.46,1.95-19.23-.54-26.63-6.62,.11-.01,.23-.02,.34-.04,7.31-.89,14.26-3.43,20.47-7.38,1.03-.66,.03-2.27-1.01-1.61-9.12,5.8-19.75,8.26-30.5,7.12-2.93-.31-6.46-.9-8.98,1.05-2.73,2.11-2.51,5.86-.79,8.55,2.2,3.45,6.38,5.94,9.82,8,4.05,2.42,8.41,4.31,12.93,5.67,9.43,2.85,19.41,3.17,29.03,1.09,1.2-.26,.62-2.07-.57-1.82Z" fill="#ffc33e"/><path d="M414.36,903.68c-1.35-.25-2.72,.52-3.04,1.9l-.05,.21c-.3,1.29,.55,2.79,1.9,3.04,1.35,.25,2.72-.52,3.04-1.9l.05-.21c.3-1.29-.55-2.79-1.9-3.04Z" fill="#514f50"/></g><g><path d="M738.86,473.31c-1.87-7.14-6.75-12.82-10.15-19.22-.67-1.26-1.28-2.55-1.85-3.86-.09-1.76,.02-3.53,.21-5.28,.75-6.65,2.55-13.19,1.7-19.92-1.28-10.13-8.86-16.45-17.87-19.28-1.43-.6-2.9-1.06-4.39-1.33-.11-.02-.23-.03-.34-.05-.92-.27-1.86-.48-2.81-.62-3.05-.45-6-.11-8.84,.71-9.83,1.7-18.33,8.27-21.21,18.31-1.93,6.73-.19,12.63,3.1,18.55,1.96,3.52,2.49,6.61,.52,10.29-1.29,2.41-3.27,4.4-5.37,6.2-1.67,.94-3.38,1.78-5.04,2.5-11.9,5.17-25.63,5.57-37.71,.76-1.74-.69-3.16,.54-3.47,1.95-.15,.36-.21,.76-.12,1.16,.56,2.48,1.64,4.83,3.16,6.89-.93-1.03-3.3-.13-3.79,1.33-.53,1.56,.3,3.12,1.11,4.49,1.32,2.24,2.65,4.47,3.97,6.71-1.1-.25-2.22,.88-2.27,1.95,0,.01,0,.03,0,.04-1.54,.79-2.5,2.42-1.64,4.53,4.87,11.95,15.63,20.07,27.19,25.11,12.2,5.31,25.78,7.48,39,5.65,23.07-3.19,54.26-19.53,46.91-47.57Z" fill="#ffe36c"/><path d="M705.92,486.03c-.24-.71-1.26-.67-1.64-.14-.41,.56-.86,1.07-1.33,1.54-1.19,.25-2.31,.6-3.46,1.09-.32,.14-.48,.36-.53,.61-.17,.12-.32,.26-.47,.4-.06-.08-.14-.15-.22-.21-.17-.27-.48-.43-.9-.33-.84,.2-1.68,.4-2.51,.61-1.41,.26-2.8,.59-4.19,1.01-.16,.05-.29,.13-.4,.23-.67,.16-1.34,.32-2.01,.47-1.89,.27-3.76,.6-5.62,1.02-.57,.03-1.14,.08-1.71,.14-1.67,.05-3.33,.11-5,.16-.08-.34-.34-.64-.79-.73-2.26-.43-4.51-.69-6.82-.79-.02,0-.04,0-.05,0-1.08-.14-2.16-.3-3.25-.46-.6-.2-1.19-.41-1.79-.61-2.21-.98-4.39-2.02-6.54-3.13-.27-.14-.52-.11-.74,.01-.07-.04-.15-.08-.22-.12-.11-.06-.22-.09-.33-.09-1.56-1.7-2.88-3.59-3.86-5.7-.52-1.11-2.24-.3-1.72,.81,1.18,2.53,2.8,4.79,4.74,6.78,.06,.15,.17,.28,.33,.39,.05,.03,.1,.06,.16,.1,6.74,6.6,16.99,10.16,25.89,11.11,8.23,.88,29.45-.78,24.99-14.18Z" fill="#2d2d2d" opacity=".1"/><path d="M752.28,435.33c-.43-2.39-4-3.27-5.91-3.71-5.99-1.38-11.38-2.19-16.63-5.06-.35-.29-.7-.61-1.05-.94-.21,.01-.42,.04-.59,.12-.77,.38-1.32,1.64-1.63,2.37-1,2.39-1.25,5.16-1.18,7.72,.06,2.27,.63,4,1.98,5.33,.99-.06,1.98-.15,2.95-.29,1.44,.21,2.87,.33,4.24,.38,3.32,.11,18.99,.6,17.83-5.92Z" fill="#ffc33e"/><path d="M704.43,485.11c-7.87,3.9-16.53,5.9-25.31,5.84-8.16-.06-17.89-1.68-24.87-6.2-2.95-1.92-4.67-6.09-.86-8.12,1.63-.87,3.58-1.04,5.38-1.3,2.82-.4,5.58-.98,8.29-1.82,9.64,5.2,21.09,5.41,30.94,.64,1.1-.53,.1-2.15-1-1.62-8.69,4.21-18.77,4.19-27.44,.12,.11-.04,.22-.08,.32-.12,6.87-2.65,12.98-6.83,18.03-12.18,.84-.89-.53-2.21-1.37-1.32-7.42,7.86-17.12,12.86-27.81,14.39-2.91,.42-6.48,.72-8.45,3.22-2.13,2.71-.99,6.3,1.33,8.48,2.98,2.8,7.64,4.19,11.49,5.34,4.52,1.35,9.21,2.11,13.92,2.32,9.84,.45,19.6-1.69,28.41-6.07,1.1-.54,.1-2.16-1-1.62Z" fill="#ffc33e"/><path d="M710.88,424.29c-1.37,.09-2.51,1.17-2.48,2.59v.21c.03,1.33,1.23,2.57,2.6,2.48,1.37-.09,2.51-1.17,2.48-2.59v-.21c-.03-1.33-1.23-2.57-2.6-2.48Z" fill="#514f50"/></g><g><path d="M819.56,69.38c2.7-6.87,2.11-14.33,3.13-21.51,.2-1.41,.47-2.82,.78-4.21,.97-1.47,2.09-2.84,3.29-4.14,4.52-4.93,9.84-9.14,13.12-15.09,4.94-8.94,2.55-18.51-3.06-26.11-.8-1.33-1.71-2.56-2.76-3.66-.08-.08-.17-.16-.25-.24-.58-.76-1.22-1.48-1.9-2.16-2.2-2.16-4.78-3.63-7.56-4.64-8.94-4.43-19.68-4.13-27.93,2.28-5.53,4.3-7.61,10.09-8.44,16.81-.49,3.99-1.89,6.81-5.65,8.61-2.46,1.18-5.24,1.62-7.99,1.84-1.91-.22-3.78-.55-5.55-.95-12.67-2.84-23.98-10.62-30.9-21.63-1-1.59-2.87-1.42-3.96-.47-.34,.2-.61,.49-.78,.87-1.01,2.34-1.53,4.87-1.51,7.43-.15-1.38-2.59-2.05-3.85-1.16-1.35,.95-1.59,2.7-1.75,4.28-.25,2.59-.5,5.17-.75,7.76-.74-.85-2.31-.59-2.99,.24,0,.01-.01,.02-.02,.03-1.71-.27-3.45,.47-4,2.69-3.12,12.52,.79,25.43,7.15,36.31,6.72,11.49,16.4,21.24,28.16,27.57,20.51,11.03,55.34,16.23,65.94-10.75Z" fill="#ffe36c"/><path d="M785.46,60.22c.23-.71-.62-1.28-1.24-1.08-.66,.21-1.32,.36-1.98,.46-1.11-.5-2.22-.88-3.44-1.16-.34-.08-.6,0-.79,.18-.21,0-.41,.02-.61,.05,0-.1-.02-.2-.06-.3,.02-.32-.13-.63-.53-.8-.8-.33-1.59-.66-2.39-.99-1.29-.62-2.61-1.17-3.98-1.66-.16-.06-.31-.07-.46-.05-.63-.27-1.27-.53-1.9-.8-1.68-.9-3.39-1.73-5.14-2.49-.48-.31-.97-.61-1.47-.9-1.38-.94-2.75-1.88-4.13-2.82,.13-.33,.1-.72-.21-1.05-1.58-1.68-3.24-3.22-5.04-4.66-.02-.01-.03-.02-.05-.03-.79-.76-1.57-1.52-2.35-2.29-.36-.52-.72-1.03-1.08-1.55-1.2-2.09-2.35-4.22-3.44-6.38-.13-.27-.36-.4-.6-.42-.04-.08-.08-.15-.11-.23-.05-.11-.13-.2-.21-.27-.26-2.29-.21-4.6,.25-6.88,.24-1.2-1.63-1.57-1.87-.36-.54,2.74-.56,5.52-.17,8.27-.04,.16-.03,.33,.04,.51,.02,.06,.05,.11,.07,.17,1.55,9.3,7.73,18.22,14.35,24.24,6.13,5.57,24.24,16.74,28.54,3.29Z" fill="#2d2d2d" opacity=".1"/><path d="M852.8,46.62c1.07-2.19-1.31-5-2.58-6.48-4.03-4.65-7.89-8.48-10.45-13.9-.11-.44-.21-.9-.29-1.38-.18-.12-.36-.22-.55-.25-.85-.15-2.03,.54-2.71,.96-2.21,1.34-4.05,3.43-5.51,5.54-1.29,1.87-1.85,3.6-1.55,5.47,.83,.54,1.69,1.04,2.56,1.5,1.04,1.01,2.12,1.96,3.2,2.81,2.61,2.05,14.99,11.69,17.89,5.73Z" fill="#ffc33e"/><path d="M784.79,58.6c-8.66-1.49-16.83-4.98-23.89-10.21-6.55-4.86-13.46-11.91-16.43-19.67-1.26-3.29-.18-7.67,4.1-7.07,1.83,.26,3.5,1.27,5.11,2.12,2.51,1.34,5.09,2.5,7.76,3.42,4.71,9.89,13.84,16.81,24.61,18.77,1.2,.22,1.35-1.68,.15-1.9-9.5-1.73-17.63-7.69-22.23-16.09,.11,.03,.22,.07,.33,.1,7.11,1.91,14.51,2.14,21.74,.8,1.21-.22,.87-2.1-.33-1.87-10.63,1.97-21.41,.28-30.95-4.78-2.6-1.38-5.66-3.24-8.72-2.38-3.32,.93-4.52,4.5-3.92,7.63,.76,4.02,3.7,7.89,6.13,11.09,2.85,3.76,6.19,7.14,9.87,10.09,7.68,6.16,16.83,10.19,26.52,11.86,1.21,.21,1.35-1.69,.15-1.9Z" fill="#ffc33e"/><path d="M825.87,13.29c-1.16-.74-2.72-.54-3.53,.63l-.12,.17c-.76,1.09-.53,2.8,.63,3.53,1.16,.74,2.72,.54,3.53-.63l.12-.17c.76-1.09,.53-2.8-.63-3.53Z" fill="#514f50"/></g><g><path d="M1122.37,94.28c-1.11-7.3-5.36-13.45-8.08-20.18-.53-1.32-1.01-2.67-1.43-4.03,.1-1.76,.39-3.51,.77-5.23,1.44-6.53,3.92-12.85,3.78-19.64-.21-10.21-7.08-17.29-15.74-21.05-1.35-.75-2.77-1.36-4.22-1.79-.11-.03-.23-.05-.34-.09-.89-.37-1.8-.67-2.72-.91-2.99-.77-5.95-.74-8.86-.22-9.96,.66-19.1,6.3-23.01,15.98-2.63,6.49-1.52,12.54,1.13,18.77,1.58,3.7,1.78,6.83-.57,10.29-1.54,2.26-3.72,4.03-5.99,5.61-1.76,.76-3.54,1.42-5.27,1.96-12.38,3.89-26.07,2.84-37.58-3.21-1.66-.87-3.2,.21-3.66,1.58-.19,.34-.29,.73-.24,1.14,.3,2.53,1.12,4.98,2.42,7.18-.82-1.12-3.27-.48-3.91,.92-.69,1.5-.02,3.14,.64,4.58,1.08,2.36,2.16,4.73,3.24,7.09-1.07-.37-2.3,.65-2.46,1.7,0,.01,0,.03,0,.04-1.61,.62-2.74,2.14-2.11,4.33,3.58,12.4,13.44,21.6,24.41,27.82,11.58,6.57,24.85,10.15,38.19,9.72,23.27-.75,56.01-13.73,51.65-42.38Z" fill="#ffe36c"/><path d="M1088.27,103.47c-.16-.73-1.18-.8-1.61-.32-.47,.52-.96,.98-1.48,1.39-1.21,.12-2.36,.35-3.56,.72-.33,.1-.52,.31-.59,.55-.18,.1-.35,.22-.51,.35-.05-.09-.12-.16-.2-.23-.14-.28-.43-.48-.86-.42-.85,.11-1.71,.23-2.56,.34-1.43,.11-2.85,.29-4.28,.57-.17,.03-.3,.1-.42,.18-.68,.09-1.36,.18-2.05,.26-1.91,.07-3.8,.21-5.7,.42-.57-.03-1.15-.04-1.72-.04-1.66-.12-3.32-.25-4.99-.37-.05-.35-.27-.68-.71-.81-2.21-.66-4.42-1.16-6.7-1.5-.02,0-.04,0-.05,0-1.06-.26-2.12-.52-3.18-.8-.57-.27-1.14-.53-1.72-.8-2.09-1.21-4.15-2.47-6.17-3.8-.25-.16-.51-.16-.73-.06-.07-.05-.14-.09-.21-.14-.1-.07-.21-.11-.31-.12-1.37-1.85-2.49-3.87-3.24-6.07-.4-1.16-2.2-.54-1.8,.62,.91,2.64,2.28,5.05,4,7.24,.05,.15,.14,.3,.29,.42,.05,.04,.1,.07,.14,.11,6.01,7.27,15.83,11.89,24.58,13.77,8.1,1.74,29.37,2.32,26.34-11.48Z" fill="#2d2d2d" opacity=".1"/><path d="M1139.7,57.92c-.18-2.43-3.64-3.67-5.49-4.31-5.82-2-11.08-3.38-16.01-6.78-.32-.33-.63-.68-.95-1.05-.21-.01-.42,0-.6,.06-.81,.3-1.49,1.49-1.87,2.19-1.24,2.27-1.78,5-1.98,7.55-.18,2.26,.21,4.04,1.41,5.51,.99,.05,1.98,.05,2.97,.02,1.41,.36,2.82,.63,4.18,.82,3.29,.46,18.83,2.59,18.35-4.02Z" fill="#ffc33e"/><path d="M1086.88,102.4c-8.23,3.06-17.06,4.14-25.79,3.15-8.1-.92-17.62-3.55-24.08-8.78-2.74-2.22-4-6.54,0-8.17,1.71-.7,3.67-.66,5.48-.73,2.84-.1,5.66-.39,8.43-.94,9.04,6.19,20.4,7.6,30.7,3.89,1.15-.41,.32-2.13-.82-1.72-9.08,3.27-19.11,2.2-27.3-2.76,.11-.03,.22-.05,.34-.08,7.11-1.92,13.63-5.43,19.21-10.22,.93-.8-.3-2.25-1.23-1.45-8.2,7.04-18.38,10.99-29.17,11.39-2.94,.11-6.52,.03-8.74,2.32-2.4,2.47-1.65,6.16,.44,8.57,2.67,3.1,7.16,4.97,10.86,6.52,4.35,1.82,8.94,3.07,13.6,3.77,9.74,1.48,19.67,.37,28.89-3.05,1.15-.43,.32-2.14-.82-1.72Z" fill="#ffc33e"/><path d="M1099.69,42.59c-1.37-.05-2.62,.9-2.74,2.32l-.02,.21c-.11,1.32,.95,2.69,2.32,2.74,1.37,.05,2.62-.9,2.74-2.32l.02-.21c.11-1.32-.95-2.69-2.32-2.74Z" fill="#514f50"/></g><g><path d="M1133.09,656.91c-2.39-6.99-7.67-12.29-11.54-18.42-.76-1.21-1.47-2.45-2.13-3.71-.22-1.74-.24-3.52-.18-5.28,.26-6.68,1.57-13.34,.23-19.99-2.02-10.01-10.04-15.76-19.24-17.92-1.47-.49-2.97-.85-4.48-1.01-.12-.01-.23-.01-.35-.02-.94-.2-1.89-.34-2.84-.41-3.07-.23-5.99,.33-8.76,1.36-9.68,2.42-17.67,9.6-19.81,19.82-1.43,6.85,.73,12.61,4.45,18.27,2.21,3.36,2.97,6.41,1.27,10.22-1.11,2.5-2.94,4.63-4.9,6.58-1.6,1.06-3.24,2.02-4.84,2.87-11.49,6.03-25.15,7.43-37.55,3.53-1.79-.56-3.11,.78-3.32,2.2-.13,.37-.15,.77-.03,1.17,.74,2.44,1.99,4.7,3.66,6.64-1.01-.95-3.3,.11-3.68,1.6-.41,1.6,.53,3.09,1.44,4.39,1.48,2.13,2.97,4.27,4.45,6.4-1.11-.17-2.15,1.04-2.12,2.11,0,.01,0,.03,0,.04-1.48,.9-2.32,2.59-1.31,4.64,5.73,11.56,17.06,18.87,28.96,23.04,12.56,4.4,26.26,5.57,39.31,2.77,22.77-4.87,52.68-23.46,43.29-50.88Z" fill="#ffe36c"/><path d="M1101.17,672.01c-.29-.69-1.3-.57-1.64-.02-.37,.59-.77,1.13-1.21,1.64-1.17,.34-2.26,.77-3.38,1.34-.31,.16-.45,.4-.48,.65-.16,.13-.3,.28-.44,.44-.07-.08-.15-.14-.24-.19-.19-.26-.51-.4-.93-.26-.82,.26-1.64,.53-2.46,.79-1.39,.36-2.75,.79-4.11,1.32-.16,.06-.28,.15-.38,.26-.66,.21-1.31,.42-1.97,.62-1.86,.41-3.71,.88-5.53,1.43-.57,.08-1.14,.17-1.7,.27-1.66,.17-3.31,.35-4.97,.52-.11-.33-.39-.62-.84-.67-2.29-.26-4.55-.36-6.86-.29-.02,0-.04,0-.05,0-1.09-.06-2.18-.14-3.27-.22-.61-.16-1.22-.32-1.83-.48-2.27-.81-4.52-1.69-6.75-2.64-.28-.12-.53-.07-.73,.07-.08-.03-.15-.07-.23-.1-.11-.05-.23-.07-.33-.07-1.68-1.58-3.13-3.37-4.27-5.4-.6-1.07-2.26-.14-1.66,.93,1.36,2.44,3.14,4.57,5.22,6.41,.07,.14,.19,.27,.36,.37,.05,.03,.11,.06,.16,.08,7.2,6.08,17.69,8.88,26.63,9.18,8.28,.28,29.32-2.94,23.88-15.98Z" fill="#2d2d2d" opacity=".1"/><path d="M1143.68,618.05c-.6-2.36-4.23-2.97-6.17-3.27-6.08-.94-11.51-1.35-16.96-3.83-.37-.27-.74-.55-1.12-.86-.21,.03-.42,.07-.58,.16-.74,.44-1.2,1.73-1.45,2.49-.82,2.46-.87,5.23-.61,7.79,.23,2.26,.92,3.94,2.36,5.17,.98-.13,1.96-.3,2.92-.51,1.45,.1,2.88,.12,4.26,.07,3.32-.13,18.99-.8,17.34-7.21Z" fill="#ffc33e"/><path d="M1099.61,671.21c-7.56,4.47-16.05,7.1-24.82,7.68-8.14,.54-17.97-.36-25.26-4.36-3.09-1.69-5.1-5.73-1.45-8.04,1.56-.99,3.49-1.3,5.27-1.69,2.78-.61,5.5-1.39,8.13-2.42,9.99,4.48,21.43,3.85,30.9-1.63,1.06-.61-.06-2.15-1.11-1.54-8.36,4.84-18.42,5.56-27.36,2.13,.1-.05,.21-.09,.31-.14,6.66-3.15,12.45-7.76,17.09-13.47,.77-.95-.69-2.16-1.47-1.21-6.82,8.38-16.13,14.08-26.68,16.39-2.88,.63-6.41,1.19-8.19,3.83-1.92,2.86-.53,6.35,1.95,8.36,3.18,2.57,7.93,3.62,11.85,4.48,4.61,1.02,9.34,1.43,14.06,1.3,9.84-.28,19.42-3.13,27.88-8.13,1.05-.62-.06-2.16-1.11-1.54Z" fill="#ffc33e"/><path d="M1101.58,610.08c-1.36,.19-2.42,1.35-2.28,2.77l.02,.21c.13,1.32,1.41,2.48,2.77,2.28,1.36-.19,2.42-1.35,2.28-2.77l-.02-.21c-.13-1.32-1.41-2.48-2.77-2.28Z" fill="#514f50"/></g><g><path d="M941.59,274.74c-.06-7.38-3.39-14.08-5.12-21.12-.34-1.39-.62-2.79-.84-4.19,.35-1.72,.88-3.42,1.5-5.07,2.36-6.26,5.71-12.16,6.54-18.9,1.24-10.13-4.55-18.13-12.59-23.08-1.23-.93-2.55-1.74-3.93-2.37-.11-.05-.21-.09-.32-.13-.82-.49-1.68-.92-2.57-1.29-2.85-1.19-5.79-1.58-8.74-1.48-9.95-.77-19.8,3.52-25.05,12.54-3.52,6.05-3.29,12.2-1.55,18.74,1.03,3.89,.79,7.02-2.02,10.1-1.84,2.02-4.25,3.46-6.73,4.7-1.85,.5-3.71,.9-5.5,1.19-12.81,2.09-26.21-.9-36.74-8.52-1.52-1.1-3.19-.25-3.85,1.04-.24,.31-.39,.68-.4,1.1-.07,2.55,.4,5.09,1.37,7.46-.65-1.22-3.17-.94-4,.36-.89,1.38-.47,3.1-.02,4.62,.73,2.49,1.47,4.99,2.2,7.48-1-.52-2.37,.31-2.68,1.33,0,.01,0,.03,0,.04-1.69,.39-3.02,1.73-2.71,3.99,1.78,12.78,10.23,23.3,20.2,31.01,10.52,8.15,23.15,13.58,36.42,15.06,23.14,2.57,57.39-5.61,57.15-34.59Z" fill="#ffe36c"/><path d="M906.54,278.97c-.05-.75-1.05-.96-1.55-.54-.53,.44-1.09,.83-1.67,1.17-1.22-.05-2.38,.01-3.63,.21-.34,.05-.55,.23-.66,.46-.19,.08-.38,.17-.55,.28-.04-.09-.09-.18-.16-.25-.1-.3-.36-.54-.8-.54-.86,0-1.72-.02-2.59-.03-1.43-.09-2.86-.11-4.31-.05-.17,0-.31,.05-.44,.12-.69,0-1.38-.02-2.06-.03-1.9-.2-3.79-.34-5.7-.39-.56-.11-1.13-.2-1.7-.28-1.63-.36-3.25-.72-4.88-1.07,0-.35-.17-.71-.58-.9-2.09-.97-4.21-1.78-6.42-2.44-.02,0-.04,0-.05-.01-1.01-.41-2.03-.82-3.03-1.24-.53-.34-1.06-.69-1.58-1.03-1.9-1.49-3.76-3.04-5.57-4.64-.22-.2-.48-.23-.72-.17-.06-.06-.13-.11-.19-.17-.09-.08-.19-.14-.29-.17-1.1-2.03-1.91-4.19-2.34-6.47-.23-1.2-2.1-.85-1.87,.36,.52,2.74,1.54,5.33,2.93,7.73,.02,.16,.09,.32,.23,.46,.04,.05,.09,.09,.13,.13,4.91,8.05,13.98,14.02,22.37,17.13,7.76,2.88,28.74,6.48,27.7-7.61Z" fill="#2d2d2d" opacity=".1"/><path d="M963.93,241.21c.17-2.43-3.08-4.15-4.82-5.05-5.47-2.81-10.49-4.92-14.88-8.99-.27-.37-.53-.76-.79-1.17-.21-.04-.42-.07-.61-.03-.84,.18-1.68,1.26-2.16,1.9-1.55,2.07-2.48,4.69-3.04,7.19-.5,2.21-.37,4.03,.61,5.65,.97,.19,1.96,.34,2.93,.44,1.34,.55,2.7,1.03,4.02,1.41,3.19,.92,18.27,5.24,18.73-1.36Z" fill="#ffc33e"/><path d="M905.31,277.72c-8.58,1.85-17.47,1.67-25.97-.55-7.89-2.06-16.93-6.02-22.58-12.11-2.39-2.58-3.03-7.05,1.16-8.08,1.8-.45,3.72-.13,5.53,.06,2.83,.3,5.65,.42,8.48,.27,8.07,7.41,19.11,10.43,29.84,8.22,1.2-.25,.62-2.06-.57-1.82-9.46,1.95-19.23-.54-26.63-6.62,.11-.01,.23-.02,.34-.04,7.31-.89,14.26-3.43,20.47-7.38,1.03-.66,.03-2.27-1.01-1.61-9.12,5.8-19.75,8.26-30.5,7.12-2.93-.31-6.46-.9-8.98,1.05-2.73,2.11-2.51,5.86-.79,8.55,2.2,3.45,6.38,5.94,9.82,8,4.05,2.42,8.41,4.31,12.93,5.67,9.43,2.85,19.41,3.17,29.03,1.09,1.2-.26,.62-2.07-.57-1.82Z" fill="#ffc33e"/><path d="M926.5,220.34c-1.35-.25-2.72,.52-3.04,1.9l-.05,.21c-.3,1.29,.55,2.79,1.9,3.04,1.35,.25,2.72-.52,3.04-1.9l.05-.21c.3-1.29-.55-2.79-1.9-3.04Z" fill="#514f50"/></g><g><path d="M904.62,998.77c-2.38-6.99-7.64-12.3-11.5-18.44-.76-1.21-1.46-2.45-2.12-3.72-.21-1.74-.24-3.52-.16-5.28,.27-6.68,1.6-13.33,.27-19.99-2-10.01-10.01-15.78-19.2-17.96-1.47-.5-2.96-.85-4.47-1.02-.12-.01-.23-.01-.35-.02-.94-.2-1.89-.35-2.84-.42-3.07-.23-5.99,.31-8.76,1.34-9.69,2.4-17.69,9.56-19.85,19.77-1.45,6.85,.71,12.61,4.42,18.28,2.2,3.37,2.96,6.41,1.25,10.23-1.12,2.5-2.95,4.62-4.91,6.57-1.6,1.06-3.24,2.02-4.85,2.86-11.51,6.01-25.17,7.38-37.56,3.45-1.79-.57-3.11,.77-3.33,2.2-.13,.37-.15,.77-.03,1.17,.74,2.44,1.98,4.7,3.64,6.65-1.01-.96-3.3,.1-3.69,1.6-.41,1.59,.53,3.09,1.43,4.4,1.48,2.14,2.96,4.27,4.44,6.41-1.11-.17-2.15,1.04-2.13,2.11,0,.01,0,.03,0,.04-1.48,.9-2.33,2.59-1.32,4.63,5.71,11.57,17.02,18.91,28.91,23.1,12.55,4.43,26.24,5.63,39.3,2.86,22.78-4.82,52.73-23.35,43.4-50.79Z" fill="#ffe36c"/><path d="M872.67,1013.8c-.29-.69-1.3-.58-1.64-.03-.37,.59-.78,1.13-1.22,1.63-1.17,.33-2.26,.76-3.38,1.33-.31,.16-.45,.4-.48,.64-.16,.13-.3,.28-.44,.44-.07-.08-.15-.14-.24-.19-.19-.26-.51-.4-.93-.27-.82,.26-1.64,.52-2.46,.78-1.39,.36-2.75,.79-4.11,1.31-.16,.06-.28,.15-.38,.25-.66,.21-1.31,.42-1.97,.62-1.87,.4-3.71,.87-5.53,1.42-.57,.07-1.14,.16-1.7,.26-1.66,.17-3.31,.34-4.97,.51-.11-.33-.39-.62-.84-.67-2.29-.27-4.55-.37-6.86-.3-.02,0-.04,0-.05,0-1.09-.07-2.18-.14-3.27-.23-.61-.16-1.22-.32-1.83-.48-2.27-.82-4.52-1.7-6.74-2.65-.28-.12-.53-.07-.73,.07-.08-.03-.15-.07-.23-.1-.11-.05-.22-.07-.33-.07-1.68-1.58-3.13-3.38-4.26-5.41-.59-1.07-2.26-.14-1.66,.93,1.36,2.44,3.13,4.57,5.21,6.42,.07,.14,.19,.27,.36,.37,.05,.03,.11,.06,.16,.08,7.19,6.1,17.67,8.92,26.61,9.24,8.28,.3,29.32-2.87,23.91-15.93Z" fill="#2d2d2d" opacity=".1"/><path d="M915.3,959.92c-.6-2.36-4.23-2.98-6.16-3.28-6.08-.95-11.51-1.38-16.95-3.86-.37-.27-.74-.55-1.12-.86-.21,.03-.42,.07-.58,.16-.74,.44-1.2,1.73-1.45,2.48-.82,2.46-.88,5.23-.63,7.78,.22,2.26,.91,3.95,2.35,5.18,.98-.13,1.96-.3,2.92-.5,1.45,.1,2.88,.13,4.26,.08,3.32-.13,18.99-.76,17.36-7.18Z" fill="#ffc33e"/><path d="M871.12,1012.99c-7.57,4.45-16.06,7.07-24.83,7.63-8.14,.52-17.97-.4-25.25-4.41-3.08-1.7-5.09-5.74-1.44-8.04,1.56-.99,3.49-1.29,5.27-1.68,2.78-.6,5.5-1.38,8.14-2.4,9.98,4.5,21.42,3.9,30.91-1.56,1.06-.61-.05-2.15-1.11-1.55-8.37,4.82-18.43,5.52-27.36,2.07,.1-.05,.21-.09,.31-.14,6.66-3.14,12.46-7.74,17.11-13.43,.78-.95-.69-2.16-1.46-1.21-6.84,8.37-16.16,14.04-26.72,16.33-2.88,.62-6.41,1.18-8.2,3.82-1.93,2.86-.54,6.35,1.93,8.36,3.18,2.58,7.92,3.64,11.84,4.51,4.6,1.03,9.34,1.45,14.05,1.33,9.85-.26,19.43-3.09,27.9-8.07,1.05-.62-.06-2.16-1.11-1.55Z" fill="#ffc33e"/><path d="M873.22,951.86c-1.36,.19-2.42,1.35-2.29,2.76l.02,.21c.12,1.32,1.4,2.48,2.76,2.29,1.36-.19,2.42-1.35,2.29-2.76l-.02-.21c-.12-1.32-1.4-2.48-2.76-2.29Z" fill="#514f50"/></g><g><path d="M186.03,347.29c-3.36-6.58-9.33-11.08-14.03-16.6-.93-1.09-1.8-2.22-2.63-3.37-.46-1.7-.74-3.45-.92-5.21-.69-6.65-.33-13.43-2.6-19.83-3.42-9.62-12.17-14.18-21.58-15.01-1.52-.28-3.06-.42-4.57-.36-.12,0-.23,.02-.35,.03-.96-.07-1.92-.07-2.87,0-3.08,.21-5.88,1.17-8.48,2.59-9.24,3.76-16.14,12-16.8,22.42-.45,6.99,2.51,12.38,7,17.46,2.66,3.02,3.85,5.92,2.71,9.94-.75,2.63-2.25,5-3.92,7.21-1.43,1.28-2.92,2.46-4.39,3.52-10.52,7.6-23.85,10.92-36.68,8.81-1.85-.3-2.97,1.21-2.98,2.65-.07,.38-.04,.78,.14,1.16,1.08,2.31,2.63,4.37,4.56,6.06-1.13-.8-3.25,.58-3.42,2.11-.18,1.64,.97,2.98,2.05,4.14,1.77,1.9,3.54,3.8,5.31,5.7-1.13-.01-1.98,1.34-1.8,2.39,0,.01,0,.03,0,.04-1.33,1.1-1.93,2.9-.64,4.77,7.31,10.63,19.56,16.26,31.93,18.71,13.06,2.58,26.78,1.79,39.31-2.82,21.85-8.05,48.83-30.69,35.65-56.5Z" fill="#ffe36c"/><path d="M156.57,366.76c-.38-.64-1.37-.38-1.63,.21-.28,.64-.61,1.23-.97,1.79-1.11,.5-2.13,1.08-3.15,1.81-.28,.2-.39,.46-.39,.71-.14,.16-.26,.32-.37,.49-.08-.07-.16-.12-.26-.15-.22-.23-.56-.32-.95-.13-.77,.38-1.55,.75-2.33,1.13-1.32,.56-2.61,1.18-3.88,1.89-.15,.08-.26,.19-.34,.31-.62,.3-1.24,.6-1.86,.89-1.79,.67-3.54,1.39-5.27,2.2-.55,.16-1.1,.32-1.64,.51-1.62,.41-3.23,.82-4.85,1.22-.16-.31-.47-.56-.93-.54-2.3,.07-4.56,.29-6.83,.69-.02,0-.03,.01-.05,.01-1.09,.09-2.18,.17-3.27,.25-.63-.07-1.25-.14-1.88-.22-2.36-.48-4.72-1.04-7.06-1.65-.29-.08-.53,0-.72,.17-.08-.02-.16-.04-.24-.06-.12-.03-.23-.04-.34-.02-1.89-1.32-3.58-2.89-4.99-4.74-.74-.97-2.25,.18-1.51,1.16,1.69,2.22,3.76,4.08,6.08,5.61,.09,.13,.22,.24,.41,.31,.06,.02,.12,.04,.17,.06,7.99,5,18.77,6.29,27.67,5.32,8.23-.9,28.61-7.06,21.38-19.2Z" fill="#2d2d2d" opacity=".1"/><path d="M191.01,307.31c-.93-2.25-4.61-2.34-6.57-2.36-6.15-.07-11.58,.29-17.33-1.39-.41-.21-.81-.44-1.23-.69-.2,.05-.41,.13-.55,.25-.67,.54-.94,1.88-1.08,2.67-.46,2.55-.12,5.3,.5,7.79,.55,2.2,1.47,3.77,3.07,4.78,.96-.27,1.9-.57,2.82-.92,1.45-.1,2.87-.29,4.23-.54,3.27-.6,18.68-3.48,16.15-9.6Z" fill="#ffc33e"/><path d="M154.91,366.18c-6.85,5.5-14.88,9.3-23.48,11.12-7.98,1.69-17.84,2.19-25.62-.74-3.3-1.24-5.86-4.95-2.58-7.75,1.41-1.2,3.27-1.78,4.97-2.42,2.67-.99,5.24-2.15,7.71-3.55,10.53,3.02,21.76,.78,30.36-5.99,.96-.76-.36-2.12-1.32-1.37-7.59,5.97-17.44,8.11-26.78,5.98,.1-.06,.2-.12,.29-.19,6.14-4.06,11.22-9.45,15.01-15.75,.63-1.05-.99-2.04-1.62-.99-5.56,9.27-13.97,16.22-24.09,20-2.76,1.03-6.18,2.09-7.56,4.95-1.5,3.1,.38,6.36,3.12,8,3.51,2.1,8.36,2.46,12.36,2.76,4.7,.35,9.45,.09,14.1-.71,9.71-1.67,18.78-5.85,26.45-12,.95-.77-.37-2.13-1.32-1.37Z" fill="#ffc33e"/><path d="M148.2,305.39c-1.32,.38-2.2,1.68-1.87,3.06l.05,.21c.31,1.29,1.74,2.25,3.06,1.87,1.32-.38,2.2-1.68,1.87-3.06l-.05-.21c-.31-1.29-1.74-2.25-3.06-1.87Z" fill="#514f50"/></g><g><path d="M390.34,512.59c4.62-5.76,6.27-13.05,9.39-19.6,.61-1.29,1.28-2.55,2-3.78,1.36-1.12,2.84-2.09,4.37-2.98,5.78-3.36,12.11-5.81,17.01-10.51,7.37-7.06,7.94-16.92,4.84-25.84-.37-1.5-.87-2.96-1.54-4.32-.05-.1-.11-.2-.17-.31-.33-.9-.72-1.78-1.17-2.62-1.45-2.72-3.48-4.89-5.84-6.67-7.22-6.88-17.56-9.8-27.34-6.13-6.55,2.46-10.26,7.37-13.05,13.54-1.66,3.67-3.82,5.94-7.96,6.55-2.71,.4-5.48,0-8.18-.62-1.76-.78-3.44-1.65-5.01-2.56-11.25-6.48-19.74-17.27-23.07-29.84-.48-1.81-2.32-2.21-3.64-1.63-.38,.09-.73,.28-1,.6-1.66,1.93-2.91,4.2-3.65,6.64,.27-1.36-1.86-2.73-3.33-2.25-1.57,.51-2.33,2.1-2.94,3.57-1.01,2.39-2.02,4.79-3.02,7.18-.45-1.03-2.03-1.25-2.92-.66-.01,0-.02,.02-.03,.03-1.55-.77-3.43-.57-4.62,1.38-6.7,11.03-6.81,24.51-3.97,36.8,3,12.97,9.35,25.16,18.69,34.69,16.3,16.63,48.01,31.94,66.15,9.34Z" fill="#ffe36c"/><path d="M360.51,493.7c.43-.61-.21-1.41-.86-1.4-.7,0-1.37-.05-2.03-.15-.91-.81-1.86-1.5-2.94-2.13-.3-.17-.58-.17-.8-.06-.2-.06-.4-.11-.6-.13,.03-.1,.04-.2,.03-.3,.11-.3,.06-.64-.27-.92-.66-.55-1.32-1.1-1.98-1.66-1.05-.98-2.14-1.9-3.31-2.77-.13-.1-.28-.16-.42-.18-.53-.44-1.06-.88-1.58-1.33-1.34-1.36-2.73-2.66-4.17-3.91-.37-.44-.75-.87-1.14-1.29-1.03-1.31-2.07-2.61-3.1-3.92,.22-.27,.31-.66,.12-1.07-1-2.07-2.14-4.04-3.43-5.95-.01-.02-.02-.03-.03-.04-.53-.96-1.05-1.92-1.56-2.88-.19-.6-.38-1.2-.57-1.8-.53-2.36-.99-4.73-1.38-7.11-.05-.3-.23-.48-.45-.58-.01-.08-.03-.17-.04-.25-.02-.12-.06-.23-.12-.32,.43-2.26,1.17-4.45,2.28-6.5,.58-1.07-1.09-1.98-1.68-.9-1.33,2.45-2.18,5.1-2.62,7.84-.08,.14-.13,.3-.12,.5,0,.06,.01,.12,.02,.18-1.28,9.34,1.96,19.7,6.5,27.41,4.19,7.14,18.17,23.19,26.27,11.62Z" fill="#2d2d2d" opacity=".1"/><path d="M428.85,500.74c1.67-1.77,.24-5.17-.54-6.96-2.46-5.64-5.02-10.45-5.84-16.38,.03-.46,.07-.92,.13-1.41-.13-.16-.28-.32-.45-.41-.77-.39-2.1-.08-2.88,.11-2.51,.62-4.89,2.07-6.9,3.65-1.79,1.4-2.84,2.89-3.1,4.76,.64,.76,1.3,1.5,1.99,2.2,.69,1.28,1.44,2.5,2.22,3.63,1.89,2.73,10.83,15.61,15.38,10.79Z" fill="#ffc33e"/><path d="M360.35,491.96c-7.82-3.99-14.59-9.76-19.77-16.85-4.81-6.59-9.31-15.37-9.84-23.67-.22-3.51,2.11-7.37,6.01-5.53,1.67,.79,2.97,2.25,4.24,3.54,2,2.02,4.11,3.9,6.4,5.57,1.56,10.84,8.21,20.16,17.92,25.23,1.08,.57,1.79-1.2,.71-1.77-8.56-4.47-14.55-12.58-16.44-21.97,.1,.06,.19,.13,.29,.19,6.22,3.94,13.22,6.36,20.52,7.23,1.22,.14,1.46-1.74,.24-1.89-10.73-1.28-20.53-6.09-28.13-13.77-2.07-2.09-4.44-4.78-7.62-4.87-3.44-.09-5.65,2.95-6.02,6.12-.47,4.06,1.19,8.64,2.55,12.41,1.61,4.44,3.79,8.66,6.43,12.57,5.5,8.17,13.04,14.73,21.79,19.2,1.09,.56,1.79-1.21,.71-1.77Z" fill="#ffc33e"/><path d="M413.05,460.91c-.89-1.05-2.44-1.32-3.56-.45l-.17,.13c-1.05,.81-1.34,2.51-.45,3.56,.89,1.05,2.44,1.32,3.56,.45l.17-.13c1.05-.81,1.34-2.51,.45-3.56Z" fill="#514f50"/></g><g><path d="M1156.46,340.84c-6.95-2.48-14.39-1.66-21.6-2.46-1.42-.16-2.83-.38-4.23-.65-1.5-.92-2.91-2-4.24-3.16-5.07-4.37-9.45-9.54-15.5-12.64-9.09-4.65-18.58-1.97-26,3.88-1.3,.84-2.51,1.79-3.58,2.87-.08,.08-.15,.17-.23,.26-.74,.61-1.44,1.26-2.1,1.97-2.09,2.26-3.48,4.89-4.4,7.7-4.14,9.08-3.51,19.8,3.15,27.84,4.47,5.39,10.32,7.29,17.07,7.9,4.01,.37,6.86,1.67,8.79,5.38,1.26,2.43,1.79,5.18,2.09,7.93-.16,1.91-.43,3.79-.77,5.57-2.44,12.75-9.86,24.3-20.64,31.57-1.56,1.05-1.33,2.91-.35,3.97,.21,.33,.51,.6,.89,.75,2.37,.94,4.92,1.37,7.47,1.28-1.37,.19-1.97,2.65-1.04,3.88,.99,1.31,2.75,1.51,4.33,1.61,2.59,.17,5.19,.34,7.78,.51-.83,.76-.52,2.33,.33,2.98,.01,0,.02,.01,.03,.02-.22,1.72,.58,3.43,2.81,3.91,12.61,2.72,25.39-1.59,36.07-8.29,11.27-7.08,20.72-17.06,26.67-29.01,10.38-20.85,14.48-55.82-12.82-65.57Z" fill="#ffe36c"/><path d="M1148.38,375.21c-.72-.21-1.26,.66-1.04,1.27,.23,.66,.4,1.31,.52,1.97-.47,1.12-.81,2.24-1.05,3.48-.07,.34,.03,.6,.2,.78,0,.21,.03,.41,.07,.61-.1,0-.2,.03-.3,.07-.32-.01-.63,.15-.78,.56-.31,.81-.61,1.61-.92,2.42-.58,1.31-1.09,2.65-1.53,4.03-.05,.16-.06,.31-.04,.46-.25,.64-.49,1.29-.74,1.93-.84,1.71-1.62,3.45-2.33,5.22-.3,.49-.58,.99-.85,1.5-.9,1.4-1.79,2.81-2.69,4.21-.33-.12-.73-.08-1.05,.24-1.63,1.63-3.12,3.34-4.5,5.18-.01,.02-.02,.03-.03,.05-.73,.81-1.47,1.62-2.21,2.42-.51,.38-1.01,.75-1.52,1.13-2.05,1.27-4.14,2.48-6.27,3.64-.26,.14-.38,.37-.41,.62-.07,.04-.15,.08-.22,.12-.11,.06-.19,.13-.26,.22-2.28,.33-4.59,.35-6.88-.03-1.21-.2-1.52,1.68-.3,1.88,2.76,.46,5.53,.39,8.27-.09,.16,.03,.33,.02,.51-.05,.06-.02,.11-.05,.17-.07,9.25-1.84,17.97-8.3,23.78-15.11,5.37-6.3,15.97-24.76,2.39-28.63Z" fill="#2d2d2d" opacity=".1"/><path d="M1132.67,308.33c-2.22-1-4.96,1.46-6.4,2.79-4.52,4.17-8.23,8.16-13.56,10.88-.44,.13-.9,.24-1.37,.34-.11,.18-.21,.37-.24,.56-.12,.86,.61,2.01,1.04,2.68,1.41,2.17,3.55,3.94,5.71,5.33,1.91,1.23,3.66,1.74,5.52,1.37,.51-.85,.99-1.72,1.42-2.6,.98-1.07,1.89-2.18,2.71-3.29,1.97-2.68,11.21-15.35,5.17-18.06Z" fill="#ffc33e"/><path d="M1146.78,375.93c-1.21,8.7-4.45,16.98-9.46,24.2-4.65,6.7-11.48,13.83-19.15,17.04-3.25,1.36-7.66,.42-7.19-3.87,.2-1.84,1.16-3.54,1.96-5.17,1.26-2.55,2.34-5.16,3.17-7.87,9.73-5.02,16.37-14.36,17.98-25.19,.18-1.21-1.72-1.3-1.9-.09-1.43,9.55-7.13,17.87-15.38,22.72,.03-.11,.06-.22,.08-.33,1.68-7.17,1.68-14.57,.11-21.76-.26-1.2-2.12-.81-1.86,.39,2.31,10.56,.96,21.39-3.81,31.08-1.3,2.64-3.06,5.75-2.1,8.79,1.04,3.29,4.64,4.37,7.75,3.68,4-.88,7.77-3.95,10.89-6.47,3.67-2.97,6.94-6.42,9.77-10.19,5.92-7.87,9.66-17.14,11.02-26.88,.17-1.21-1.73-1.3-1.9-.09Z" fill="#ffc33e"/><path d="M1100.2,336.29c-.7,1.19-.45,2.73,.74,3.51l.18,.12c1.11,.72,2.81,.44,3.51-.74,.7-1.19,.45-2.73-.74-3.51l-.18-.12c-1.11-.72-2.81-.44-3.51,.74Z" fill="#514f50"/></g><g><path d="M317.53,726.02c-5.29-5.16-12.39-7.5-18.61-11.23-1.23-.73-2.41-1.52-3.57-2.35-.98-1.46-1.81-3.03-2.54-4.64-2.79-6.08-4.61-12.61-8.82-17.95-6.32-8.02-16.07-9.53-25.25-7.31-1.53,.22-3.03,.58-4.45,1.12-.11,.04-.21,.09-.32,.14-.93,.24-1.84,.54-2.72,.91-2.85,1.19-5.2,2.99-7.21,5.16-7.55,6.53-11.44,16.54-8.74,26.62,1.81,6.76,6.34,10.93,12.22,14.3,3.49,2,5.54,4.38,5.75,8.55,.14,2.73-.54,5.46-1.4,8.08-.95,1.67-1.98,3.27-3.03,4.74-7.53,10.57-19.09,17.98-31.92,20.09-1.85,.3-2.42,2.09-1.97,3.46,.05,.39,.21,.75,.5,1.06,1.76,1.84,3.9,3.3,6.26,4.28-1.33-.4-2.9,1.59-2.56,3.09,.35,1.61,1.87,2.52,3.27,3.27,2.29,1.23,4.57,2.47,6.86,3.7-1.07,.35-1.44,1.9-.94,2.84,0,.01,.02,.02,.02,.03-.91,1.47-.9,3.36,.92,4.73,10.33,7.73,23.74,9.14,36.24,7.5,13.19-1.74,25.95-6.87,36.33-15.26,18.12-14.62,36.43-44.71,15.68-64.94Z" fill="#ffe36c"/><path d="M295.86,753.89c-.57-.49-1.42,.07-1.48,.72-.06,.69-.18,1.36-.34,2.01-.89,.83-1.67,1.7-2.41,2.72-.2,.28-.22,.56-.14,.79-.08,.19-.15,.39-.19,.59-.09-.04-.19-.06-.3-.06-.28-.14-.63-.13-.95,.18-.61,.6-1.23,1.21-1.84,1.82-1.07,.95-2.1,1.95-3.07,3.03-.11,.12-.18,.26-.22,.4-.49,.48-.98,.97-1.48,1.44-1.48,1.2-2.91,2.46-4.29,3.77-.47,.32-.94,.66-1.4,1.01-1.4,.9-2.8,1.81-4.2,2.71-.25-.25-.63-.38-1.05-.22-2.16,.8-4.22,1.74-6.25,2.84-.02,0-.03,.02-.05,.03-1,.43-2.01,.86-3.02,1.28-.62,.13-1.23,.26-1.85,.4-2.4,.3-4.8,.53-7.21,.69-.3,.02-.5,.18-.63,.39-.08,0-.17,.01-.25,.02-.12,0-.23,.04-.33,.09-2.21-.65-4.32-1.59-6.24-2.9-1.01-.68-2.08,.89-1.06,1.58,2.31,1.56,4.87,2.66,7.55,3.36,.13,.09,.29,.16,.49,.16,.06,0,.12,0,.18,0,9.17,2.18,19.8-.05,27.91-3.82,7.51-3.49,24.84-15.85,14.1-25.03Z" fill="#2d2d2d" opacity=".1"/><path d="M309.45,686.55c-1.6-1.83-5.12-.74-6.98-.13-5.85,1.91-10.88,3.98-16.86,4.24-.45-.07-.91-.16-1.39-.26-.17,.12-.34,.25-.45,.41-.46,.73-.29,2.09-.17,2.87,.38,2.56,1.59,5.06,2.97,7.22,1.22,1.91,2.6,3.1,4.44,3.55,.82-.56,1.62-1.15,2.38-1.77,1.34-.56,2.63-1.19,3.83-1.86,2.9-1.62,16.59-9.28,12.22-14.26Z" fill="#ffc33e"/><path d="M294.1,753.88c-4.73,7.4-11.12,13.58-18.68,18.05-7.02,4.15-16.2,7.79-24.51,7.51-3.52-.12-7.14-2.81-4.92-6.52,.95-1.59,2.53-2.74,3.94-3.88,2.21-1.8,4.28-3.72,6.17-5.83,10.94-.51,20.86-6.23,26.85-15.4,.67-1.02-1.02-1.9-1.69-.88-5.28,8.09-13.93,13.27-23.45,14.24,.07-.09,.15-.18,.22-.27,4.52-5.81,7.6-12.54,9.17-19.73,.26-1.2-1.59-1.62-1.86-.42-2.3,10.56-8.04,19.84-16.42,26.67-2.28,1.86-5.18,3.95-5.58,7.11-.43,3.42,2.4,5.91,5.51,6.58,4,.86,8.71-.35,12.6-1.34,4.57-1.17,8.98-2.94,13.13-5.18,8.66-4.69,15.92-11.55,21.22-19.84,.66-1.03-1.03-1.9-1.69-.88Z" fill="#ffc33e"/><path d="M268.28,698.44c-1.13,.79-1.55,2.3-.79,3.5l.11,.18c.71,1.12,2.37,1.57,3.5,.79,1.13-.79,1.55-2.3,.79-3.5l-.11-.18c-.71-1.12-2.37-1.57-3.5-.79Z" fill="#514f50"/></g><g><path d="M163.66,942.2c-1.59-7.21-6.24-13.07-9.39-19.6-.62-1.29-1.18-2.6-1.7-3.93-.02-1.76,.15-3.53,.42-5.27,1.01-6.61,3.06-13.08,2.47-19.84-.89-10.17-8.21-16.79-17.1-19.97-1.4-.66-2.85-1.17-4.33-1.5-.11-.03-.23-.04-.34-.06-.91-.31-1.84-.55-2.78-.73-3.03-.57-5.99-.35-8.86,.37-9.89,1.31-18.64,7.55-21.91,17.46-2.19,6.65-.69,12.61,2.37,18.66,1.82,3.59,2.23,6.7,.12,10.3-1.38,2.36-3.44,4.27-5.61,5.99-1.71,.88-3.44,1.65-5.13,2.31-12.1,4.7-25.83,4.56-37.71-.72-1.71-.76-3.18,.42-3.55,1.81-.17,.35-.24,.75-.16,1.16,.46,2.5,1.45,4.89,2.89,7.01-.89-1.06-3.29-.26-3.84,1.18-.59,1.54,.18,3.13,.94,4.53,1.23,2.29,2.47,4.57,3.7,6.86-1.09-.3-2.25,.8-2.35,1.86,0,.01,0,.03,0,.04-1.57,.73-2.6,2.32-1.82,4.46,4.4,12.13,14.84,20.67,26.19,26.15,11.98,5.79,25.46,8.48,38.75,7.17,23.17-2.28,54.98-17.4,48.73-45.7Z" fill="#ffe36c"/><path d="M130.24,953.62c-.21-.72-1.23-.72-1.63-.21-.43,.55-.9,1.04-1.39,1.49-1.2,.2-2.33,.51-3.5,.95-.32,.12-.49,.34-.55,.59-.17,.12-.33,.24-.48,.39-.06-.08-.13-.15-.21-.21-.16-.27-.46-.45-.89-.37-.84,.17-1.69,.34-2.53,.51-1.42,.21-2.82,.48-4.23,.85-.16,.04-.3,.12-.41,.21-.67,.13-1.35,.27-2.02,.4-1.9,.2-3.78,.46-5.66,.8-.57,.01-1.15,.04-1.72,.07-1.67-.01-3.33-.03-5-.04-.07-.34-.32-.66-.76-.76-2.25-.52-4.48-.87-6.78-1.06-.02,0-.04,0-.05,0-1.08-.19-2.15-.38-3.23-.59-.59-.23-1.18-.46-1.76-.68-2.17-1.06-4.3-2.19-6.41-3.38-.26-.15-.52-.13-.74-.02-.07-.04-.15-.08-.22-.12-.11-.06-.22-.09-.32-.1-1.49-1.76-2.74-3.7-3.63-5.85-.47-1.13-2.23-.39-1.75,.74,1.08,2.58,2.61,4.89,4.47,6.96,.06,.15,.16,.29,.32,.4,.05,.04,.1,.07,.15,.1,6.47,6.85,16.58,10.81,25.43,12.12,8.19,1.21,29.46,.38,25.52-13.19Z" fill="#2d2d2d" opacity=".1"/><path d="M178.55,904.77c-.33-2.41-3.87-3.43-5.76-3.94-5.94-1.61-11.28-2.64-16.42-5.71-.34-.31-.68-.63-1.01-.98-.21,0-.42,.02-.6,.1-.79,.35-1.38,1.59-1.72,2.31-1.09,2.35-1.45,5.1-1.48,7.67-.03,2.27,.47,4.02,1.77,5.4,.99-.02,1.98-.08,2.96-.18,1.43,.26,2.85,.45,4.22,.55,3.31,.24,18.96,1.34,18.04-5.22Z" fill="#ffc33e"/><path d="M128.79,952.65c-8.01,3.59-16.75,5.25-25.52,4.85-8.15-.38-17.81-2.37-24.61-7.17-2.88-2.03-4.43-6.26-.54-8.15,1.66-.81,3.61-.9,5.42-1.09,2.83-.29,5.62-.76,8.35-1.49,9.43,5.58,20.86,6.23,30.89,1.85,1.12-.49,.18-2.15-.93-1.66-8.85,3.87-18.92,3.46-27.42-.96,.11-.04,.22-.07,.33-.11,6.97-2.38,13.24-6.32,18.49-11.46,.88-.86-.45-2.23-1.32-1.37-7.72,7.56-17.61,12.18-28.36,13.29-2.93,.3-6.5,.46-8.57,2.89-2.23,2.63-1.24,6.25,1,8.53,2.87,2.91,7.47,4.49,11.27,5.79,4.46,1.53,9.12,2.47,13.82,2.87,9.81,.83,19.65-.93,28.62-4.95,1.12-.5,.18-2.16-.93-1.66Z" fill="#ffc33e"/><path d="M137.61,892.13c-1.38,.04-2.56,1.07-2.58,2.49v.21c-.03,1.33,1.12,2.62,2.49,2.58,1.38-.04,2.56-1.07,2.58-2.49v-.21c.03-1.33-1.12-2.62-2.49-2.58Z" fill="#514f50"/></g><g><path d="M600.84,1140.44c4.79-5.62,6.67-12.86,9.98-19.31,.65-1.27,1.36-2.51,2.11-3.72,1.39-1.07,2.91-2,4.46-2.84,5.88-3.18,12.28-5.44,17.32-9.98,7.58-6.84,8.45-16.67,5.63-25.68-.32-1.51-.78-2.98-1.41-4.36-.05-.11-.11-.21-.16-.31-.3-.91-.66-1.8-1.09-2.66-1.37-2.76-3.33-4.99-5.63-6.85-7.01-7.1-17.26-10.33-27.14-6.96-6.63,2.26-10.48,7.05-13.46,13.14-1.77,3.61-4,5.82-8.15,6.3-2.72,.32-5.48-.17-8.16-.86-1.73-.83-3.39-1.75-4.93-2.71-11.05-6.82-19.21-17.86-22.16-30.52-.43-1.83-2.25-2.28-3.59-1.74-.38,.08-.74,.26-1.02,.57-1.72,1.88-3.03,4.1-3.85,6.53,.31-1.35-1.78-2.79-3.26-2.35-1.58,.46-2.39,2.03-3.05,3.48-1.08,2.36-2.16,4.73-3.24,7.09-.42-1.05-1.99-1.31-2.9-.75-.01,0-.02,.02-.03,.02-1.53-.81-3.41-.68-4.66,1.23-7.03,10.82-7.55,24.29-5.08,36.66,2.61,13.05,8.58,25.43,17.63,35.24,15.79,17.12,47.02,33.39,65.84,11.35Z" fill="#ffe36c"/><path d="M571.59,1120.66c.45-.6-.17-1.41-.82-1.43-.7-.01-1.37-.09-2.03-.21-.88-.84-1.81-1.55-2.87-2.22-.29-.18-.57-.19-.8-.09-.2-.07-.39-.12-.6-.15,.03-.1,.05-.2,.04-.3,.12-.29,.08-.64-.24-.93-.64-.57-1.29-1.14-1.93-1.72-1.02-1.01-2.08-1.96-3.22-2.86-.13-.1-.27-.17-.41-.2-.51-.46-1.03-.91-1.54-1.38-1.3-1.4-2.64-2.74-4.05-4.03-.35-.45-.72-.89-1.1-1.33-.99-1.34-1.99-2.67-2.98-4.01,.23-.26,.33-.65,.15-1.06-.94-2.1-2.01-4.1-3.25-6.05-.01-.02-.02-.03-.03-.04-.5-.97-.99-1.95-1.48-2.93-.17-.61-.35-1.21-.52-1.82-.46-2.37-.85-4.75-1.17-7.15-.04-.3-.21-.49-.43-.6-.01-.08-.02-.17-.03-.25-.02-.12-.06-.23-.11-.32,.5-2.25,1.3-4.41,2.48-6.42,.62-1.06-1.03-2.01-1.65-.95-1.41,2.41-2.33,5.03-2.86,7.76-.09,.14-.14,.3-.13,.5,0,.06,0,.12,0,.18-1.57,9.3,1.36,19.75,5.66,27.6,3.98,7.26,17.46,23.74,25.91,12.42Z" fill="#2d2d2d" opacity=".1"/><path d="M639.68,1129.77c1.72-1.72,.4-5.16-.33-6.97-2.29-5.71-4.7-10.59-5.34-16.55,.04-.46,.1-.92,.17-1.4-.13-.17-.27-.33-.44-.42-.76-.42-2.1-.15-2.88,.02-2.53,.55-4.95,1.92-7.01,3.44-1.83,1.35-2.92,2.8-3.25,4.67,.61,.78,1.26,1.54,1.93,2.25,.65,1.3,1.36,2.54,2.11,3.7,1.8,2.79,10.36,15.94,15.04,11.25Z" fill="#ffc33e"/><path d="M571.49,1118.91c-7.7-4.23-14.28-10.2-19.25-17.45-4.61-6.73-8.84-15.65-9.11-23.95-.11-3.52,2.33-7.31,6.18-5.34,1.65,.84,2.9,2.34,4.13,3.67,1.94,2.08,3.99,4.02,6.22,5.77,1.23,10.88,7.6,20.4,17.14,25.77,1.07,.6,1.82-1.15,.76-1.74-8.42-4.73-14.16-13.02-15.76-22.46,.09,.07,.19,.13,.28,.2,6.1,4.12,13.02,6.76,20.29,7.85,1.21,.18,1.51-1.7,.3-1.88-10.69-1.6-20.33-6.71-27.69-14.62-2.01-2.15-4.29-4.91-7.47-5.09-3.44-.2-5.74,2.78-6.2,5.94-.59,4.05,.92,8.67,2.17,12.48,1.47,4.48,3.53,8.77,6.04,12.76,5.25,8.33,12.58,15.12,21.2,19.86,1.07,.59,1.83-1.16,.76-1.74Z" fill="#ffc33e"/><path d="M625.1,1089.48c-.86-1.07-2.39-1.39-3.54-.56l-.17,.12c-1.07,.78-1.41,2.47-.56,3.54,.86,1.07,2.39,1.39,3.54,.56l.17-.12c1.07-.78,1.41-2.47,.56-3.54Z" fill="#514f50"/></g><g><path d="M1119.31,888.95c1.84-7.15,.35-14.48,.49-21.73,.03-1.43,.12-2.85,.27-4.27,.78-1.58,1.73-3.07,2.76-4.51,3.89-5.44,8.65-10.27,11.19-16.57,3.81-9.47,.28-18.68-6.21-25.54-.95-1.22-2.01-2.34-3.18-3.3-.09-.07-.19-.14-.28-.21-.67-.68-1.39-1.32-2.15-1.91-2.44-1.88-5.18-3.02-8.06-3.68-9.42-3.3-20.04-1.7-27.44,5.66-4.96,4.94-6.32,10.94-6.33,17.71,0,4.02-1.04,6.98-4.56,9.24-2.3,1.48-5,2.25-7.71,2.8-1.92,.01-3.82-.09-5.62-.27-12.92-1.28-25.1-7.62-33.3-17.7-1.18-1.45-3.02-1.06-3.98,.01-.31,.24-.55,.56-.67,.96-.72,2.44-.92,5.02-.6,7.56-.32-1.35-2.82-1.72-3.96-.69-1.22,1.11-1.25,2.87-1.21,4.46,.07,2.6,.13,5.19,.2,7.79-.84-.76-2.37-.31-2.93,.6,0,.01-.01,.02-.02,.04-1.73-.06-3.36,.89-3.64,3.15-1.57,12.81,3.88,25.14,11.52,35.17,8.07,10.58,18.87,19.09,31.31,23.93,21.7,8.45,56.9,9.37,64.14-18.69Z" fill="#ffe36c"/><path d="M1084.35,884.01c.14-.73-.77-1.2-1.36-.92-.63,.29-1.27,.52-1.91,.7-1.16-.36-2.31-.6-3.56-.74-.34-.04-.6,.08-.76,.27-.21,.03-.41,.07-.6,.13-.01-.1-.05-.2-.09-.29-.02-.32-.21-.61-.63-.73-.83-.23-1.66-.46-2.49-.69-1.36-.46-2.73-.85-4.15-1.16-.16-.04-.32-.03-.46,0-.66-.19-1.32-.37-1.98-.56-1.78-.68-3.58-1.3-5.4-1.85-.52-.25-1.04-.49-1.57-.71-1.48-.77-2.96-1.53-4.44-2.3,.09-.34,.01-.73-.33-1.02-1.77-1.48-3.61-2.8-5.57-4.01-.02,0-.03-.02-.05-.02-.88-.65-1.75-1.31-2.61-1.98-.42-.47-.84-.94-1.26-1.41-1.45-1.93-2.85-3.9-4.19-5.91-.17-.25-.4-.35-.65-.35-.05-.07-.09-.14-.14-.21-.07-.1-.15-.18-.24-.24-.54-2.24-.76-4.54-.59-6.86,.09-1.22-1.81-1.36-1.9-.13-.2,2.79,.11,5.54,.84,8.22-.02,.16,0,.33,.1,.5,.03,.05,.06,.11,.09,.16,2.67,9.04,9.89,17.15,17.2,22.31,6.76,4.78,26.1,13.67,28.73-.21Z" fill="#2d2d2d" opacity=".1"/><path d="M1149.53,862.31c.79-2.3-1.9-4.81-3.35-6.12-4.56-4.12-8.87-7.46-12.06-12.52-.16-.43-.32-.87-.46-1.33-.19-.09-.39-.17-.58-.18-.86-.04-1.95,.79-2.58,1.28-2.03,1.6-3.6,3.89-4.79,6.17-1.05,2.01-1.4,3.8-.87,5.62,.89,.43,1.8,.83,2.72,1.18,1.15,.88,2.34,1.69,3.52,2.4,2.84,1.71,16.3,9.77,18.45,3.51Z" fill="#ffc33e"/><path d="M1083.49,882.48c-8.77-.42-17.31-2.89-24.95-7.23-7.09-4.02-14.81-10.18-18.7-17.53-1.65-3.11-1.11-7.59,3.21-7.51,1.85,.03,3.63,.83,5.33,1.49,2.66,1.02,5.35,1.86,8.12,2.45,5.88,9.24,15.78,15,26.71,15.63,1.22,.07,1.13-1.83-.08-1.9-9.64-.56-18.44-5.48-24.02-13.26,.11,.02,.23,.04,.34,.05,7.29,1.03,14.66,.36,21.68-1.85,1.17-.37,.61-2.19-.56-1.82-10.31,3.25-21.21,2.89-31.3-.98-2.75-1.05-6.01-2.53-8.95-1.3-3.18,1.33-3.93,5.02-2.97,8.06,1.24,3.9,4.63,7.38,7.43,10.26,3.29,3.38,7.02,6.33,11.03,8.81,8.38,5.18,17.94,8.07,27.76,8.54,1.22,.06,1.14-1.84-.08-1.9Z" fill="#ffc33e"/><path d="M1118.75,832.5c-1.24-.59-2.76-.2-3.43,1.05l-.1,.19c-.62,1.17-.18,2.84,1.05,3.43,1.24,.59,2.76,.2,3.43-1.05l.1-.19c.62-1.17,.18-2.84-1.05-3.43Z" fill="#514f50"/></g><g><path d="M265.51,1112.8c-3.36-6.58-9.33-11.08-14.03-16.6-.93-1.09-1.8-2.22-2.63-3.37-.46-1.7-.74-3.45-.92-5.21-.69-6.65-.33-13.43-2.61-19.83-3.42-9.62-12.17-14.18-21.58-15.01-1.52-.28-3.06-.42-4.57-.36-.12,0-.23,.02-.35,.03-.96-.07-1.92-.07-2.87,0-3.08,.21-5.88,1.17-8.48,2.58-9.24,3.76-16.14,12-16.8,22.42-.45,6.99,2.51,12.38,7,17.46,2.66,3.02,3.85,5.92,2.71,9.94-.75,2.63-2.25,5-3.92,7.21-1.43,1.28-2.92,2.46-4.39,3.52-10.52,7.6-23.85,10.92-36.68,8.81-1.85-.3-2.97,1.21-2.98,2.65-.07,.38-.04,.78,.14,1.16,1.08,2.31,2.63,4.37,4.56,6.06-1.13-.8-3.25,.58-3.42,2.11-.18,1.64,.97,2.98,2.05,4.14,1.77,1.9,3.54,3.8,5.31,5.7-1.13-.01-1.98,1.34-1.8,2.39,0,.01,0,.03,0,.04-1.33,1.1-1.93,2.9-.64,4.77,7.31,10.63,19.56,16.26,31.93,18.71,13.06,2.58,26.78,1.79,39.31-2.82,21.85-8.05,48.83-30.69,35.65-56.5Z" fill="#ffe36c"/><path d="M236.05,1132.27c-.38-.64-1.37-.38-1.63,.21-.28,.64-.61,1.23-.97,1.79-1.11,.5-2.13,1.08-3.15,1.81-.28,.2-.39,.46-.39,.71-.14,.16-.26,.32-.37,.49-.08-.07-.16-.12-.26-.15-.22-.23-.56-.32-.95-.13-.78,.38-1.55,.75-2.33,1.13-1.32,.56-2.61,1.18-3.88,1.89-.15,.08-.26,.19-.34,.31-.62,.3-1.24,.6-1.86,.89-1.79,.67-3.54,1.39-5.27,2.2-.55,.16-1.1,.32-1.64,.51-1.62,.41-3.23,.82-4.85,1.22-.16-.31-.47-.56-.93-.54-2.3,.07-4.56,.29-6.83,.69-.02,0-.03,.01-.05,.01-1.09,.09-2.18,.17-3.27,.25-.63-.07-1.25-.14-1.88-.22-2.36-.48-4.72-1.04-7.06-1.65-.29-.08-.53,0-.72,.17-.08-.02-.16-.04-.24-.06-.12-.03-.23-.04-.34-.02-1.89-1.32-3.58-2.89-4.99-4.74-.74-.97-2.25,.18-1.51,1.16,1.69,2.22,3.76,4.08,6.08,5.61,.09,.13,.22,.24,.41,.31,.06,.02,.12,.04,.17,.06,7.99,5,18.77,6.29,27.67,5.32,8.23-.9,28.61-7.06,21.38-19.2Z" fill="#2d2d2d" opacity=".1"/><path d="M270.49,1072.82c-.93-2.25-4.61-2.34-6.57-2.36-6.15-.07-11.58,.29-17.33-1.39-.41-.21-.81-.44-1.23-.69-.2,.05-.41,.13-.55,.25-.67,.54-.94,1.88-1.08,2.67-.46,2.55-.12,5.3,.5,7.79,.55,2.2,1.47,3.77,3.07,4.78,.96-.27,1.9-.57,2.82-.92,1.45-.1,2.87-.29,4.23-.54,3.27-.6,18.68-3.48,16.15-9.6Z" fill="#ffc33e"/><path d="M234.39,1131.69c-6.85,5.5-14.88,9.3-23.48,11.12-7.98,1.69-17.84,2.19-25.62-.74-3.3-1.24-5.86-4.95-2.58-7.75,1.41-1.2,3.27-1.78,4.97-2.42,2.67-.99,5.24-2.15,7.71-3.55,10.53,3.02,21.76,.78,30.36-5.99,.96-.76-.36-2.12-1.32-1.37-7.59,5.97-17.44,8.11-26.78,5.98,.1-.06,.2-.12,.29-.19,6.14-4.06,11.22-9.45,15.01-15.75,.63-1.05-.99-2.04-1.62-.99-5.56,9.27-13.97,16.22-24.09,20-2.76,1.03-6.18,2.09-7.56,4.95-1.5,3.1,.38,6.36,3.12,8,3.51,2.1,8.36,2.46,12.36,2.76,4.7,.35,9.45,.09,14.1-.71,9.71-1.67,18.78-5.85,26.45-12,.95-.77-.37-2.13-1.32-1.37Z" fill="#ffc33e"/><path d="M227.68,1070.9c-1.32,.38-2.2,1.68-1.87,3.06l.05,.21c.31,1.29,1.74,2.25,3.06,1.87,1.32-.38,2.2-1.68,1.87-3.06l-.05-.21c-.31-1.29-1.74-2.25-3.06-1.87Z" fill="#514f50"/></g><g><path d="M962.86,557.98c3.26-6.62,3.3-14.1,4.92-21.17,.32-1.39,.7-2.77,1.13-4.13,1.08-1.38,2.32-2.66,3.62-3.85,4.92-4.53,10.57-8.29,14.33-13.94,5.66-8.49,4.09-18.23-.87-26.27-.68-1.39-1.49-2.7-2.44-3.88-.07-.09-.15-.17-.23-.26-.52-.81-1.09-1.58-1.71-2.31-2.01-2.34-4.46-4.02-7.14-5.25-8.54-5.16-19.27-5.76-28.02-.06-5.87,3.82-8.42,9.42-9.81,16.05-.82,3.94-2.45,6.62-6.35,8.11-2.55,.97-5.35,1.18-8.12,1.17-1.88-.38-3.72-.87-5.45-1.41-12.38-3.89-23.01-12.59-28.99-24.13-.86-1.67-2.74-1.66-3.9-.8-.35,.17-.65,.43-.85,.8-1.2,2.24-1.93,4.73-2.13,7.28-.03-1.39-2.41-2.26-3.73-1.48-1.42,.84-1.81,2.56-2.1,4.12-.47,2.56-.93,5.11-1.4,7.67-.66-.91-2.25-.78-2.99-.01,0,.01-.02,.02-.03,.03-1.68-.41-3.48,.18-4.21,2.34-4.15,12.22-1.34,25.41,4.1,36.78,5.74,12.01,14.57,22.54,25.76,29.82,19.52,12.7,53.79,20.79,66.6-5.21Z" fill="#ffe36c"/><path d="M929.65,546.01c.29-.69-.51-1.33-1.14-1.18-.68,.16-1.35,.25-2.02,.29-1.06-.59-2.14-1.06-3.33-1.45-.33-.11-.6-.04-.8,.11-.21-.02-.41-.02-.62,0,0-.1,0-.2-.03-.3,.05-.31-.08-.64-.47-.84-.77-.4-1.53-.79-2.3-1.19-1.24-.73-2.5-1.39-3.83-1.98-.15-.07-.3-.09-.45-.09-.61-.32-1.22-.63-1.83-.96-1.6-1.03-3.24-2.01-4.91-2.91-.46-.35-.92-.69-1.39-1.02-1.29-1.05-2.59-2.1-3.88-3.15,.16-.31,.16-.71-.12-1.07-1.43-1.81-2.96-3.48-4.63-5.06-.01-.01-.03-.02-.04-.03-.72-.82-1.44-1.64-2.15-2.47-.32-.55-.63-1.09-.95-1.64-1.03-2.19-1.99-4.4-2.89-6.65-.11-.28-.32-.42-.57-.47-.03-.08-.06-.16-.09-.23-.05-.12-.11-.21-.19-.28-.07-2.3,.18-4.6,.82-6.83,.34-1.18-1.49-1.7-1.83-.52-.77,2.68-1.02,5.45-.86,8.22-.05,.15-.06,.32,0,.51,.02,.06,.04,.12,.05,.17,.77,9.4,6.18,18.81,12.28,25.36,5.64,6.06,22.76,18.71,28.17,5.66Z" fill="#2d2d2d" opacity=".1"/><path d="M997.89,538.07c1.24-2.09-.88-5.1-2.03-6.67-3.63-4.97-7.16-9.11-9.25-14.72-.07-.45-.13-.92-.18-1.4-.16-.13-.34-.25-.53-.3-.84-.22-2.07,.37-2.78,.73-2.32,1.15-4.32,3.08-5.95,5.06-1.44,1.75-2.15,3.43-2,5.32,.79,.61,1.6,1.18,2.42,1.71,.95,1.1,1.95,2.13,2.96,3.07,2.43,2.26,13.96,12.9,17.35,7.21Z" fill="#ffc33e"/><path d="M929.12,544.34c-8.5-2.2-16.35-6.37-22.95-12.17-6.12-5.39-12.42-12.99-14.73-20.97-.98-3.38,.46-7.66,4.67-6.7,1.8,.41,3.38,1.56,4.91,2.54,2.39,1.54,4.86,2.92,7.45,4.06,3.87,10.25,12.39,17.91,22.96,20.76,1.18,.32,1.48-1.56,.31-1.88-9.32-2.51-16.93-9.13-20.81-17.89,.11,.04,.21,.08,.32,.12,6.93,2.5,14.28,3.34,21.6,2.61,1.22-.12,1.04-2.02-.18-1.89-10.75,1.08-21.36-1.5-30.44-7.35-2.47-1.59-5.37-3.7-8.49-3.1-3.38,.65-4.88,4.11-4.55,7.28,.42,4.07,3.03,8.18,5.18,11.56,2.53,3.98,5.58,7.63,9,10.88,7.14,6.78,15.92,11.56,25.44,14.03,1.18,.31,1.49-1.57,.31-1.88Z" fill="#ffc33e"/><path d="M973.84,502.61c-1.1-.83-2.66-.76-3.57,.33l-.13,.16c-.85,1.02-.76,2.74,.33,3.57,1.1,.83,2.66,.76,3.57-.33l.13-.16c.85-1.02,.76-2.74-.33-3.57Z" fill="#514f50"/></g><g><path d="M1107.42,1126.31c.48-7.37-2.36-14.29-3.57-21.44-.24-1.41-.41-2.82-.54-4.24,.47-1.69,1.13-3.34,1.87-4.94,2.81-6.07,6.58-11.71,7.9-18.37,1.98-10.01-3.21-18.41-10.87-23.94-1.16-1.02-2.41-1.92-3.74-2.65-.1-.06-.21-.1-.31-.16-.79-.55-1.61-1.04-2.47-1.48-2.75-1.39-5.66-2-8.61-2.11-9.87-1.49-20,2.06-25.9,10.68-3.95,5.78-4.17,11.93-2.91,18.58,.75,3.95,.28,7.06-2.76,9.93-1.99,1.88-4.49,3.14-7.05,4.19-1.89,.37-3.77,.62-5.57,.79-12.93,1.15-26.08-2.81-36.02-11.18-1.43-1.21-3.17-.48-3.91,.76-.26,.29-.44,.65-.48,1.07-.25,2.53,.03,5.1,.82,7.54-.56-1.27-3.09-1.17-4.02,.06-.99,1.32-.7,3.06-.36,4.61,.55,2.54,1.1,5.08,1.65,7.62-.96-.59-2.38,.14-2.77,1.13,0,.01,0,.03-.01,.04-1.71,.26-3.14,1.5-2.99,3.78,.85,12.88,8.5,23.98,17.88,32.4,9.9,8.89,22.1,15.23,35.22,17.67,22.89,4.25,57.65-1.41,59.52-30.33Z" fill="#ffe36c"/><path d="M1072.15,1127.98c0-.75-.98-1.03-1.51-.65-.57,.4-1.15,.75-1.75,1.04-1.21-.14-2.38-.16-3.63-.06-.34,.03-.57,.19-.69,.41-.2,.06-.39,.14-.57,.24-.03-.1-.08-.18-.15-.27-.08-.31-.32-.56-.75-.6-.86-.07-1.72-.14-2.58-.22-1.42-.2-2.84-.32-4.3-.36-.17,0-.32,.03-.45,.09-.69-.06-1.37-.12-2.05-.18-1.88-.34-3.76-.61-5.65-.81-.55-.15-1.11-.28-1.67-.41-1.6-.48-3.19-.95-4.79-1.43,.03-.35-.12-.72-.52-.94-2.01-1.12-4.07-2.08-6.22-2.9-.02,0-.04,0-.05-.01-.98-.48-1.96-.96-2.93-1.46-.5-.38-1-.76-1.5-1.15-1.78-1.63-3.52-3.3-5.22-5.03-.21-.21-.46-.27-.7-.22-.06-.06-.12-.12-.18-.18-.09-.09-.18-.15-.28-.19-.95-2.1-1.6-4.32-1.86-6.63-.14-1.22-2.03-1-1.89,.22,.32,2.77,1.15,5.42,2.36,7.92,.01,.16,.07,.32,.19,.48,.04,.05,.08,.09,.12,.14,4.31,8.39,12.92,15,21.06,18.71,7.53,3.44,28.19,8.56,28.19-5.57Z" fill="#2d2d2d" opacity=".1"/><path d="M1132.14,1094.5c.35-2.41-2.77-4.37-4.44-5.38-5.25-3.2-10.1-5.67-14.19-10.05-.24-.39-.47-.8-.7-1.22-.2-.06-.41-.1-.6-.07-.85,.12-1.77,1.14-2.29,1.74-1.7,1.95-2.81,4.5-3.56,6.95-.66,2.17-.67,3.99,.19,5.68,.96,.26,1.93,.48,2.89,.65,1.3,.65,2.62,1.22,3.91,1.7,3.11,1.15,17.84,6.56,18.78,0Z" fill="#ffc33e"/><path d="M1071.02,1126.64c-8.7,1.22-17.55,.39-25.86-2.45-7.72-2.63-16.45-7.24-21.64-13.73-2.2-2.75-2.51-7.25,1.75-7.98,1.82-.31,3.72,.14,5.51,.47,2.8,.51,5.61,.83,8.44,.89,7.5,7.98,18.3,11.79,29.16,10.37,1.21-.16,.77-2.01-.43-1.85-9.57,1.25-19.14-1.94-26.07-8.55,.12,0,.23,0,.35-.01,7.36-.35,14.47-2.38,20.95-5.87,1.08-.58,.19-2.26-.89-1.68-9.52,5.12-20.3,6.8-30.93,4.88-2.9-.52-6.38-1.37-9.03,.39-2.87,1.9-2.93,5.66-1.41,8.47,1.95,3.6,5.93,6.39,9.21,8.69,3.86,2.71,8.08,4.91,12.48,6.6,9.19,3.53,19.13,4.58,28.87,3.21,1.21-.17,.77-2.02-.43-1.85Z" fill="#ffc33e"/><path d="M1096.33,1070.96c-1.33-.35-2.75,.32-3.17,1.68l-.06,.2c-.39,1.27,.35,2.83,1.68,3.17,1.33,.35,2.75-.32,3.17-1.68l.06-.2c.39-1.27-.35-2.83-1.68-3.17Z" fill="#514f50"/></g></g></g></pattern><clipPath id="clippath-1"><rect x="1" y="2014.19" width="1920.99" height="1801.09" fill="none"/></clipPath><pattern id="New_Pattern_12-2" patternTransform="translate(6790.94 3446.43) scale(1.52)" xlink:href="#New_Pattern_12"/></defs><g id="Capa_1-2"><g><rect width="1920.99" height="3815.28" fill="#1e1e1e"/><g opacity=".06"><g clip-path="url(#clippath)"><rect x="-497.76" y="72.56" width="2916.49" height="1941.63" fill="url(#New_Pattern_12)" opacity=".31"/></g></g><g opacity=".06"><g clip-path="url(#clippath-1)"><rect x="-496.5" y="1898.35" width="2914.97" height="1941.63" fill="url(#New_Pattern_12-2)" opacity=".31"/></g></g></g></g></svg>