<?xml version="1.0" encoding="UTF-8"?><svg id="Capa_2" xmlns="http://www.w3.org/2000/svg" viewBox="0 0 174.09 30.62"><g id="Capa_1-2"><g><rect x="0" y="0" width="174.09" height="30.62" rx="12.68" ry="12.68" fill="#ffbd29"/><g><path d="M13.06,12.37c.35-1.18,1.06-2.13,2.02-2.83,2.48-1.78,5.69-.83,7.12,1.6,.22,.35,.16,.63-.12,.92-.62,.61-1.23,1.2-1.83,1.79-.31,.26-.45,.25-.61-.13-.19-.45-.54-.8-.98-1.01-1.09-.56-1.57,.81-1.69,1.59-.07,.5,0,.99,.03,1.49,0,.09,.01,.16,.03,.25,.22,1.04,.99,1.36,1.88,.79,.22-.16,.41-.33,.63-.51,.34-.29,.51-.31,.8,.05,.55,.65,1.11,1.35,1.65,2.07,.35,.45,.32,.67-.06,1.11-1.94,2.16-5.15,2.55-7.24,.61-1.33-1.13-1.97-2.59-2.02-4.35-.01-.12-.01-.25-.03-.39,0-.12,0-.22,0-.34-.03-.94,.12-1.83,.42-2.7Z" fill="#fff"/><path d="M29.97,21.18c-1.29,.08-2.6-.02-3.92,.02-1.68,.03-2.63-1.66-2.74-3.05-.19-1.8-.17-3.6-.06-5.39,.03-1.1,.28-2.13,1.02-3.02,.75-.92,2.2-.95,3.25-1,.77-.06,1.54-.03,2.32-.02,1.71,0,2.92,1.15,3.02,2.87,.14,2.19,.24,4.2,.07,6.37-.05,.69-.13,1.27-.43,1.84-.57,1.01-1.48,1.33-2.53,1.38Zm-2.63-7.67c.01,.89,0,1.78,.02,2.71,0,1.9,1.81,1.61,1.81,.14,.02-.98,.02-2.1-.02-3.1-.14-1.38-1.81-.91-1.81,.26Z" fill="#fff"/><path d="M38.35,20.53c0,.48-.12,.54-.62,.57-.85,.03-1.71,.04-2.6,.07-.82,.04-1.02-.12-1.04-.89-.03-1.51-.07-2.98-.08-4.43-.04-2.06-.05-4.09-.09-6.17,0-.16,0-.35,.05-.56,.04-.26,.22-.38,.48-.36,1.07,.02,2.12,.08,3.19,.04,.48,0,.73,.18,.92,.59,.62,1.55,1.29,3.07,1.93,4.58,.06,.19,.15,.34,.32,.48-.06-.55-.08-1.1-.11-1.67-.07-1.05-.11-2.13-.18-3.22,0-.12-.01-.23,.02-.35,.06-.23,.18-.42,.47-.42,1.11-.01,2.25-.04,3.36-.04,.44,0,.58,.16,.58,.64,0,1.14-.05,2.28-.05,3.44-.03,.51,.03,.99,.03,1.49,0,1.75,0,3.48-.01,5.25,0,.38-.06,.77-.11,1.15-.06,.34-.18,.44-.54,.47-.31,.04-.63,.01-.94,.01-.89,0-1.75,0-2.63,0-.57,0-.61-.04-.83-.56-.44-1.17-.87-2.31-1.29-3.47-.04-.12-.13-.24-.22-.38,0,1.26,0,2.51,0,3.74Z" fill="#fff"/><path d="M50.3,20.56c0,.48-.12,.54-.62,.57-.85,.03-1.71,.04-2.6,.07-.82,.04-1.02-.12-1.04-.89-.03-1.51-.07-2.98-.08-4.43-.04-2.06-.05-4.09-.09-6.17,0-.16,0-.35,.05-.56,.04-.26,.22-.38,.48-.36,1.07,.02,2.12,.08,3.19,.04,.48,0,.73,.18,.92,.59,.62,1.55,1.29,3.07,1.93,4.58,.06,.19,.15,.34,.32,.48-.06-.55-.08-1.1-.11-1.67-.07-1.05-.11-2.13-.18-3.22,0-.12-.01-.23,.02-.35,.06-.23,.18-.42,.47-.42,1.11-.01,2.25-.04,3.36-.04,.44,0,.58,.16,.58,.64,0,1.14-.05,2.28-.05,3.44-.03,.51,.03,.99,.03,1.49,0,1.75,0,3.48-.01,5.25,0,.38-.06,.77-.11,1.15-.06,.34-.18,.44-.54,.47-.31,.04-.63,.01-.94,.01-.89,0-1.75,0-2.63,0-.57,0-.61-.05-.83-.56-.44-1.17-.87-2.31-1.29-3.47-.04-.12-.13-.23-.22-.38,0,1.26,0,2.51,0,3.74Z" fill="#fff"/><path d="M61.39,13.53c.89,.09,1.78,.09,2.66,.11,.5,.02,.58,.12,.63,.57,.03,.69,.04,1.33,.05,2.03,0,.29-.12,.45-.42,.5-.29,.04-.56,.04-.85,.04-.67,.04-1.32,0-2,0,0,.13,0,.25,0,.38,1.04,.08,2.1,.05,3.14,.07,.39,0,.79,.02,1.15,.06,.48,.06,.72,.28,.71,.75,.01,.85,.01,1.7,0,2.54-.02,.5-.25,.72-.79,.71-2.22,0-4.44-.01-6.68-.02-.64,0-.94-.28-1.02-.91-.06-.57-.11-1.13-.1-1.71,.04-2.76,.09-5.56,.12-8.35,0-.1,0-.2,.03-.32,.09-.83,.38-1.15,1.25-1.18,1.26-.01,2.47,0,3.73,0,.54,0,1.14-.04,1.7-.04,.39,0,.77,.03,1.14,.06,.31,.02,.44,.22,.5,.44,.06,.16,.06,.37,.07,.54,0,.76,0,1.53,0,2.28-.02,.63-.21,.85-.85,.85-1.21-.02-2.41-.05-3.62-.1-.15,0-.32,0-.53,0,0,.26,0,.45,0,.7Z" fill="#fff"/><path d="M67.73,12.51c.35-1.18,1.06-2.13,2.02-2.83,2.48-1.78,5.69-.83,7.12,1.6,.22,.35,.16,.63-.12,.92-.62,.61-1.23,1.2-1.83,1.79-.31,.26-.45,.25-.61-.13-.19-.45-.54-.8-.98-1.01-1.09-.56-1.57,.81-1.69,1.59-.07,.5,0,.99,.03,1.49,0,.09,.01,.16,.03,.25,.22,1.04,.99,1.36,1.88,.79,.22-.16,.41-.33,.63-.51,.34-.29,.51-.31,.8,.05,.55,.65,1.11,1.35,1.65,2.07,.35,.45,.32,.67-.06,1.11-1.94,2.16-5.15,2.55-7.24,.61-1.33-1.13-1.97-2.59-2.02-4.35-.01-.12-.01-.25-.03-.39,0-.12,0-.22,0-.34-.03-.94,.12-1.83,.42-2.7Z" fill="#fff"/><path d="M85.36,14.86c.02,1.78,.08,3.54,.09,5.32,0,.88-.32,1.18-1.19,1.18-.83,0-1.67-.03-2.5-.09-.18,0-.34-.03-.51-.07-.32-.09-.45-.23-.45-.57-.01-.26,0-.55,0-.83,0-1.96,0-3.89,.01-5.88,0-.15,0-.28,0-.5-.32,0-.61,0-.95,0-.38,0-.79,.01-1.21-.02-.53-.08-.8-.35-.83-.91-.03-.91-.02-1.84,0-2.76,.02-.66,.31-.89,.95-.88,2.54,.02,5.07,.04,7.62,.08,.28,0,.57-.03,.85-.04,.48-.03,.79,.18,.83,.64,.06,.31,.01,.67,.01,.99-.02,.67-.03,1.33-.09,1.97-.06,.55-.19,.64-.78,.65-.58,.01-1.18,.06-1.84,.1,0,.57,0,1.1,0,1.61Z" fill="#fff"/><path d="M101.12,10.84c.13-.63,.37-.85,.98-.84,.88,.02,1.74,.08,2.62,.08,.32,0,.5,.15,.54,.42,.14,.67,.24,1.3,.36,1.95,.1,.56,.2,1.32,.39,1.86,.41-1.52,.75-3.24,1.15-4.75,.16-.77,.19-.63,1.13-.62,.58,0,1.17-.01,1.75,0,.4,.02,.78,.06,1.16,.08,.23,.03,.33,.16,.32,.38-.02,.2-.03,.44-.09,.67-.86,3.49-1.71,7.01-2.57,10.49-.03,.09-.04,.22-.07,.34-.12,.42-.31,.55-.78,.57-.51,.01-1.01,0-1.55,0-.56,0-1.15,0-1.71,0-.29,0-.45-.13-.53-.37-.36-1.13-.49-2.4-.96-3.69-.27,1.32-.46,2.51-.83,3.65-.09,.26-.31,.38-.59,.38-1.14,0-2.28,0-3.38,0-.34,0-.58-.15-.69-.47-.13-.35-.25-.72-.3-1.07-.49-2.31-1-4.62-1.5-6.92-.19-.94-.43-1.89-.67-2.84-.06-.23-.09-.51-.07-.75,0-.31,.13-.42,.46-.42,1.1-.05,2.18-.08,3.26-.09,.45-.01,.53,.03,.61,.51,.35,1.75,.59,3.38,.75,5,.3-1.07,.52-2.66,.8-3.55Z" fill="#fff"/><path d="M115.7,18.99c-.09,.56-.15,1.02-.24,1.52-.04,.2-.07,.39-.16,.54-.09,.25-.28,.36-.58,.36-1.13-.02-2.25-.02-3.36-.02-.41,0-.66-.19-.66-.59,0-.47,.03-.92,.14-1.34,.53-2.51,1.08-5,1.63-7.45,.15-.7,.4-1.34,.62-2,.25-.73,.63-.98,1.41-.98,1.29,0,2.56,.02,3.82,0,.58-.01,.89,.27,1.11,.71,.09,.18,.13,.38,.19,.58,.38,1.55,.74,3.09,1.08,4.64,.35,1.51,.61,2.98,.89,4.46,.07,.37,.17,.7,.26,1.04,.03,.13,.06,.28,.06,.41,.01,.32-.12,.47-.42,.48h-.15c-1.01,.01-2,.05-3.03,.08-.48,.01-.66-.12-.76-.59-.1-.47-.14-.92-.2-1.35-.04-.2-.06-.37-.09-.5-.56,0-1.05,0-1.55,0Zm.23-2.6c.39,0,.69,0,1.02,0-.17-1.3-.34-2.53-.5-3.77-.24,1.26-.45,2.5-.52,3.77Z" fill="#fff"/><path d="M129.28,16.92c.54,0,1.04,0,1.55,0,.45,0,.61,.16,.64,.62,.03,.22,.03,.44,.03,.63,0,.91,0,1.8-.04,2.7,0,.44-.16,.58-.6,.58-2.38,0-4.77-.01-7.16-.05-.09,0-.16,.03-.25,.03-.38-.03-.54-.16-.55-.56-.03-1.1-.08-2.19-.08-3.29-.02-1.78,.04-3.57,.04-5.36,0-.83-.05-1.68-.08-2.51-.01-.58,.16-.76,.72-.74,1.23,0,2.49,.02,3.73,.02,.57,.02,.73,.18,.73,.76-.02,1.64-.05,3.29-.07,4.9-.03,.75,0,1.51,0,2.27,.53,0,.98,0,1.4,0Z" fill="#fff"/><path d="M138.95,16.95c.54,0,1.04,0,1.55,0,.45,0,.61,.16,.64,.62,.03,.22,.03,.44,.03,.63,0,.91,0,1.8-.04,2.7,0,.44-.16,.58-.6,.58-2.38,0-4.77-.01-7.16-.05-.09,0-.16,.03-.25,.03-.38-.03-.54-.16-.55-.56-.03-1.1-.08-2.19-.08-3.29-.02-1.78,.04-3.57,.04-5.36,0-.83-.05-1.68-.08-2.52-.01-.58,.16-.76,.72-.74,1.23,0,2.49,.02,3.73,.02,.57,.02,.73,.18,.73,.76-.02,1.64-.05,3.29-.07,4.9-.03,.75,0,1.51,0,2.27,.53,0,.98,0,1.4,0Z" fill="#fff"/><path d="M145.66,13.75c.89,.09,1.78,.09,2.66,.11,.5,.02,.58,.12,.63,.57,.03,.69,.04,1.33,.05,2.03,0,.29-.12,.45-.42,.5-.29,.04-.56,.04-.85,.04-.67,.04-1.32,0-2,0,0,.13,0,.25,0,.38,1.04,.08,2.1,.05,3.14,.07,.39,0,.79,.02,1.15,.06,.48,.06,.72,.28,.71,.75,.01,.85,.01,1.7,0,2.54-.02,.5-.25,.71-.79,.71-2.22,0-4.44-.01-6.68-.02-.64,0-.94-.28-1.02-.91-.06-.57-.11-1.13-.1-1.71,.04-2.76,.09-5.56,.12-8.35,0-.1,0-.2,.03-.32,.09-.83,.38-1.15,1.25-1.18,1.26-.01,2.47,0,3.73,0,.54,0,1.14-.04,1.7-.04,.39,0,.77,.03,1.14,.06,.31,.02,.44,.22,.5,.44,.06,.16,.06,.37,.07,.54,0,.76,0,1.53,0,2.28-.02,.63-.21,.85-.85,.85-1.21-.02-2.41-.05-3.62-.1-.15,0-.32,0-.53,0,0,.26,0,.45,0,.7Z" fill="#fff"/><path d="M159.22,15.05c.02,1.78,.08,3.54,.09,5.32,0,.88-.32,1.18-1.19,1.18-.83,0-1.67-.03-2.5-.09-.18,0-.34-.03-.51-.07-.32-.09-.45-.24-.45-.57-.01-.26,0-.55,0-.83,0-1.96,0-3.89,.01-5.88,0-.15,0-.28,0-.5-.32,0-.61,0-.95,0-.38,0-.79,.01-1.21-.02-.53-.08-.8-.35-.83-.91-.03-.91-.02-1.84,0-2.76,.02-.66,.31-.89,.95-.87,2.54,.02,5.07,.04,7.62,.08,.28,0,.57-.03,.85-.04,.48-.03,.79,.18,.83,.65,.06,.31,.01,.67,.01,.99-.02,.67-.03,1.33-.09,1.97-.06,.56-.19,.64-.78,.66-.58,.01-1.18,.06-1.84,.1,0,.57,0,1.1,0,1.61Z" fill="#fff"/></g></g></g></svg>