<?xml version="1.0" encoding="UTF-8"?><svg id="Capa_2" xmlns="http://www.w3.org/2000/svg" viewBox="0 0 159.24 39.53"><g id="Capa_1-2"><g><rect x="0" width="159.24" height="39.53" rx="10.4" ry="10.4" fill="#fff"/><g><path d="M12.37,12.86v-.55c.11-.86,.4-1.14,1.24-1.14,1.48,0,2.91,0,4.38,.04,.91,.04,1.81,.08,2.7,.27,2.42,.48,3.98,2.02,4.61,4.4,.53,1.75,.7,3.58,.57,5.46-.11,1.26-.51,2.55-1.1,3.71-1.16,2-2.82,3.35-5.12,3.88-.72,.17-1.45,.25-2.19,.25-1.26-.02-2.49-.02-3.73-.02-.89,0-1.24-.32-1.24-1.29-.02-2.57,0-5.02,0-7.46-.02-2.53-.11-5.02-.13-7.56Zm7.42,9.99c.06-.29,.15-.61,.15-.91,0-.95-.02-1.9-.06-2.84-.02-.42-.06-.84-.21-1.29-.21-.76-.55-1.29-1.45-1.05,.06,2.15,.17,4.68,.23,6.87,.84,.19,1.18-.25,1.35-.78Z" fill="#ff9826"/><path d="M33.61,25.7c-.13,.8-.21,1.48-.34,2.19-.06,.3-.11,.57-.23,.78-.13,.36-.4,.53-.84,.53-1.62-.02-3.25-.02-4.85-.02-.59,0-.95-.27-.95-.84,0-.67,.04-1.33,.19-1.94,.76-3.62,1.54-7.21,2.32-10.75,.21-1.01,.57-1.94,.88-2.89,.36-1.05,.91-1.41,2.02-1.41,1.85,0,3.69,.02,5.5-.02,.84-.02,1.29,.38,1.6,1.01,.13,.25,.19,.55,.27,.84,.55,2.23,1.08,4.45,1.58,6.68,.5,2.17,.88,4.3,1.31,6.43,.11,.53,.25,1.01,.38,1.5,.04,.19,.08,.4,.08,.59,.02,.46-.17,.67-.61,.7h-.21c-1.45,.02-2.89,.08-4.36,.13-.7,.02-.95-.17-1.1-.84s-.21-1.33-.29-1.94c-.06-.3-.08-.53-.13-.72h-2.23Zm.32-3.75h1.47c-.25-1.88-.51-3.65-.74-5.44-.34,1.81-.63,3.6-.74,5.44Z" fill="#ff9826"/><path d="M54.7,16.57c-.19,.55-.36,.63-.91,.48-.82-.21-1.62-.42-2.44-.55-.27-.04-.59,.04-.82,.17-.53,.34-.53,.78-.02,1.12,.19,.13,.44,.25,.67,.34,.74,.42,1.58,.76,2.32,1.22,.8,.55,1.35,1.2,1.71,1.94,1.35,2.76-.13,6.87-3.03,7.78-.86,.27-1.75,.38-2.63,.34-2.47-.13-4.42-.84-6.05-2.53-.4-.4-.27-1.1-.02-1.58,.67-1.29,1.26-2.38,1.83-2.93,.44-.44,.55-.4,1.07-.02,1.08,.76,1.64,1.35,2.78,1.71,1.03,.32,1.31-.57-.3-1.79-.84-.63-1.81-1.12-2.68-1.75-.51-.38-.95-.8-1.37-1.26-1.81-2.13-1.18-4.95,.51-6.55,2.53-2.36,7.42-1.29,10.24-.59,.7,.27,.21,1.18,.06,1.67-.32,.97-.61,1.88-.93,2.8Z" fill="#ff9826"/><path d="M63.22,23.95c-.06,1.52-.11,2.87-.23,4.19-.08,.84-.38,1.12-1.26,1.12-1.43,0-2.87-.02-4.32-.04-.42-.02-.67-.29-.7-.76-.02-.55-.02-1.05-.02-1.62,.02-3.44,.04-6.89,.08-10.35,0-1.18-.06-2.36-.06-3.5,0-.32,.02-.63,.08-.95,.08-.55,.32-.72,.88-.72,.99-.02,1.92-.02,2.89-.02h1.45c.67,.02,.91,.23,.93,.91,.08,2.19,0,4.34,.17,6.74h2.02c.08-1.88-.11-3.71-.13-5.54-.02-.44-.02-.91,0-1.39,.02-.53,.27-.82,.8-.82,1.43-.02,2.87-.04,4.36,0,.74,.04,.99,.34,.97,1.03-.04,1.03,.02,2.13,.02,3.2,0,.42-.02,.8-.02,1.24,.02,2.97,.06,5.92,.08,8.91,0,.78-.02,1.54-.13,2.28-.08,1.12-.36,1.33-1.24,1.37-1.39,.08-2.76,.06-4.13,.06-.46,0-.59-.17-.59-.67,0-1.33,.02-2.61,.04-3.9v-.78h-1.96Z" fill="#ff9826"/><path d="M83.47,19.59c1.26,.59,1.96,1.6,2.07,2.97,.06,.76,.06,1.5,.04,2.25,0,.67-.34,1.26-.7,1.81-.88,1.26-2.09,2.15-3.65,2.4-.74,.13-1.47,.15-2.23,.15-1.39,.02-2.82,0-4.3-.02-.4,0-.8-.04-1.22-.08-.65-.06-.86-.25-.93-.97-.02-.32,0-.67-.02-1.01-.29-3.41-.34-6.81-.32-10.2,0-1.43-.04-2.84-.04-4.24,0-.23,0-.48,.02-.74,.11-.57,.34-.74,.88-.74,2.38,.08,4.78-.08,7.1,.21,3.14,.42,4.57,2.42,4.03,5.48-.15,.7-.57,1.39-.86,2.04-.06,.15-.17,.25-.25,.42,.15,.11,.25,.17,.38,.25Zm-4.05-1.96c.59-.08,.74-.59,.42-1.05-.15-.23-.34-.44-.59-.53-.57-.17-1.16-.08-1.71-.02,.02,.63,.06,1.12,.08,1.73,.61-.02,1.2-.02,1.79-.13Zm-.08,6.66c.55-.04,.95-.34,1.01-.65,.04-.38-.29-.86-.82-1.05-.04-.02-.13-.04-.21-.04-.51-.04-1.01-.04-1.54-.04v1.79c.57,0,1.05,.04,1.56,0Z" fill="#ff9826"/><path d="M96.39,29.17c-1.85,.13-3.75-.02-5.65,.04-2.42,.04-3.79-2.38-3.96-4.38-.27-2.59-.25-5.18-.11-7.78,.04-1.58,.4-3.08,1.45-4.36,1.08-1.33,3.16-1.37,4.68-1.45,1.12-.08,2.21-.04,3.35-.04,2.46,0,4.21,1.64,4.36,4.13,.21,3.16,.36,6.05,.13,9.19-.06,.99-.19,1.83-.61,2.66-.82,1.45-2.13,1.92-3.65,2Zm-3.81-11.04c.02,1.29,.02,2.57,.04,3.9,0,2.74,2.61,2.32,2.61,.19,.02-1.41,.02-3.03-.04-4.47-.21-1.98-2.61-1.31-2.61,.38Z" fill="#ff9826"/><path d="M108.92,25.7c-.13,.8-.21,1.48-.34,2.19-.06,.3-.11,.57-.23,.78-.13,.36-.4,.53-.84,.53-1.62-.02-3.25-.02-4.85-.02-.59,0-.95-.27-.95-.84,0-.67,.04-1.33,.19-1.94,.76-3.62,1.54-7.21,2.32-10.75,.21-1.01,.57-1.94,.88-2.89,.36-1.05,.91-1.41,2.02-1.41,1.85,0,3.69,.02,5.5-.02,.84-.02,1.29,.38,1.6,1.01,.13,.25,.19,.55,.27,.84,.55,2.23,1.08,4.45,1.58,6.68,.5,2.17,.88,4.3,1.31,6.43,.11,.53,.25,1.01,.38,1.5,.04,.19,.08,.4,.08,.59,.02,.46-.17,.67-.61,.7h-.21c-1.45,.02-2.89,.08-4.36,.13-.7,.02-.95-.17-1.1-.84s-.21-1.33-.29-1.94c-.06-.3-.08-.53-.13-.72h-2.23Zm.32-3.75h1.47c-.25-1.88-.51-3.65-.74-5.44-.34,1.81-.63,3.6-.74,5.44Z" fill="#ff9826"/><path d="M131.66,25.87c0,.82,.06,1.39,.06,2.17-.02,.78-.19,1.1-.93,1.12-1.26,.04-2.59,.04-3.92,0-.72-.02-1.16-.17-1.22-.91-.08-.82,.02-1.81-.04-2.61,0-.89-.4-1.18-1.24-.99,.02,.61,.06,.99,.08,1.64,.02,.51,.02,1.05,0,1.6-.06,.7-.42,1.14-1.14,1.18-1.18,.08-2.34,.11-3.54,.02-.76-.02-1.05-.38-1.05-1.18,.04-3.6,.04-6.98,.06-10.58v-4.74c0-.84,.32-1.18,1.14-1.2,1.64-.08,3.25-.13,4.87-.17,.82,0,1.64,0,2.49,.02,.97,0,1.9,.27,2.74,.76,.78,.46,1.22,1.14,1.56,1.9,.78,1.79,1.12,5.79,.38,7.5-.34,.76-.89,1.45-1.62,2.09,1.12,.46,1.33,1.37,1.33,2.38Zm-5.1-7.06c.02-.67,0-1.43-.11-2.15-.11-.74-.57-1.05-1.33-.91-.36,.04-.53,.19-.5,.57,.08,1.18,.19,2.36,.27,3.54,.97,.53,1.64,.08,1.67-1.05Z" fill="#ff9826"/><path d="M133.27,12.86v-.55c.11-.86,.4-1.14,1.24-1.14,1.48,0,2.91,0,4.38,.04,.91,.04,1.81,.08,2.7,.27,2.42,.48,3.98,2.02,4.61,4.4,.53,1.75,.7,3.58,.57,5.46-.11,1.26-.51,2.55-1.1,3.71-1.16,2-2.82,3.35-5.12,3.88-.72,.17-1.45,.25-2.19,.25-1.26-.02-2.49-.02-3.73-.02-.89,0-1.24-.32-1.24-1.29-.02-2.57,0-5.02,0-7.46-.02-2.53-.11-5.02-.13-7.56Zm7.42,9.99c.06-.29,.15-.61,.15-.91,0-.95-.02-1.9-.06-2.84-.02-.42-.06-.84-.21-1.29-.21-.76-.55-1.29-1.45-1.05,.06,2.15,.17,4.68,.23,6.87,.84,.19,1.18-.25,1.35-.78Z" fill="#ff9826"/></g></g></g></svg>