<?xml version="1.0" encoding="UTF-8"?><svg id="Capa_2" xmlns="http://www.w3.org/2000/svg" viewBox="0 0 110.83 46.43"><g id="Capa_1-2"><g><rect x="0" width="110.83" height="46.43" rx="10.4" ry="10.4" fill="#f2f2f2"/><g><g><path d="M25.74,40.82c-2.49,0-4.84-.47-7.01-1.38-2.16-.92-4.07-2.19-5.67-3.79-1.6-1.6-2.88-3.51-3.79-5.67-.92-2.16-1.38-4.52-1.38-7.01s.47-4.89,1.39-7.05c.92-2.16,2.19-4.07,3.79-5.67,1.6-1.6,3.51-2.87,5.67-3.77,2.16-.9,4.52-1.36,7-1.36s4.89,.46,7.05,1.36c2.16,.9,4.07,2.17,5.67,3.77,1.6,1.6,2.87,3.51,3.77,5.67,.9,2.16,1.36,4.53,1.36,7.05s-.46,4.84-1.36,7c-.9,2.16-2.17,4.07-3.77,5.67-1.6,1.6-3.51,2.88-5.67,3.79-2.16,.92-4.54,1.38-7.05,1.38Z" fill="#ffbd29"/><path d="M25.74,5.49c2.48,0,4.78,.44,6.9,1.33,2.13,.89,3.98,2.12,5.55,3.69,1.57,1.57,2.8,3.42,3.69,5.55,.89,2.13,1.33,4.43,1.33,6.9s-.44,4.73-1.33,6.86c-.89,2.13-2.12,3.98-3.69,5.55s-3.42,2.81-5.55,3.71c-2.13,.9-4.43,1.35-6.9,1.35s-4.73-.45-6.86-1.35c-2.13-.9-3.98-2.14-5.55-3.71s-2.81-3.42-3.71-5.55c-.9-2.13-1.35-4.41-1.35-6.86s.45-4.78,1.35-6.9c.9-2.13,2.14-3.98,3.71-5.55,1.57-1.57,3.42-2.8,5.55-3.69,2.13-.89,4.41-1.33,6.86-1.33m0-.75c-2.54,0-4.94,.47-7.15,1.39-2.21,.92-4.16,2.22-5.79,3.85s-2.94,3.58-3.87,5.79c-.94,2.21-1.41,4.63-1.41,7.2s.48,4.94,1.41,7.15c.94,2.21,2.24,4.15,3.87,5.79,1.63,1.63,3.58,2.94,5.79,3.87,2.21,.94,4.62,1.41,7.15,1.41s4.99-.48,7.2-1.41c2.21-.94,4.15-2.24,5.79-3.87,1.64-1.64,2.93-3.58,3.85-5.79,.92-2.21,1.39-4.61,1.39-7.15s-.47-4.98-1.39-7.19c-.92-2.21-2.22-4.16-3.85-5.79s-3.58-2.93-5.79-3.85c-2.21-.92-4.63-1.39-7.19-1.39h0Z" fill="#fff"/></g><g><path d="M25.74,38.2c-4.31,0-7.96-1.47-10.86-4.37-2.9-2.9-4.37-6.55-4.37-10.86s1.47-7.96,4.37-10.86c2.9-2.9,6.55-4.37,10.86-4.37s7.96,1.47,10.86,4.37c2.9,2.9,4.37,6.55,4.37,10.86s-1.47,7.96-4.37,10.86c-2.9,2.9-6.55,4.37-10.86,4.37Z" fill="#fff"/><path d="M25.74,8.11c4.22,0,7.76,1.42,10.6,4.26,2.84,2.84,4.26,6.37,4.26,10.6s-1.42,7.76-4.26,10.6c-2.84,2.84-6.37,4.26-10.6,4.26s-7.76-1.42-10.6-4.26-4.26-6.37-4.26-10.6,1.42-7.76,4.26-10.6,6.37-4.26,10.6-4.26m0-.75c-4.41,0-8.15,1.51-11.13,4.48-2.97,2.97-4.48,6.72-4.48,11.13s1.51,8.15,4.48,11.13c2.97,2.97,6.72,4.48,11.13,4.48s8.15-1.51,11.13-4.48c2.97-2.97,4.48-6.72,4.48-11.13s-1.51-8.15-4.48-11.13c-2.97-2.97-6.72-4.48-11.13-4.48h0Z" fill="#ffbd29"/></g><path d="M30.99,13.62h-10.05c-.41,0-.75,.09-1.03,.26s-.52,.44-.72,.79l-3.41,7.95c-.06,.15-.11,.36-.15,.66-.04,.29-.07,.51-.07,.66v1.05c0,.41,.09,.71,.28,.9,.19,.19,.49,.28,.9,.28h9.35l-1.22,5.77v1.01c0,.15,.12,.32,.35,.52l.83,.87,7.04-7.6c.12-.23,.23-.47,.35-.7s.17-.48,.17-.74v-9.05c0-.67-.26-1.27-.79-1.81-.52-.54-1.14-.81-1.84-.81Z" fill="#ffbd29"/></g></g></g></svg>