<?xml version="1.0" encoding="UTF-8"?><svg id="Capa_2" xmlns="http://www.w3.org/2000/svg" viewBox="0 0 159.24 39.53"><g id="Capa_1-2"><g><rect width="159.24" height="39.53" rx="10.4" ry="10.4" fill="#fff"/><g><path d="M34.51,23.97c-.06,1.52-.11,2.87-.23,4.19-.08,.84-.38,1.12-1.26,1.12-1.43,0-2.87-.02-4.32-.04-.42-.02-.67-.29-.7-.76-.02-.55-.02-1.05-.02-1.62,.02-3.44,.04-6.89,.08-10.35,0-1.18-.06-2.36-.06-3.5,0-.32,.02-.63,.08-.95,.08-.55,.32-.72,.88-.72,.99-.02,1.92-.02,2.89-.02h1.45c.67,.02,.91,.23,.93,.91,.08,2.19,0,4.34,.17,6.74h2.02c.08-1.88-.11-3.71-.13-5.54-.02-.44-.02-.91,0-1.39,.02-.53,.27-.82,.8-.82,1.43-.02,2.87-.04,4.36,0,.74,.04,.99,.34,.97,1.03-.04,1.03,.02,2.13,.02,3.2,0,.42-.02,.8-.02,1.24,.02,2.97,.06,5.92,.08,8.91,0,.78-.02,1.54-.13,2.28-.08,1.12-.36,1.33-1.24,1.37-1.39,.08-2.76,.06-4.13,.06-.46,0-.59-.17-.59-.67,0-1.33,.02-2.61,.04-3.9v-.78h-1.96Z" fill="#ff9826"/><path d="M53.39,29.19c-1.85,.13-3.75-.02-5.65,.04-2.42,.04-3.79-2.38-3.96-4.38-.27-2.59-.25-5.18-.11-7.78,.04-1.58,.4-3.08,1.45-4.36,1.08-1.33,3.16-1.37,4.68-1.45,1.12-.08,2.21-.04,3.35-.04,2.47,0,4.21,1.64,4.36,4.13,.21,3.16,.36,6.05,.13,9.19-.06,.99-.19,1.83-.61,2.66-.82,1.45-2.13,1.92-3.65,2Zm-3.81-11.04c.02,1.29,.02,2.57,.04,3.9,0,2.74,2.61,2.32,2.61,.19,.02-1.41,.02-3.03-.04-4.47-.21-1.98-2.61-1.31-2.61,.38Z" fill="#ff9826"/><path d="M69.6,19.88c.04,2.57,.13,5.1,.15,7.67,0,1.26-.46,1.71-1.71,1.71s-2.4-.04-3.6-.13c-.25,0-.49-.04-.74-.11-.46-.13-.65-.34-.65-.82-.02-.38,0-.8,0-1.2v-9.19h-1.37c-.55,0-1.14,.02-1.75-.02-.76-.1-1.16-.51-1.2-1.31-.04-1.31-.04-2.66-.02-3.98,.02-.95,.44-1.29,1.37-1.26,3.67,.02,7.31,.04,10.98,.08,.4,0,.82-.04,1.22-.06,.7-.04,1.14,.25,1.2,.93,.08,.44,.02,.97,.02,1.43-.02,.97-.04,1.92-.13,2.84-.08,.8-.27,.93-1.12,.95-.84,.02-1.71,.08-2.66,.15v2.32Z" fill="#ff9826"/><path d="M85.26,19.88c.04,2.57,.13,5.1,.15,7.67,0,1.26-.46,1.71-1.71,1.71s-2.4-.04-3.6-.13c-.25,0-.49-.04-.74-.11-.46-.13-.65-.34-.65-.82-.02-.38,0-.8,0-1.2v-9.19h-1.37c-.55,0-1.14,.02-1.75-.02-.76-.1-1.16-.51-1.2-1.31-.04-1.31-.04-2.66-.02-3.98,.02-.95,.44-1.29,1.37-1.26,3.67,.02,7.31,.04,10.98,.08,.4,0,.82-.04,1.22-.06,.7-.04,1.14,.25,1.2,.93,.08,.44,.02,.97,.02,1.43-.02,.97-.04,1.92-.13,2.84-.08,.8-.27,.93-1.12,.95-.84,.02-1.71,.08-2.65,.15v2.32Z" fill="#ff9826"/><path d="M95.1,18.04c1.29,.13,2.57,.13,3.84,.15,.72,.02,.84,.17,.91,.82,.04,.99,.06,1.92,.08,2.93,0,.42-.17,.65-.61,.72-.42,.06-.8,.06-1.22,.06-.97,.06-1.9,0-2.89,0v.55c1.5,.11,3.03,.06,4.53,.08,.57,0,1.14,.02,1.67,.08,.7,.08,1.03,.4,1.03,1.07,.02,1.22,.02,2.44,0,3.67-.02,.72-.36,1.03-1.14,1.03h-9.63c-.93,0-1.35-.4-1.48-1.31-.08-.82-.17-1.62-.15-2.47,.04-3.98,.1-8.01,.15-12.03,0-.15,0-.29,.04-.46,.13-1.2,.55-1.67,1.79-1.71,1.81-.02,3.56,0,5.37-.02,.78,0,1.64-.06,2.44-.06,.57,0,1.12,.04,1.64,.08,.44,.02,.63,.32,.72,.63,.08,.23,.08,.53,.11,.78v3.29c-.02,.91-.29,1.22-1.22,1.22-1.75-.02-3.48-.06-5.23-.13h-.76v1.01Z" fill="#ff9826"/><path d="M114.63,16.59c-.19,.55-.36,.63-.91,.48-.82-.21-1.62-.42-2.45-.55-.27-.04-.59,.04-.82,.17-.53,.34-.53,.78-.02,1.12,.19,.13,.44,.25,.67,.34,.74,.42,1.58,.76,2.32,1.22,.8,.55,1.35,1.2,1.71,1.94,1.35,2.76-.13,6.87-3.04,7.78-.86,.27-1.75,.38-2.63,.34-2.47-.13-4.42-.84-6.05-2.53-.4-.4-.27-1.1-.02-1.58,.67-1.29,1.26-2.38,1.83-2.93,.44-.44,.55-.4,1.07-.02,1.07,.76,1.64,1.35,2.78,1.71,1.03,.32,1.31-.57-.29-1.79-.84-.63-1.81-1.12-2.68-1.75-.51-.38-.95-.8-1.37-1.26-1.81-2.13-1.18-4.95,.51-6.55,2.53-2.36,7.42-1.29,10.24-.59,.7,.27,.21,1.18,.06,1.67-.32,.97-.61,1.88-.93,2.8Z" fill="#ff9826"/><path d="M127.47,19.88c.04,2.57,.13,5.1,.15,7.67,0,1.26-.46,1.71-1.71,1.71s-2.4-.04-3.6-.13c-.25,0-.49-.04-.74-.11-.46-.13-.65-.34-.65-.82-.02-.38,0-.8,0-1.2v-9.19h-1.37c-.55,0-1.14,.02-1.75-.02-.76-.1-1.16-.51-1.2-1.31-.04-1.31-.04-2.66-.02-3.98,.02-.95,.44-1.29,1.37-1.26,3.67,.02,7.31,.04,10.98,.08,.4,0,.82-.04,1.22-.06,.7-.04,1.14,.25,1.2,.93,.08,.44,.02,.97,.02,1.43-.02,.97-.04,1.92-.13,2.84-.08,.8-.27,.93-1.12,.95-.84,.02-1.71,.08-2.65,.15v2.32Z" fill="#ff9826"/></g></g></g></svg>