<?xml version="1.0" encoding="UTF-8"?><svg id="Capa_2" xmlns="http://www.w3.org/2000/svg" xmlns:xlink="http://www.w3.org/1999/xlink" viewBox="0 0 1429.44 1417.89"><defs><radialGradient id="Degradado_sin_nombre_26" cx="712.72" cy="708.95" fx="712.72" fy="708.95" r="708.45" gradientUnits="userSpaceOnUse"><stop offset="0" stop-color="#fff"/><stop offset="1" stop-color="#005fbc"/></radialGradient><clipPath id="clippath"><circle cx="712.72" cy="708.95" r="708.45" fill="none"/></clipPath></defs><g id="Capa_2-2"><circle cx="712.72" cy="708.95" r="708.45" fill="url(#Degradado_sin_nombre_26)" stroke="#0071bc" stroke-miterlimit="10"/><g clip-path="url(#clippath)"><g><path d="M1000.94,1134.59s-340.67,123.72-439.58,123.87c-79.17,.12-59.15-246.61-55.19-275.49,1.13-8.27,.99-16.6,1.42-24.93,15.71-307.73-69.11-263.85-101.23-491.42-32.53-230.52,94.61-328.52,159.49-348.48,26.74-8.23,43.02-14.6,86.65-20.97,47.27-6.9,199.01-16.18,285.8,153.36,96.74,188.99,123.81,302.93,84.89,353.84-38.93,50.9-135.62,70.39-118.33,187.71,8.86,60.08,96.09,342.52,96.09,342.52Z" fill="#fff" stroke="#fff" stroke-miterlimit="10"/><path d="M415.96,311.78s14.97,222.49,80.85,301.34c65.88,78.85,63.38,249.38,88.72,391.56,27.52,154.37,49.87,235.31,106.3,218.53,88.07-26.18,8.6-286.45,59.5-290.57,50.9-4.12,164.85,238.56,164.85,238.56l42.4-21.59s-116.26-329.42-92.57-421.92c.64-2.48-28.01-15.97-47.42-34.72-24.47-23.65-40.89-53.55-39.7-56.45,2.88-7.03,98.9,61.29,103.2,55.21l33.96,4.9s-18.98,50.24-12,83.18c6.99,32.94,96.9,354.79,96.9,354.79,0,0-403.69,135.7-445.61,128.54-41.92-7.16-60.52-190.89-55.53-249.77,4.99-58.88,17.97-117.77,8.98-209.6-8.98-91.83-72.86-192.64-76.86-218.59-3.99-25.95-55.89-190.46-15.97-273.39Z" opacity=".1"/><path d="M264.58,218.53c6.14-11.97,16.03-22.31,25.45-31.92,21.38-21.81,43.08-39.73,76.02-57.58,40.33-21.85,91.71-34.3,146.72-41.92,36.81-5.1,67.3-7.73,106.8-7.98,19.96-.13,59.83,2.42,67.68,3.52,25.39,3.57-5.85,12.36-8.29,17.94l9.33,8.08-3.24,31.65c-.42-.04-24.35-2.38-60.22-1.77l-1.96,23.18c-15.22-1.28-30.46-1.15-45.59,.11l.04,3.02h.09c-.14,0-5.27,.12-13.91,1.06-10.02,6.97-34.35,20.44-48.54,31.55-19.3,15.11-32.4,25.01-51.81,42.44-14.46,12.99-25.34,26-46.8,47.87l-16.53,20.99c-19.15,17.04-50.26,3-41.94-14.56,0,0-23.2,35.16-49.74,16.67-20.96-14.6-9.5-26.58-7.5-34.32-14.76,11.24-20.28,10.33-25.77,9.33-6.17-1.13-12.16-6.45-15.37-10.48-5.55-6.97-5.04-21.89-3.76-29.11,1.27-7.17,6.4-23.07,8.82-27.78Z" fill="#1e1e1e"/><path d="M568.41,1280.61c-16.09,1.87-45.14-20.15-52.76-34.45h0c-8.65-16.23-13.89-34.05-15.46-52.38-9.44-110.01-1.73-366.93-10.85-416.49-8.99-48.87-22.52-83.68-38.72-122.41-19.76-47.26-42.89-88.16-55.15-158.38-9.52-54.5-7.6-121.58,.41-168.66,6.95-40.86,23.73-79.21,42.9-112.24,35.97-61.98,84.76-95.13,118.42-105.49,6.23-1.92,12.07-3.91,18.26-6.02,20.01-6.82,40.71-13.88,74.87-18.37,94.78-12.46,227.09,9.78,310.74,186.44,44.75,94.5,71.01,163.37,80.77,216.75,9.65,52.8,1.3,90.71-20.58,119.32-11.24,14.7-26.5,26.33-42.67,38.64-41.46,31.59-72.2,82.89-61.81,135.49,14.46,73.22,54.35,207.52,81.42,280.68,10.75,29.04,18.59,59.07,23.29,89.67h0s-10.13,3.29-10.13,3.29l-442.95,124.6Zm419.94-151.06l-48.39-163.83c-18.65-43.06-24.12-49.49-41.02-126.65-9.85-44.97-10.97-114.29,6.36-144.46,15.12-26.34,42.28-45.22,63.12-61.09,15.24-11.61,29.64-22.58,39.5-35.48,18.8-24.58,21.72-58.3,12.98-106.1-9.35-51.19-33.28-120.73-76.77-212.59-36.67-77.44-87.64-130.57-148.01-157.94-31.97-14.49-65.25-19.12-102.81-19.12-13.29,0-26.89,2.68-40.79,4.51-32.51,4.27-52.4,6.64-71.64,13.19-6.03,2.06-12.27,4.18-18.74,6.17-46.76,14.39-87.86,61.71-108.84,97.87-18.16,31.29-29.84,66.87-36.45,105.75-7.7,45.26-3.74,94.97,4.8,147.76,12.1,74.82,31.26,119.21,50.65,165.57,16.55,39.59,31.74,76.36,42.4,126.73,14.56,68.85,3.6,112.69,3.68,193.64l-1.27,68.19c-1.47,10.7,19.99,198.23,31.17,210.68l440.08-112.79Z" fill="#1e1e1e"/><path d="M1055.05,537.36c-.32,.43-.99,.02-.74-.45,12.72-23.96,75.66-129.79,169.92-76.48,53.56,30.29,20.42,84.32-19.29,98.63-16.7,6.02-46.38,3.38-46.38,3.38l24.95,7.43c81.85,34.93,51.79,83.16,14.97,118.88-44.58,43.25-97.82,44.03-144.73,32.05-46.91-11.98-98.07-23.18-149.95-24.72-44.58-1.33-76.97-15.81-110.78-52.05-31.45-33.71-15.57-64.5-1.89-100.77,6.5-17.22,9.65-33.96,14.97-51.9,10.76-36.26,43.7-54.9,66.73-56.31,6.91-.42,17.28-.08,24.14-.95,21.37-2.7,27.32-5.43,46.39-24.09,27.54-26.95,132.42,92.96,170.08,55-1.55,1.8-23.61,25.39-58.41,72.36Z" fill="#ff9827"/><circle cx="762.12" cy="369.08" r="22.96" fill="#1e1e1e"/><circle cx="931.36" cy="337.13" r="15.19" fill="#1e1e1e"/><circle cx="931.32" cy="336.41" r="4.63" fill="#fff"/><circle cx="762.53" cy="367.42" r="6.51" fill="#fff"/><path d="M711.26,339.15c-1.11,.91-2.66-.39-1.96-1.65,4.52-8.2,13.95-22.21,26.73-24.82,17.95-3.66,31.82,4.59,38.74,10.09,1.1,.87,.18,2.62-1.16,2.22-11.16-3.31-36.33-7.09-62.34,14.16Z" fill="#1e1e1e"/><path d="M905.86,310.58c-.89,.45-1.75-.66-1.09-1.42,4.31-4.9,12.82-13.02,21.9-12.87,12.76,.2,20.96,7.9,24.83,12.68,.62,.76-.27,1.81-1.12,1.33-7.09-3.93-23.65-10.27-44.52,.27Z" fill="#1e1e1e"/><path d="M701.41,104.5c-1.41-2.7-16.7-2.27-19.74-2.06-20.51,1.42-104.12-2.92-183.32,16.99,0,0-.01,0-.02,0-83.29,17.16-172.89,55.95-217.32,140.99,0,0,92.11-78.26,207.86-113.97,.14,.03,.28,.06,.43,.08-53.54,18.7-117.44,54.7-154.77,123.73,0,0,81.34-54.87,131.65-83.65-51.01,41.1-72.78,93.67-72.78,93.67,114.7-102.09,166.78-112.57,166.78-112.57l65.45,12.73,77.57-50.9-1.79-25.03Z" fill="#fff"/><path d="M416.83,241.44s80.65-67.75,143.36-73.73l-22.85,9.4c-4.17,1.71-20.24,9.75-24.06,12.14-17.23,10.82-54.52,36.01-57.4,38.25l-62.71,52.78s9.93-27.07,23.66-38.84Z" fill="#393939" opacity=".15"/><path d="M466.18,186.61l-131.65,83.65s19.3-22.12,38.01-38.67c2.73-2.41,48.91-28.3,52.32-29.57l41.32-15.41Z" fill="#393939" opacity=".15"/><path d="M489.3,146.53l-49.89,17.44c-4.04,1.55-36.36,17.42-40.14,19.54-17.44,9.82-36.01,19.11-46.57,26.04l-71.69,49.73s20.76-20.6,38.01-38.67c10.57-11.06,34.2-25.59,49.24-34.12,7.68-4.35,42.13-19.06,50.57-21.64l70.46-18.32Z" fill="#393939" opacity=".15"/><path d="M813.82,663.69s61.35,14.55,122.2,16.67c60.85,2.13,108.53,17.65,152.81,20.37,44.28,2.72,95.76-31.72,95.76-31.72,0,0,46-30.52,39.18-73.28,0,0,32.61,40.88-25.29,93.01s-128.26,35.66-128.26,35.66l-92.82-21.71-82.42-7.07s-60.36-12.27-81.16-31.94Z" fill="#1e1e1e" opacity=".2"/><path d="M1054.8,538.02s66.31-75.78,130.14-66c26.32,4.03,60.2,28.32,47.98,54.27l19.21-16.72-27.91-49.14-53.69-15.99-57.08,20.56-58.65,73.02Z" opacity=".2"/><path d="M1211.47,564.72c25.19-11.49,45.37-31.97,47.55-57.74,1.78-21.08-8.77-40.6-31.33-53.36-29.77-16.84-59.4-19.66-87.65-11.63-12.23,3.48-27.49,12.52-38.5,20.82-1.42,1.07-3.23,1.45-4.96,1.04-8.1-1.95-27.1-4.05-38.73-9.62-15.9-7.61-27.96-14.47-46.12-26.11-16.06-10.3-21.35-15.73-34.69-21.61-6.54-2.88-24.84-12.98-41.81,2.5-18.56,16.92-14.14,17.29-33.14,19.7-3.69,.47-12.39,1.43-17.4,1.5-3.5,.05-8.57,.1-11.48,.28-14.07,.86-31.59,7.47-44.68,17.31-15.45,11.61-21.86,23.72-27.3,42.05-1.99,6.72-5.85,16.62-7.49,22.96-2.82,10.91-3.04,14.36-6.74,27.45-.86,3.03-3.34,12.36-4.49,15.22-14.47,35.89-22.64,67.49,10.89,98.15,39.76,36.35,61.41,44.45,133.12,50.42,49.87,4.15,81.1,14.1,125.04,25.32,17.9,4.57,34.94,5.97,51.07,5.97,39.6,0,66.46-13.16,98.46-39.36,30.82-25.23,46.05-56.39,41.71-79.77-3.14-16.91-11.33-32.12-36.84-45.01l-1.86-4.21c2.95-.81,6.32-1.79,7.36-2.26Zm-19.14,117.68c-35.27,30.53-80.12,44.2-136.39,29.83-44.87-11.46-94.42-17.63-151.87-22.34-42.71-3.51-74.06-14.13-105.5-47.83-25.1-26.9-22.53-47.09-9.98-79.52,1.13-2.93,6.84-18.96,7.97-21.96,4.28-11.36,6.85-19.4,9.67-30.28,1.6-6.19,5.78-16.09,8.32-22.29,11.31-27.61,25.86-35.11,34.94-40.76,9.45-5.88,27.33-7.82,30.11-7.82,4.33,0,15.79-.31,20.46-.83,8.31-.93,22.21-.91,38.76-18.96,4.46-4.87,9.9-8.87,15.47-8.87,9.65,0,20.22,7.27,24.06,9.53,13.2,7.8,21.03,13.54,36.49,23.46,18.87,12.1,26.66,20.02,44.63,27.15,2.63,1.04,20.21,7.71,27.1,9.5,1.68,.44,3.2,3.38,2.04,4.68-18.98,21.36-32.73,45.23-35.76,51.17-.37,.73-.1,1.62,.61,2.03,.46,.26,1.03,.15,1.35-.28,11.85-15.94,29.17-33.39,45.24-51.79l3.64-3.36c6.85-6.32,14.29-11.95,22.23-16.83l2.57-1.58,3.86-1.64c8.33-3.53,17.08-5.98,26.05-7.14,3.23-.42,5.85-.61,7.29-.57,14.91,.38,32.8-.37,52.43,13,17.47,11.9,23.79,23.98,22.05,39.95-2.03,18.56-21.21,38.43-44.4,40.02,0,0,35.22-38.63-5.97-49.96-68.82-18.93-120.06,132.96-219.87,151.42,0,0-45.91,10.36-120.2,.26-.24-.03-.34,.29-.11,.37,8.31,2.92,49.57,12.84,89.7,11.18,85.14-3.53,87.02,11.48,122.77,18.63,30.36,6.07,71.25,17.55,114.12-23.29,18.2-17.33,19.1-47.5,8.81-69.49-.27-.57-.54-1.14-.83-1.71-1.56-3.13,2.47-3.96,8.59-1.64,3.87,1.95,7.41,3.92,10.62,5.93,7.19,5,14.5,11.75,18.22,17.41,2.12,3.76,3.41,7.8,3.82,12.22,1.6,17.08-6.05,39.56-33.11,62.97Z" fill="#1e1e1e"/></g></g><g><g><path d="M237.42,1349.95c-8.52,0-18.98-2.01-30.26-8.65-5.77-3.37-11.29-6.98-16.49-10.78l-23.67,2.74c-3.6,.34-7.22,.72-10.85,1.1-12.23,1.29-24.87,2.62-38.23,2.68h-.5s-.5,0-.5,0c-30.09-.55-55.04-8.91-74.14-24.85-20.44-17.05-32.85-41.41-36.87-72.38-5.99-46.18-7.44-93.76-4.3-141.46,.5-12.98,3.03-26.9,7.52-41.39l.48-1.46c15.18-43.38,47.23-72.5,90.26-82.01,21.8-4.84,43.71-7.86,64.89-10.77,8.4-1.16,16.33-2.25,24.21-3.44l.46-.07c22.13-3.1,44.64-.94,63.38,6.11,28.01,10.52,46.91,31.21,53.22,58.25l.04,.18c9.26,40.43,8.13,103.45,6.03,169.92-.26,8.31-.49,15.49-.63,21.65v.15c-.2,7.4-1.15,14.95-2.83,22.59,3.97,6.45,6.52,13.69,7.42,21.27,1.55,13.13-1.97,26.45-9.92,37.49l-.3,.41c-1.41,1.91-2.82,3.85-4.24,5.79-5.84,8.03-12.46,17.13-19.96,25.5-9.87,11.01-21.19,17.87-33.67,20.39-3.02,.61-6.58,1.05-10.56,1.05Zm-147.33-267.08c-2.12,7.03-3.38,13.76-3.55,19.01l-.07,1.46c-2.82,42.39-1.57,84.63,3.74,125.52,2.65,20.38,10.51,22.82,27.76,23.18,8.99-.08,18.85-1.12,29.29-2.22,3.78-.4,7.56-.79,11.31-1.15l33.29-3.87c5.89-.87,14.15-1.11,23.27,1.6l6.33-14.3c3.15-7.12,4.89-13.65,5.04-18.9,.15-6.49,.39-14.14,.65-22.24,1.33-42.03,3.54-111.68-3.39-145.78-3.56-1.57-12-3.25-22.31-1.84-8.37,1.27-16.87,2.44-25.1,3.57-19.49,2.68-39.64,5.46-58.1,9.56-9.47,2.09-21.14,6.98-28.17,26.39Zm64.84,165.68c-16.3,0-28.03-5.83-35.35-11.15-12.65-9.2-21.01-23.41-23.55-40.03-4.15-26.57-2.71-52.37-.45-76.35,1.23-31.11,24.83-64.68,62.41-66.82,30.3-2.12,56.75,17.26,64.52,47.41l.67,2.59,.33,2.57c.05,.33,.11,.65,.16,.97,.44,2.57,1.18,6.87,1.18,12.02l-.05,2.01c-.18,3.7-.34,7.42-.51,11.16-.8,18.04-1.63,36.68-3.68,55.76-3.36,31.92-26.39,55.77-57.35,59.37h0c-2.9,.34-5.68,.49-8.34,.49Z" fill="#1e1e1e"/><path d="M392.04,1305.79c-3.53,0-7.07-.09-10.64-.27-14.22-.31-35.05-1.48-54.38-7.66l-.13-.04c-46.59-15.06-75.27-50.13-80.78-98.77-1.39-11.33-2.96-24.14-2.96-37.65v-.42c.26-25.7,1.1-51.58,1.92-76.62,.26-8.02,.52-16.03,.76-24.01,.34-15.4,1-30.84,1.64-45.79,0-.09,0-.18,0-.27-.07-4.69-.21-12.96,3-22.39,10.11-35.07,36.75-42.3,51.94-43.46l.26-.02c13.57-.95,27.3-2.48,41.83-4.09,7.16-.8,14.57-1.62,21.92-2.36,17.91-2,30.81,2.66,39.52,8.26,9.47-10.31,22.78-17.31,38.87-19.68,3.14-.51,6.32-1.05,9.51-1.58,11.5-1.93,23.4-3.92,35.55-5.35,1.16-.16,2.31-.33,3.45-.5,9.41-1.38,21.13-3.1,33.48-.72,23.51,4.52,40.39,22.24,44.09,46.28,8.57,54.75,10.59,115.78,5.7,171.9-3.48,47.44-15.3,86.65-61.4,123.67l-.89,.71-.93,.67c-37.14,26.68-77.91,40.16-121.33,40.16Zm-39.08-88.87c10.13,3.22,25.71,3.53,30.83,3.63l1.41,.05c13.75,.74,26.89-.75,39.6-4.5-.38,.08-.76,.16-1.15,.23l-.86,.16c-31.74,5.46-59.93-9.61-71.81-38.38l-.59-1.42-.48-1.46c-3.64-11-5.48-22.76-5.48-34.94v-.31c.12-16.39,.56-32.98,1-49.03,.54-20.13,1.09-40.73,1.01-61.34-4.83,.53-9.7,1.06-14.61,1.55-.43,10.42-.81,20.93-1.04,31.21v.36c-.25,8.11-.52,16.24-.78,24.38-.8,24.48-1.62,49.79-1.87,74.46,.02,8.34,1.15,17.54,2.35,27.28l.06,.5c1.75,15.72,7.41,22.68,22.42,27.55Zm125.79-73.96c-.08,6.33-1.15,11.83-1.93,15.88-.13,.68-.27,1.36-.39,2.03l-.23,1.3-.31,1.28c-4.86,20.02-17.19,36.52-33.33,45.81,6.86-3.29,13.62-7.29,20.29-12.01,20.33-16.57,26.61-30.38,28.99-63.16l.05-.64c3.54-40.33,3.02-83.52-1.36-124.21-4.97,.72-10.04,1.53-15.09,2.36,.37,13.04,.94,26.06,1.53,39.62,1.29,29.46,2.62,59.92,1.79,91.73Z" fill="#1e1e1e"/><path d="M694.27,904.05c3.34-.44,6.67-.89,10.01-1.36,29.55-4.17,54.63,8.66,68.73,35.21,3.72,7.01,5.55,13.57,6.89,18.37,.22,.78,.43,1.56,.67,2.34l.45,1.64c9.46,37.44,17.68,71.26,25.15,103.38,6.08,25.41,11.04,50.53,15.83,74.83,1.67,8.44,3.39,17.18,5.12,25.7,.87,4.24,2.15,8.77,3.5,13.57,.64,2.28,1.28,4.54,1.89,6.8l.39,1.59c1.13,4.96,2.29,10.9,2.39,17.65,.87,28.38-17.22,50.44-45.29,55.04l-1.95,.27-3.03,.35c-14.56,1.91-28.84,4.05-43.95,6.32-8,1.2-16.04,2.41-24.16,3.58-5.9,.86-24.06,3.52-41.15-7.57-1.22-.79-2.41-1.64-3.55-2.52-9.27,10.88-22.57,17.93-38.13,19.74l-.54,.06c-25.43,2.63-51.19,5.62-76.1,8.52-2.63,.31-5.23,.46-7.79,.46-14.19,0-27.12-4.66-37.01-13.46-11.35-10.11-17.6-24.6-17.6-40.8s1.26-28.26,3.97-40.06c13.1-64.12,26.43-126.55,36.58-173.86,3.11-15.19,7.58-28.69,11.91-41.74,1.08-3.27,2.17-6.53,3.22-9.81l.07-.22c10.8-33.02,32.87-51.03,67.48-55.05,7.38-.86,14.75-1.69,22.09-2.53,2.28-.26,4.55-.52,6.81-.77l47.1-5.66Zm-63.54,93.09c-.84,2.57-1.69,5.13-2.54,7.7-3.73,11.25-7.25,21.87-9.35,32.19l-.09,.45c-9.5,44.21-21.77,101.72-34.02,161.37,7.05-.8,14.14-1.59,21.23-2.36,.45-2.99,.88-6.03,1.33-9.14,.68-4.75,1.39-9.66,2.22-15l2.19-14.1,2.38-41.71c1.83-32.11,6.99-63.44,12.28-92.52l4.91-26.94c-.18,.02-.36,.04-.53,.06Zm94.89,156.57l2.64,11.58c.63,2.75,1.01,5.18,1.35,7.33,.24,1.55,.46,2.88,.72,4.1l.35,1.6,.23,1.62c.06,.45,.12,.9,.19,1.35,4.09-.61,8.22-1.23,12.38-1.85-1.67-8.26-3.3-16.52-4.88-24.53-4.64-23.52-9.44-47.84-15.14-71.64l-.06-.27c-3.93-16.91-8.08-34.31-12.52-52.49,2.08,15.67,4.25,31.13,6.52,47.41,1.5,10.68,3.01,21.5,4.52,32.55l5.89,42.97-2.2,.26Zm-9.52-166.84s-.02,0-.03,0c0,0,.02,0,.03,0Z" fill="#1e1e1e"/><path d="M898.16,1252.65c-31.57,0-61.15-10.06-85.59-29.47-20.17-14.91-35.76-33.5-46.37-55.27-9.9-20.32-15.44-43.51-16.49-68.95-.19-1.95-.29-3.7-.37-5.19-.06-1-.11-1.95-.17-2.55l-.21-2.13v-9.17c-.71-25.12,2.95-49.91,11.16-75.72,10.24-35.27,30.17-65.59,59.25-90.11l.1-.09c37.1-31.1,82.11-44.41,126.71-37.47,40.67,6.32,76.54,29.63,98.49,63.99,15.19,23.03,12.97,49.94-6,72.11l-.64,.73c-7.2,8.04-14.42,15.93-21.41,23.55-6.65,7.26-12.95,14.15-19.25,21.16,.19,.2,.38,.4,.57,.6,12.26,12.79,25.14,27.35,39.35,44.51,16.86,19.97,15.77,36.69,15.41,42.2-1.05,16.07-9.07,28.14-15.93,36.86l-.33,.42c-27.65,34.22-65.03,57.81-105.25,66.42-11.16,2.39-22.21,3.57-33.03,3.57Zm-63.85-161.94l.22,1.76,.07,1.98c1.22,36.37,17.07,52.04,28.9,60.67l.83,.61,.8,.65c24.41,19.7,63.78,12.7,93.48-14.62-.81-.93-1.6-1.85-2.4-2.76-28.46,19.6-52.7,15.26-64.89,10.73-20.93-7.76-36.03-26.5-41.43-51.4l-.47-2.49c-.39-2.24-1.01-5.82-1.14-10.4-.12-1.92-.29-3.95-.46-6.09-.78-9.81-1.76-22.02,.2-35.6l.02-.15c2.29-15.42,10.84-53.15,40.77-70.51,16.47-9.55,35.73-10.93,54.32-3.9,4.99,1.8,9.73,4.02,14.17,6.65,1.06-1.16,2.13-2.33,3.2-3.5-7.73-6.14-17.05-10.21-27.37-11.81-20.02-3.12-40.98,3.49-59.02,18.59-16.1,13.59-27.02,30.13-32.47,49.16l-.39,1.28c-5.42,16.88-7.81,32.71-7.32,48.41l.02,1.33v5.81c.12,1.49,.19,2.8,.25,3.94,.03,.58,.06,1.14,.1,1.68Zm144.79,28.04s0,0,0,0c0,0,0,0,0,0Z" fill="#1e1e1e"/><path d="M1034.5,1230.28c-8.19,0-23.26-1.46-35.92-13.59-15.39-14.75-15.39-33.83-15.39-41.02v-107.14c-.33-47.71-.33-95.67-.33-142.06,0-13.41,0-31.77,14.44-47.23,14.23-15.24,32.19-16.68,45.53-17.57,20.44-2.05,39.76-3.98,59.47-6.59,7.13-.99,26.95-3.64,44.2,8.6,4.57-5.63,10.83-11.44,19.52-15.38,20.32-9.23,38.73-1.91,45.66,.85l.65,.26c20.08,8.38,38.97,17.33,59.74,27.3,17.42,7.53,25.44,19.71,29.12,28.73,5.64,13.83,4.97,28.89-1.98,44.76l-1.21,2.75-1.58,2.55c-1.52,2.45-3.01,5-4.6,7.7-2.97,5.05-6.04,10.28-9.71,15.69l-.46,.66c-11.22,15.88-22.36,32.1-33.13,47.79-1.24,1.8-2.48,3.61-3.73,5.43,10.35,7.88,20.87,15.94,31.01,24.05,6.73,5.36,11.96,11.41,16.59,16.76l1.6,1.85,1.4,2.05c10.43,15.3,10.82,29.82,9.32,39.31-1.47,9.24-6.23,22.76-20.61,34.7l-.63,.51c-9.85,7.87-20.03,15.85-29.87,23.57-11.34,8.89-23.07,18.08-34.34,27.14l-1.62,1.24c-20.4,14.84-46.76,14.54-67.16-.77l-.83-.62c-8.89,11.44-22.4,18.74-39.41,20.71l-.6,.07c-22.41,2.28-45.59,4.64-69.25,6.7l-1.9,.12c-1.01,.04-2.36,.1-3.99,.1Zm33.71-53.81h0s0,0,0,0Zm-.34-231.89c0,40.6,.04,82.2,.33,123.5v.3s0,73.72,0,73.72c2.56-.25,5.12-.5,7.66-.76-.13-2.88-.26-5.82-.34-8.83l-.02-1.22v-44.48l18.85-8.47,20.09-22.45-24.83-46.72c-7.23-9.78-8.44-19.85-8.44-25.48l.04-1.84c.55-12.75,.9-25.9,1.22-38.8-4.88,.53-9.73,1.04-14.56,1.53Zm110.02,168.03c2.74,2.72,5.44,5.39,8.1,7.99,5.1-4.02,10.18-8,15.18-11.92,.49-.39,.99-.77,1.48-1.16-5.38-4.13-10.81-8.25-16.15-12.31-3.89-2.95-7.78-5.91-11.65-8.86-4.08-2.81-7.37-5.66-9.84-7.8-.94-.82-2.24-1.94-2.74-2.3l-33.43-24.39,12.63-18.31-18.06,22.42,27.04,27.76c5.15,5.28,10.22,10.68,15.13,15.9,4.29,4.56,8.34,8.88,12.31,12.98Zm23.61-175.18c-6.97,12.7-14.48,26.42-21.95,40.21,8.59-12.51,17.4-25.34,26.39-38.18-1.49-.68-2.97-1.36-4.45-2.03Zm11.68-21.05s0,0,0,0c0,0,0,0,0,0Zm-129.86-6.46h0s0,0,0,0Z" fill="#1e1e1e"/><path d="M1304.58,1199.95c-30.17,0-54.52-21.59-57.59-51.98l-.13-1.52c-.79-12.13-.79-24.51,0-36.79,.46-7.47,2.23-14.48,5.14-20.89-2.66-5.86-4.4-12.35-5.03-19.31-1.71-16.3-2.74-32.51-3.73-48.2-3.33-33.71-5.85-63.82-7.71-92.05-.61-9.01-.53-17.72-.46-25.41,.02-2.25,.04-4.48,.04-6.66l.02-1.24c.29-9.95,1.71-22.95,10.15-35.25,11.22-16.34,27.98-21.28,34.43-23,15.61-4.67,31.07-7.88,46.04-10.97l1.09-.23c10.12-2.04,19.92-2.91,28.57-3.67,3.76-.33,7.31-.65,10.59-1.03l1.16-.12c6.66-.59,26.92-2.38,43.8,12.23,16.87,14.6,18,34.87,18.37,41.54l.1,1.79-.05,1.79c-2.38,83.77-5.16,126.62-8.04,166.41-.26,4.99-1.28,9.08-2.03,11.63-1.29,5.87-3.05,12.29-5.77,18.66,3.69,7.84,5.75,16.9,6.15,27.1,.33,4.6,.19,8.62,.09,11.37-.01,.4-.03,.78-.04,1.11,0,7.29-.39,12.98-.79,18.18l-.1,1.34-.19,1.33c-4.35,30.93-24.34,52.41-53.49,57.46l-.7,.12c-19.02,2.97-37.65,5.02-55.38,6.09-1.52,.11-3.03,.16-4.52,.16Zm15.46-285.07c.03,3.01,.12,5.92,.3,8.7,1.81,27.55,4.28,57,7.55,90.07l.12,1.51c.4,6.38,.79,12.6,1.22,18.72,2.62-.24,5.21-.51,7.77-.83,2.25-31.46,4.42-66.13,6.37-123.22l-.4,.08c-7.91,1.64-15.57,3.22-22.94,4.96Z" fill="#1e1e1e"/></g><g><path d="M270.32,1257.82c4,3.53,5,9.08,1.33,14.17-7,9.48-14,19.62-21.66,28.17-7.33,8.18-13.33,9.21-21.33,4.48-6.66-3.89-13.33-8.45-19.33-13.41-3.67-3.57-7-5.18-11.66-4.31-11.33,1.32-23.33,2.71-34.65,4.03-14.99,1.41-30.32,3.52-45.32,3.6-39.65-.72-64.31-19.18-69.64-60.21-5.66-43.66-7-88.82-4-133.82,.33-10.37,2.67-21.3,5.66-30.98,10.33-29.52,30.66-48.21,59.31-54.54,28.32-6.29,57.98-9.4,86.3-13.7,27.66-3.88,62.65,3.38,69.31,31.93,10.33,45.12,5.33,138.33,4.33,181.09-.33,12.37-4,24.46-8.66,35,2,2.1,6.66,4.56,10,8.5Zm-111.96-51.96c10.33-1.2,18.66-8.83,19.99-21.65,2.33-21.6,3-43.33,4-64.44,0-2.33-.67-4.92-1-7.55-2.67-10.35-10.66-16.42-20.66-15.59-14,.63-22.66,15.63-22.66,26.96-2.33,24.26-3.33,46.04,0,67.31,1.67,11.13,9,16.28,20.33,14.96Z" fill="#ffbd29"/><path d="M390.27,1161.9c4.33,10.49,13.33,14.78,25.32,12.72,8.66-1.67,16.33-10.23,18.99-21.2,.67-3.74,1.67-7.86,1.67-11.19,1.33-50.14-3-97.28-3.67-146.18-1-13.55,4.67-21.53,18.66-23.49,14.33-2.33,29.32-5.08,43.99-6.78,15.99-2.19,31.32-5.97,33.66,9.42,8,51.05,10,108.8,5.33,161.98-3,41.33-12.66,67.45-45.65,93.94-32.66,23.46-68.31,33.93-105.63,31.94-14.66-.29-29.99-1.51-42.99-5.67-30.32-9.8-47.98-30.41-51.65-63.3-1.33-10.84-2.67-21.68-2.67-32.68,.33-33.36,1.67-66.83,2.67-99.94,.33-15.37,1-30.77,1.67-46.18,0-3.33-.33-7.29,1-10.45,2.67-10.31,6.33-13.4,14.66-14.03,21.66-1.52,43.65-4.41,65.31-6.59,11.66-1.36,16.99,3.02,17.33,14.31,2,48.42-1,95.41-1.33,141.77,0,7.33,1,14.54,3.33,21.6Z" fill="#ffbd29"/><path d="M651.51,1178.85c-2,12.89-3.33,23.71-5.33,35.27-1,4.78-1.67,9.19-3.67,12.75-2,5.9-6.33,9.07-13.33,9.88-25.66,2.65-51.32,5.63-76.64,8.58-9.33,1.08-14.99-2.59-14.99-11.58,0-10.66,.67-21.07,3-31,12-58.71,24.32-116.78,36.65-174.2,3.33-16.38,9-31.7,14-47.28,5.66-17.32,14.33-23.99,31.99-26.04,29.32-3.41,58.31-6.45,86.97-10.44,13.33-1.88,20.33,3.63,25.32,13.05,2,3.77,3,8.31,4.33,12.83,8.66,34.31,16.99,68.33,24.99,102.72,8,33.39,14,66.35,20.66,99.23,1.67,8.14,4,15.53,6,22.96,.67,2.92,1.33,6.17,1.33,9.17,.33,7.29-2.67,10.97-9.66,12.12-1.33,.16-2.33,.27-3.33,.39-22.99,3.01-45.65,6.64-68.98,10.02-11,1.61-15-.92-17.33-11.31-2.33-10.39-3.33-20.6-4.66-30.11-1-4.55-1.33-8.17-2-11.1-12.66,1.47-23.99,2.79-35.32,4.11Zm5-59.89c9-1.05,15.66-1.82,23.33-2.71-4-29.19-8-56.71-11.66-84.61-5.33,29.28-10,58.14-11.66,87.32Z" fill="#ffbd29"/><path d="M800.78,1016.55c8-27.92,23.99-51.44,45.98-69.99,56.32-47.2,129.62-34.39,162.28,17.12,5,7.42,3.67,13.9-2.67,21.3-14,15.62-27.99,30.58-41.65,45.83-7,6.81-10.33,6.87-14-1.37-4.33-9.83-12.33-16.89-22.33-20.4-24.99-9.76-35.65,22.8-38.32,40.77-1.67,11.52,0,22.66,.67,33.91,0,2,.33,3.63,.67,5.59,5,23.08,22.66,28.35,42.99,13,5-4.25,9.33-8.75,14.33-13.33,7.66-7.55,11.66-8.35,18.33-1.13,12.66,13.19,25.33,27.71,37.65,42.61,8,9.4,7.33,14.48-1.33,25.48-43.98,54.43-117.29,71.95-164.94,33.5-30.32-22.13-44.98-53.75-46.32-93.58-.33-2.63-.33-5.63-.67-8.92v-7.66c-.67-21.25,2.67-41.96,9.33-62.73Z" fill="#ffbd29"/><path d="M1118,1131.29c.33,11.62,1.33,23.17,1,35.54-.67,9.74-4,13.13-13.66,14.25-22.99,2.34-45.65,4.64-68.64,6.65-9,.38-11-1.39-11-12.05v-107.29c-.33-47.61-.33-94.59-.33-141.91,0-19.99,1-21.11,20.99-22.43,20.66-2.07,40.99-4.1,61.65-6.83,14.66-2.04,18.66,1.16,17.66,16.94-.67,23.07-1,46.43-2,69.54,0,.33,1,.88,1.67,2.14,2.67-3.31,4.33-6.5,7-10.14,12-22.39,24.66-45.52,36.99-67.94,1.67-3.19,3.33-7.05,5.67-10.32,6.66-11.44,9.33-13.41,20.99-8.77,19.99,8.34,39.65,17.72,58.65,26.84,8.33,3.36,9.66,8.54,5.67,17.67-4.67,7.54-8.66,15-13.33,21.88-18.99,26.87-36.99,53.61-55.65,80.44-1.33,1.49-2,3.56-4,6.46,4.33,3.16,8,7.07,12.33,9.9,16.66,12.72,33.66,25.41,49.65,38.21,3.67,2.91,7.33,7.15,11,11.38,4,5.87,3.67,11.57-3.33,17.38-20.99,16.77-42.99,33.65-64.31,50.79-6,4.36-11.66,3.36-16.66-.39-9.66-8.21-18.99-17.45-28.32-26.7-9-9.28-18.33-19.53-27.66-29.11-.33,.37-1,.45-2,.9v16.99Z" fill="#ffbd29"/><path d="M1377.91,1047.43c-3.67,17.09-8.66,23.67-25.32,26.27-16.66,2.94-32.66,3.46-49.32,4.4-8,.6-13.33-4.45-14-12.7-1.67-15.8-2.67-31.68-3.67-47.56-3-30.31-5.67-60.98-7.67-91.41-.67-9.92-.33-19.95-.33-29.28,.33-11.37,2.33-15.6,13.66-18.58,14.33-4.33,29.32-7.41,43.99-10.44,11.66-2.36,23.99-2.79,35.65-4.14,12-1.06,15.33,1.88,16,13.8-2.33,82.24-5,123.87-8,165.2,0,1.67-1,3.45-1,4.45Zm-1.33,82.79c-1.67,11.86-7,19.47-18.66,21.5-16.66,2.6-33.99,4.62-51.65,5.67-8.66,.67-16-3.81-16.99-13.69-.67-10.25-.67-20.92,0-31.32,.67-10.74,9.66-15.45,18.33-17.46,17.33-3.68,34.66-7.03,51.65-8,13-.51,17.66,4.61,17.99,18.23,.33,3.63,0,7.66,0,10,0,6-.33,10.7-.67,15.07Z" fill="#ffbd29"/></g></g></g></svg>