<?xml version="1.0" encoding="UTF-8"?><svg id="Capa_2" xmlns="http://www.w3.org/2000/svg" viewBox="0 0 159.24 39.53"><g id="Capa_1-2"><g><rect width="159.24" height="39.53" rx="10.4" ry="10.4" fill="#fff"/><g><path d="M38,28.22c0,.7-.17,.78-.88,.82-1.22,.04-2.46,.06-3.75,.11-1.18,.06-1.48-.17-1.5-1.29-.04-2.17-.11-4.3-.13-6.38-.06-2.97-.08-5.9-.15-8.89,0-.23,0-.51,.06-.8,.06-.38,.32-.55,.7-.53,1.54,.02,3.05,.11,4.59,.04,.7,0,1.05,.25,1.33,.84,.91,2.23,1.88,4.42,2.8,6.6,.08,.27,.21,.48,.46,.7-.08-.8-.13-1.58-.17-2.4-.1-1.52-.17-3.08-.27-4.64,0-.17-.02-.34,.02-.51,.08-.34,.25-.61,.67-.61,1.6-.02,3.25-.06,4.85-.06,.63,0,.84,.23,.84,.93,0,1.64-.06,3.29-.06,4.95-.04,.74,.04,1.43,.04,2.15,.02,2.53,.02,5.02,0,7.56,0,.55-.08,1.12-.15,1.67-.08,.48-.25,.63-.78,.67-.44,.06-.91,.02-1.35,.02h-3.79c-.82,0-.88-.06-1.2-.8-.63-1.69-1.26-3.33-1.88-4.99-.06-.17-.19-.34-.32-.55,0,1.81,.02,3.62,0,5.39Z" fill="#ff9826"/><path d="M53.55,18.04c1.29,.13,2.57,.13,3.84,.15,.72,.02,.84,.17,.91,.82,.04,.99,.06,1.92,.08,2.93,0,.42-.17,.65-.61,.72-.42,.06-.8,.06-1.22,.06-.97,.06-1.9,0-2.89,0v.55c1.5,.11,3.03,.06,4.53,.08,.57,0,1.14,.02,1.67,.08,.7,.08,1.03,.4,1.03,1.07,.02,1.22,.02,2.44,0,3.67-.02,.72-.36,1.03-1.14,1.03h-9.63c-.93,0-1.35-.4-1.48-1.31-.08-.82-.17-1.62-.15-2.47,.04-3.98,.1-8.01,.15-12.03,0-.15,0-.29,.04-.46,.13-1.2,.55-1.67,1.79-1.71,1.81-.02,3.56,0,5.37-.02,.78,0,1.64-.06,2.44-.06,.57,0,1.12,.04,1.64,.08,.44,.02,.63,.32,.72,.63,.08,.23,.08,.53,.11,.78v3.29c-.02,.91-.29,1.22-1.22,1.22-1.75-.02-3.48-.06-5.23-.13h-.76v1.01Z" fill="#ff9826"/><path d="M70.43,14.02c.19-.91,.53-1.22,1.41-1.22,1.26,.02,2.51,.11,3.77,.11,.46,0,.72,.21,.78,.61,.21,.97,.36,1.88,.53,2.8,.15,.8,.29,1.9,.57,2.68,.59-2.19,1.07-4.68,1.64-6.85,.23-1.12,.27-.91,1.62-.91,.84,0,1.69-.02,2.53,0,.57,.02,1.12,.08,1.67,.11,.34,.04,.48,.23,.46,.55-.02,.29-.04,.63-.13,.97-1.22,5.04-2.44,10.11-3.67,15.13-.04,.13-.06,.32-.1,.48-.17,.61-.44,.8-1.12,.82-.74,.02-1.45,0-2.23,0s-1.67,0-2.46,.02c-.42,0-.65-.19-.76-.53-.53-1.62-.72-3.46-1.39-5.31-.38,1.9-.65,3.62-1.18,5.27-.13,.38-.44,.55-.84,.55h-4.87c-.48,0-.84-.21-.99-.67-.19-.51-.36-1.03-.44-1.54-.72-3.33-1.45-6.66-2.19-9.97-.27-1.35-.63-2.72-.97-4.09-.08-.34-.13-.74-.11-1.07,0-.44,.19-.61,.65-.61,1.58-.08,3.14-.13,4.7-.15,.65-.02,.76,.04,.89,.74,.51,2.53,.86,4.87,1.1,7.21,.42-1.54,.74-3.83,1.14-5.12Z" fill="#ff9826"/><path d="M91.38,18.04c1.29,.13,2.57,.13,3.83,.15,.72,.02,.84,.17,.91,.82,.04,.99,.06,1.92,.08,2.93,0,.42-.17,.65-.61,.72-.42,.06-.8,.06-1.22,.06-.97,.06-1.9,0-2.89,0v.55c1.5,.11,3.03,.06,4.53,.08,.57,0,1.14,.02,1.67,.08,.7,.08,1.03,.4,1.03,1.07,.02,1.22,.02,2.44,0,3.67-.02,.72-.36,1.03-1.14,1.03h-9.63c-.93,0-1.35-.4-1.48-1.31-.08-.82-.17-1.62-.15-2.47,.04-3.98,.11-8.01,.15-12.03,0-.15,0-.29,.04-.46,.13-1.2,.55-1.67,1.79-1.71,1.81-.02,3.56,0,5.37-.02,.78,0,1.64-.06,2.44-.06,.57,0,1.12,.04,1.64,.08,.44,.02,.63,.32,.72,.63,.08,.23,.08,.53,.11,.78v3.29c-.02,.91-.29,1.22-1.22,1.22-1.75-.02-3.48-.06-5.23-.13h-.76v1.01Z" fill="#ff9826"/><path d="M110.92,16.59c-.19,.55-.36,.63-.91,.48-.82-.21-1.62-.42-2.44-.55-.27-.04-.59,.04-.82,.17-.53,.34-.53,.78-.02,1.12,.19,.13,.44,.25,.67,.34,.74,.42,1.58,.76,2.32,1.22,.8,.55,1.35,1.2,1.71,1.94,1.35,2.76-.13,6.87-3.03,7.78-.86,.27-1.75,.38-2.63,.34-2.47-.13-4.42-.84-6.05-2.53-.4-.4-.27-1.1-.02-1.58,.67-1.29,1.26-2.38,1.83-2.93,.44-.44,.55-.4,1.07-.02,1.08,.76,1.64,1.35,2.78,1.71,1.03,.32,1.31-.57-.3-1.79-.84-.63-1.81-1.12-2.68-1.75-.51-.38-.95-.8-1.37-1.26-1.81-2.13-1.18-4.95,.51-6.55,2.53-2.36,7.42-1.29,10.24-.59,.7,.27,.21,1.18,.06,1.67-.32,.97-.61,1.88-.93,2.8Z" fill="#ff9826"/><path d="M123.75,19.88c.04,2.57,.13,5.1,.15,7.67,0,1.26-.46,1.71-1.71,1.71s-2.4-.04-3.6-.13c-.25,0-.48-.04-.74-.11-.46-.13-.65-.34-.65-.82-.02-.38,0-.8,0-1.2v-9.19h-1.37c-.55,0-1.14,.02-1.75-.02-.76-.1-1.16-.51-1.2-1.31-.04-1.31-.04-2.66-.02-3.98,.02-.95,.44-1.29,1.37-1.26,3.67,.02,7.31,.04,10.98,.08,.4,0,.82-.04,1.22-.06,.7-.04,1.14,.25,1.2,.93,.08,.44,.02,.97,.02,1.43-.02,.97-.04,1.92-.13,2.84-.08,.8-.27,.93-1.12,.95-.84,.02-1.71,.08-2.65,.15v2.32Z" fill="#ff9826"/></g></g></g></svg>