<?xml version="1.0" encoding="UTF-8"?><svg id="Capa_2" xmlns="http://www.w3.org/2000/svg" viewBox="0 0 23.07 30.62"><g id="Capa_1-2"><path d="M0,26.03v-2.3H3.03V12.02c0-2.14,.59-4.05,1.78-5.72,1.19-1.67,2.76-2.72,4.7-3.16v-1.11c0-.59,.2-1.07,.59-1.45s.87-.57,1.42-.57,1.03,.19,1.42,.57,.59,.87,.59,1.45v1.11c1.95,.43,3.52,1.49,4.72,3.16,1.2,1.67,1.8,3.58,1.8,5.72v11.71h2.99v2.3H0Zm11.54,4.59c-.77,0-1.44-.3-2.02-.9-.58-.6-.87-1.32-.87-2.16h5.77c0,.84-.28,1.56-.85,2.16-.56,.6-1.24,.9-2.04,.9Zm-6.34-6.89h12.72V12.02c0-1.89-.61-3.5-1.84-4.82-1.23-1.33-2.73-1.99-4.51-1.99s-3.29,.66-4.52,1.99c-1.24,1.33-1.86,2.93-1.86,4.82v11.71Z" fill="#ffbd29"/></g></svg>