<?xml version="1.0" encoding="UTF-8"?><svg id="Capa_2" xmlns="http://www.w3.org/2000/svg" viewBox="0 0 159.24 39.53"><g id="Capa_1-2"><g><rect y="0" width="159.24" height="39.53" rx="10.4" ry="10.4" fill="#fff"/><g><path d="M34.02,25.87c0,.82,.06,1.39,.06,2.17-.02,.78-.19,1.1-.93,1.12-1.26,.04-2.59,.04-3.92,0-.72-.02-1.16-.17-1.22-.91-.08-.82,.02-1.81-.04-2.61,0-.89-.4-1.18-1.24-.99,.02,.61,.06,.99,.08,1.64,.02,.51,.02,1.05,0,1.6-.06,.7-.42,1.14-1.14,1.18-1.18,.08-2.34,.11-3.54,.02-.76-.02-1.05-.38-1.05-1.18,.04-3.6,.04-6.98,.06-10.58v-4.74c0-.84,.32-1.18,1.14-1.2,1.64-.08,3.25-.13,4.87-.17,.82,0,1.64,0,2.49,.02,.97,0,1.9,.27,2.74,.76,.78,.46,1.22,1.14,1.56,1.9,.78,1.79,1.12,5.79,.38,7.5-.34,.76-.89,1.45-1.62,2.09,1.12,.46,1.33,1.37,1.33,2.38Zm-5.1-7.06c.02-.67,0-1.43-.11-2.15-.11-.74-.57-1.05-1.33-.91-.36,.04-.53,.19-.5,.57,.08,1.18,.19,2.36,.27,3.54,.97,.53,1.64,.08,1.67-1.05Z" fill="#ff9826"/><path d="M45.52,29.17c-1.85,.13-3.75-.02-5.65,.04-2.42,.04-3.79-2.38-3.96-4.38-.27-2.59-.25-5.18-.11-7.78,.04-1.58,.4-3.08,1.45-4.36,1.08-1.33,3.16-1.37,4.68-1.45,1.12-.08,2.21-.04,3.35-.04,2.46,0,4.21,1.64,4.36,4.13,.21,3.16,.36,6.05,.13,9.19-.06,.99-.19,1.83-.61,2.66-.82,1.45-2.13,1.92-3.65,2Zm-3.81-11.04c.02,1.29,.02,2.57,.04,3.9,0,2.74,2.61,2.32,2.61,.19,.02-1.41,.02-3.03-.04-4.47-.21-1.98-2.61-1.31-2.61,.38Z" fill="#ff9826"/><path d="M57.47,22.71c.27,.7,.84,1.03,1.6,.99,.55-.04,1.03-.53,1.2-1.2,.04-.23,.11-.48,.11-.7,.08-3.16-.19-6.17-.23-9.27-.06-.86,.29-1.33,1.18-1.35,.91-.04,1.85-.11,2.78-.11,1.01-.02,1.98-.15,2.13,.84,.51,3.29,.63,6.95,.34,10.28-.19,2.59-.8,4.17-2.89,5.61-2.06,1.24-4.32,1.64-6.68,1.24-.93-.13-1.9-.32-2.72-.67-1.92-.84-3.04-2.28-3.27-4.38-.08-.7-.17-1.39-.17-2.09,.02-2.11,.11-4.21,.17-6.3,.02-.97,.06-1.94,.11-2.91,0-.21-.02-.46,.06-.65,.17-.63,.4-.8,.93-.78,1.37,.06,2.76,.04,4.13,.06,.74,0,1.08,.32,1.1,1.03,.13,3.08-.06,6.03-.08,8.96,0,.46,.06,.93,.21,1.39Z" fill="#ff9826"/><path d="M76.97,22.66h2.23c.65,0,.88,.23,.93,.88,.04,.32,.04,.63,.04,.91,0,1.31,0,2.59-.04,3.9,0,.63-.23,.84-.86,.84-3.43,0-6.87,0-10.33-.04-.13,0-.23,.04-.36,.04-.55-.04-.78-.23-.8-.8-.04-1.58-.13-3.16-.13-4.74-.04-2.57,.04-5.14,.04-7.73,0-1.2-.08-2.42-.13-3.62-.02-.84,.23-1.1,1.03-1.07,1.77,0,3.58,.02,5.37,.02,.82,.02,1.05,.25,1.05,1.1-.02,2.36-.06,4.74-.08,7.06-.04,1.07,0,2.17,0,3.27h2.02Z" fill="#ff9826"/><path d="M86.22,18.03c1.29,.13,2.57,.13,3.83,.15,.72,.02,.84,.17,.91,.82,.04,.99,.06,1.92,.08,2.93,0,.42-.17,.65-.61,.72-.42,.06-.8,.06-1.22,.06-.97,.06-1.9,0-2.89,0v.55c1.5,.11,3.03,.06,4.53,.08,.57,0,1.14,.02,1.67,.08,.7,.08,1.03,.4,1.03,1.07,.02,1.22,.02,2.44,0,3.67-.02,.72-.36,1.03-1.14,1.03h-9.63c-.93,0-1.35-.4-1.48-1.31-.08-.82-.17-1.62-.15-2.47,.04-3.98,.11-8.01,.15-12.03,0-.15,0-.29,.04-.46,.13-1.2,.55-1.67,1.79-1.71,1.81-.02,3.56,0,5.37-.02,.78,0,1.64-.06,2.44-.06,.57,0,1.12,.04,1.64,.08,.44,.02,.63,.32,.72,.63,.08,.23,.08,.53,.11,.78v3.29c-.02,.91-.29,1.22-1.22,1.22-1.75-.02-3.48-.06-5.23-.13h-.76v1.01Z" fill="#ff9826"/><path d="M105.35,19.86c.04,2.57,.13,5.1,.15,7.67,0,1.26-.46,1.71-1.71,1.71s-2.4-.04-3.6-.13c-.25,0-.48-.04-.74-.11-.46-.13-.65-.34-.65-.82-.02-.38,0-.8,0-1.2v-9.19h-1.37c-.55,0-1.14,.02-1.75-.02-.76-.1-1.16-.51-1.2-1.31-.04-1.31-.04-2.66-.02-3.98,.02-.95,.44-1.29,1.37-1.26,3.67,.02,7.31,.04,10.98,.08,.4,0,.82-.04,1.22-.06,.7-.04,1.14,.25,1.2,.93,.08,.44,.02,.97,.02,1.43-.02,.97-.04,1.92-.13,2.84-.08,.8-.27,.93-1.12,.95-.84,.02-1.71,.08-2.65,.15v2.32Z" fill="#ff9826"/><path d="M121.01,19.86c.04,2.57,.13,5.1,.15,7.67,0,1.26-.46,1.71-1.71,1.71s-2.4-.04-3.6-.13c-.25,0-.48-.04-.74-.11-.46-.13-.65-.34-.65-.82-.02-.38,0-.8,0-1.2v-9.19h-1.37c-.55,0-1.14,.02-1.75-.02-.76-.1-1.16-.51-1.2-1.31-.04-1.31-.04-2.66-.02-3.98,.02-.95,.44-1.29,1.37-1.26,3.67,.02,7.31,.04,10.98,.08,.4,0,.82-.04,1.22-.06,.7-.04,1.14,.25,1.2,.93,.08,.44,.02,.97,.02,1.43-.02,.97-.04,1.92-.13,2.84-.08,.8-.27,.93-1.12,.95-.84,.02-1.71,.08-2.65,.15v2.32Z" fill="#ff9826"/><path d="M130.85,18.03c1.29,.13,2.57,.13,3.83,.15,.72,.02,.84,.17,.91,.82,.04,.99,.06,1.92,.08,2.93,0,.42-.17,.65-.61,.72-.42,.06-.8,.06-1.22,.06-.97,.06-1.9,0-2.89,0v.55c1.5,.11,3.03,.06,4.53,.08,.57,0,1.14,.02,1.67,.08,.7,.08,1.03,.4,1.03,1.07,.02,1.22,.02,2.44,0,3.67-.02,.72-.36,1.03-1.14,1.03h-9.63c-.93,0-1.35-.4-1.48-1.31-.08-.82-.17-1.62-.15-2.47,.04-3.98,.11-8.01,.15-12.03,0-.15,0-.29,.04-.46,.13-1.2,.55-1.67,1.79-1.71,1.81-.02,3.56,0,5.37-.02,.78,0,1.64-.06,2.44-.06,.57,0,1.12,.04,1.64,.08,.44,.02,.63,.32,.72,.63,.08,.23,.08,.53,.11,.78v3.29c-.02,.91-.29,1.22-1.22,1.22-1.75-.02-3.48-.06-5.23-.13h-.76v1.01Z" fill="#ff9826"/></g></g></g></svg>